<svg width="43" height="38" viewBox="0 0 43 38" fill="none" xmlns="http://www.w3.org/2000/svg">
<path d="M7.54885 17.1214C7.56166 17.1342 7.57742 17.1445 7.59506 17.1516C7.61271 17.1587 7.63184 17.1623 7.6512 17.1623C7.67056 17.1623 7.68971 17.1587 7.70735 17.1516C7.725 17.1445 7.74074 17.1342 7.75355 17.1214C7.76807 17.11 7.77972 17.0961 7.78768 17.0804C7.79565 17.0648 7.79976 17.0479 7.79976 17.0307C7.79976 17.0136 7.79565 16.9966 7.78768 16.981C7.77972 16.9653 7.76807 16.9514 7.75355 16.94C7.74074 16.9272 7.725 16.9169 7.70735 16.9098C7.68971 16.9028 7.67056 16.8991 7.6512 16.8991C7.63184 16.8991 7.61271 16.9028 7.59506 16.9098C7.57742 16.9169 7.56166 16.9272 7.54885 16.94C7.52244 16.9644 7.50769 16.9969 7.50769 17.0307C7.50769 17.0645 7.52244 17.097 7.54885 17.1214V17.1214Z" fill="#333333"/>
<path d="M6.68453 18.1286C6.66963 18.1119 6.65063 18.0983 6.62897 18.089C6.6073 18.0797 6.58352 18.0748 6.55943 18.0748C6.53535 18.0748 6.51158 18.0797 6.48991 18.089C6.46824 18.0983 6.44924 18.1119 6.43434 18.1286C6.40235 18.1586 6.38452 18.1982 6.38452 18.2394C6.38452 18.2807 6.40235 18.3203 6.43434 18.3503C6.45031 18.3655 6.46966 18.3777 6.49119 18.386C6.51271 18.3943 6.53595 18.3986 6.55943 18.3986C6.58292 18.3986 6.60616 18.3943 6.62768 18.386C6.64921 18.3777 6.66856 18.3655 6.68453 18.3503C6.70175 18.3361 6.71549 18.319 6.72489 18.2999C6.73429 18.2808 6.73914 18.2602 6.73914 18.2394C6.73914 18.2186 6.73429 18.1981 6.72489 18.179C6.71549 18.1599 6.70175 18.1428 6.68453 18.1286V18.1286Z" fill="#333333"/>
<path d="M7.07125 17.6459C7.08335 17.6364 7.09304 17.6247 7.09968 17.6116C7.10632 17.5986 7.10974 17.5844 7.10974 17.57C7.10974 17.5557 7.10632 17.5415 7.09968 17.5284C7.09304 17.5153 7.08335 17.5036 7.07125 17.4941C7.04884 17.4777 7.02069 17.4687 6.99164 17.4687C6.96259 17.4687 6.93445 17.4777 6.91204 17.4941C6.89994 17.5036 6.89025 17.5153 6.88361 17.5284C6.87697 17.5415 6.87354 17.5557 6.87354 17.57C6.87354 17.5844 6.87697 17.5986 6.88361 17.6116C6.89025 17.6247 6.89994 17.6364 6.91204 17.6459C6.9333 17.6644 6.96188 17.6748 6.99164 17.6748C7.02141 17.6748 7.04999 17.6644 7.07125 17.6459V17.6459Z" fill="#333333"/>
<path d="M6.2979 17.1818C6.28509 17.1689 6.26934 17.1586 6.2517 17.1515C6.23405 17.1445 6.21491 17.1408 6.19554 17.1408C6.17618 17.1408 6.15705 17.1445 6.1394 17.1515C6.12175 17.1586 6.106 17.1689 6.0932 17.1818C6.07868 17.1931 6.06705 17.2071 6.05908 17.2227C6.05112 17.2383 6.047 17.2553 6.047 17.2724C6.047 17.2896 6.05112 17.3065 6.05908 17.3222C6.06705 17.3378 6.07868 17.3518 6.0932 17.3631C6.106 17.376 6.12175 17.3863 6.1394 17.3933C6.15705 17.4004 6.17618 17.404 6.19554 17.404C6.21491 17.404 6.23405 17.4004 6.2517 17.3933C6.26934 17.3863 6.28509 17.376 6.2979 17.3631C6.31242 17.3518 6.32405 17.3378 6.33201 17.3222C6.33998 17.3065 6.3441 17.2896 6.3441 17.2724C6.3441 17.2553 6.33998 17.2383 6.33201 17.2227C6.32405 17.2071 6.31242 17.1931 6.2979 17.1818V17.1818Z" fill="#333333"/>
<path d="M9.43663 10.8461C9.41973 10.8318 9.39734 10.8239 9.37408 10.8239C9.35081 10.8239 9.32843 10.8318 9.31154 10.8461C9.29554 10.8611 9.28662 10.881 9.28662 10.9016C9.28662 10.9223 9.29554 10.9422 9.31154 10.9572C9.31895 10.964 9.32779 10.9693 9.33755 10.973C9.34731 10.9766 9.35781 10.9785 9.3684 10.9785C9.37899 10.9785 9.38947 10.9766 9.39924 10.973C9.409 10.9693 9.41783 10.964 9.42525 10.9572C9.43544 10.9514 9.444 10.9436 9.45028 10.9344C9.45657 10.9252 9.46041 10.9148 9.46151 10.9041C9.46261 10.8934 9.46093 10.8826 9.45662 10.8725C9.45231 10.8625 9.44547 10.8534 9.43663 10.8461V10.8461Z" fill="#333333"/>
<path d="M9.73231 10.7251H9.65271C9.65271 10.7251 9.65271 10.7251 9.65271 10.7862H9.73231C9.73231 10.7862 9.75505 10.7455 9.73231 10.7251Z" fill="#333333"/>
<path d="M9.25466 10.0705C9.26464 10.0621 9.27258 10.0519 9.278 10.0406C9.28342 10.0294 9.28622 10.0172 9.28622 10.005C9.28622 9.99275 9.28342 9.98063 9.278 9.96937C9.27258 9.95811 9.26464 9.94794 9.25466 9.93947C9.24511 9.93063 9.23363 9.92359 9.22093 9.91879C9.20822 9.91398 9.19455 9.9115 9.18074 9.9115C9.16692 9.9115 9.15325 9.91398 9.14055 9.91879C9.12784 9.92359 9.11637 9.93063 9.10681 9.93947C9.09111 9.95848 9.08264 9.98143 9.08264 10.005C9.08264 10.0286 9.09111 10.0515 9.10681 10.0705C9.11637 10.0794 9.12784 10.0864 9.14055 10.0912C9.15325 10.096 9.16692 10.0985 9.18074 10.0985C9.19455 10.0985 9.20822 10.096 9.22093 10.0912C9.23363 10.0864 9.24511 10.0794 9.25466 10.0705V10.0705Z" fill="#333333"/>
<path d="M9.06133 10.8762C9.04685 10.8639 9.0286 10.8557 9.00887 10.8525C8.98914 10.8493 8.96879 10.8513 8.95034 10.8583C8.9319 10.8653 8.91617 10.8769 8.90512 10.8917C8.89407 10.9066 8.88818 10.924 8.88818 10.9417C8.88818 10.9595 8.89407 10.9769 8.90512 10.9917C8.91617 11.0066 8.9319 11.0182 8.95034 11.0252C8.96879 11.0322 8.98914 11.0342 9.00887 11.031C9.0286 11.0278 9.04685 11.0196 9.06133 11.0073C9.07131 10.9988 9.07925 10.9886 9.08467 10.9774C9.09009 10.9661 9.0929 10.954 9.0929 10.9417C9.0929 10.9295 9.09009 10.9174 9.08467 10.9061C9.07925 10.8949 9.07131 10.8847 9.06133 10.8762V10.8762Z" fill="#333333"/>
<path d="M7.02574 16.658C7.04297 16.6439 7.05671 16.6267 7.06611 16.6077C7.0755 16.5886 7.08035 16.568 7.08035 16.5472C7.08035 16.5264 7.0755 16.5058 7.06611 16.4867C7.05671 16.4677 7.04297 16.4505 7.02574 16.4364C7.01084 16.4196 6.99184 16.4061 6.97017 16.3968C6.9485 16.3874 6.92474 16.3826 6.90065 16.3826C6.87656 16.3826 6.8528 16.3874 6.83113 16.3968C6.80946 16.4061 6.79046 16.4196 6.77556 16.4364C6.75833 16.4505 6.74459 16.4677 6.73519 16.4867C6.7258 16.5058 6.72095 16.5264 6.72095 16.5472C6.72095 16.568 6.7258 16.5886 6.73519 16.6077C6.74459 16.6267 6.75833 16.6439 6.77556 16.658C6.79152 16.6733 6.81088 16.6854 6.8324 16.6938C6.85393 16.7021 6.87716 16.7064 6.90065 16.7064C6.92414 16.7064 6.94737 16.7021 6.9689 16.6938C6.99042 16.6854 7.00978 16.6733 7.02574 16.658V16.658Z" fill="#333333"/>
<path d="M7.3555 18.038C7.34167 18.0248 7.32494 18.0144 7.30636 18.0072C7.28777 18.0001 7.26772 17.9964 7.24746 17.9964C7.2272 17.9964 7.20715 18.0001 7.18857 18.0072C7.16998 18.0144 7.15326 18.0248 7.13943 18.038C7.11302 18.0623 7.09827 18.0948 7.09827 18.1286C7.09827 18.1624 7.11302 18.1949 7.13943 18.2193C7.15223 18.2322 7.16798 18.2425 7.18563 18.2495C7.20327 18.2566 7.22242 18.2602 7.24178 18.2602C7.26114 18.2602 7.28028 18.2566 7.29792 18.2495C7.31557 18.2425 7.33132 18.2322 7.34412 18.2193C7.37211 18.1962 7.38893 18.1645 7.39105 18.1307C7.39317 18.0968 7.38043 18.0636 7.3555 18.038V18.038Z" fill="#333333"/>
<path d="M8.83391 10.3525C8.8265 10.3458 8.81765 10.3404 8.80788 10.3368C8.79812 10.3331 8.78764 10.3313 8.77705 10.3313C8.76646 10.3313 8.75597 10.3331 8.74621 10.3368C8.73645 10.3404 8.72759 10.3458 8.72018 10.3525C8.70635 10.3684 8.69885 10.388 8.69885 10.4081C8.69885 10.4282 8.70635 10.4478 8.72018 10.4637C8.7381 10.476 8.7601 10.4827 8.78274 10.4827C8.80537 10.4827 8.82736 10.476 8.84528 10.4637C8.85983 10.4474 8.86676 10.4268 8.86465 10.4061C8.86253 10.3854 8.85153 10.3662 8.83391 10.3525V10.3525Z" fill="#333333"/>
<path d="M9.5731 10.3428C9.58051 10.3495 9.58936 10.3548 9.59913 10.3585C9.60889 10.3621 9.61937 10.364 9.62996 10.364C9.64055 10.364 9.65103 10.3621 9.6608 10.3585C9.67056 10.3548 9.67942 10.3495 9.68683 10.3428C9.69439 10.3362 9.70039 10.3283 9.70449 10.3196C9.7086 10.311 9.71072 10.3016 9.71072 10.2922C9.71072 10.2828 9.7086 10.2735 9.70449 10.2648C9.70039 10.2561 9.69439 10.2483 9.68683 10.2417C9.66993 10.2275 9.64754 10.2195 9.62427 10.2195C9.601 10.2195 9.57863 10.2275 9.56173 10.2417C9.55034 10.2571 9.54526 10.2756 9.54733 10.294C9.5494 10.3124 9.55849 10.3296 9.5731 10.3428V10.3428Z" fill="#333333"/>
<path d="M9.27742 10.6144C9.28448 10.6097 9.2902 10.6036 9.29415 10.5966C9.2981 10.5896 9.30016 10.5819 9.30016 10.5741C9.30016 10.5662 9.2981 10.5585 9.29415 10.5515C9.2902 10.5445 9.28448 10.5384 9.27742 10.5337C9.26491 10.5238 9.24871 10.5183 9.23192 10.5183C9.21514 10.5183 9.19895 10.5238 9.18644 10.5337C9.17525 10.5448 9.16907 10.5592 9.16907 10.5741C9.16907 10.589 9.17525 10.6033 9.18644 10.6144C9.19173 10.6207 9.1986 10.6257 9.2065 10.6292C9.21439 10.6327 9.22309 10.6346 9.23192 10.6346C9.24075 10.6346 9.24947 10.6327 9.25736 10.6292C9.26526 10.6257 9.27213 10.6207 9.27742 10.6144V10.6144Z" fill="#333333"/>
<path d="M17.6019 18.2293C17.585 18.2151 17.5626 18.2073 17.5394 18.2073C17.5161 18.2073 17.4937 18.2151 17.4768 18.2293C17.4768 18.2293 17.4768 18.2995 17.4768 18.3397C17.4937 18.3538 17.5161 18.3617 17.5394 18.3617C17.5626 18.3617 17.585 18.3538 17.6019 18.3397C17.6179 18.3248 17.6268 18.305 17.6268 18.2845C17.6268 18.2639 17.6179 18.2442 17.6019 18.2293Z" fill="#333333"/>
<path d="M16.965 17.7155C16.9588 17.7048 16.9499 17.6955 16.939 17.6882C16.9282 17.681 16.9156 17.676 16.9023 17.6736C16.8889 17.6712 16.8751 17.6715 16.8619 17.6744C16.8487 17.6774 16.8364 17.6829 16.826 17.6906C16.8155 17.6983 16.8071 17.708 16.8015 17.7189C16.7958 17.7299 16.793 17.7418 16.7932 17.7538C16.7935 17.7658 16.7968 17.7776 16.8029 17.7884C16.809 17.7991 16.8178 17.8085 16.8286 17.8159C16.845 17.827 16.8652 17.8329 16.8859 17.8326C16.9066 17.8323 16.9265 17.8257 16.9424 17.814C16.9584 17.8023 16.9693 17.7862 16.9734 17.7682C16.9775 17.7503 16.9745 17.7317 16.965 17.7155V17.7155Z" fill="#333333"/>
<path d="M17.7838 17.6955C17.7838 17.6955 17.8634 17.6955 17.9089 17.6955C17.9249 17.6806 17.9338 17.6607 17.9338 17.6401C17.9338 17.6195 17.9249 17.5997 17.9089 17.5847C17.9015 17.5774 17.8924 17.5715 17.8824 17.5673C17.8724 17.5631 17.8615 17.5607 17.8504 17.5603C17.8393 17.5598 17.8282 17.5613 17.8178 17.5646C17.8073 17.5679 17.7977 17.573 17.7895 17.5797C17.7813 17.5863 17.7746 17.5943 17.7699 17.6032C17.7652 17.6121 17.7625 17.6217 17.7619 17.6315C17.7614 17.6413 17.7631 17.6512 17.7668 17.6604C17.7706 17.6697 17.7764 17.6782 17.7838 17.6855V17.6955Z" fill="#333333"/>
<path d="M17.3972 17.4035C17.418 17.3846 17.4297 17.3593 17.4297 17.3329C17.4297 17.3065 17.418 17.2812 17.3972 17.2623C17.3747 17.246 17.3466 17.237 17.3175 17.237C17.2885 17.237 17.2604 17.246 17.2379 17.2623C17.2195 17.2822 17.2094 17.3072 17.2094 17.3329C17.2094 17.3587 17.2195 17.3836 17.2379 17.4035C17.2592 17.422 17.2878 17.4323 17.3175 17.4323C17.3473 17.4323 17.3759 17.422 17.3972 17.4035V17.4035Z" fill="#333333"/>
<path d="M17.4312 17.9982C17.4312 17.9982 17.4312 17.9273 17.4312 17.9071C17.4312 17.8868 17.363 17.9071 17.3403 17.9071C17.3332 17.9118 17.3275 17.9179 17.3235 17.9249C17.3196 17.932 17.3175 17.9397 17.3175 17.9476C17.3175 17.9555 17.3196 17.9632 17.3235 17.9702C17.3275 17.9773 17.3332 17.9834 17.3403 17.9881C17.3403 17.9881 17.3971 18.0185 17.4312 17.9982Z" fill="#333333"/>
<path d="M12.6891 15.8622C12.6774 15.8513 12.6633 15.8425 12.6476 15.8365C12.632 15.8306 12.6151 15.8275 12.5981 15.8275C12.5811 15.8275 12.5642 15.8306 12.5486 15.8365C12.5329 15.8425 12.5188 15.8513 12.5071 15.8622C12.4947 15.8726 12.4849 15.8851 12.4781 15.899C12.4714 15.9128 12.4679 15.9277 12.4679 15.9428C12.4679 15.9579 12.4714 15.9729 12.4781 15.9867C12.4849 16.0006 12.4947 16.0131 12.5071 16.0234C12.5198 16.0347 12.5349 16.0436 12.5515 16.0497C12.5681 16.0558 12.5858 16.059 12.6038 16.059C12.6218 16.059 12.6395 16.0558 12.6561 16.0497C12.6727 16.0436 12.6878 16.0347 12.7005 16.0234C12.7192 15.9993 12.7282 15.9703 12.7262 15.9411C12.7241 15.9119 12.711 15.8841 12.6891 15.8622V15.8622Z" fill="#333333"/>
<path d="M17.1924 18.2697C17.1829 18.2608 17.1714 18.2538 17.1587 18.249C17.146 18.2442 17.1323 18.2417 17.1185 18.2417C17.1047 18.2417 17.091 18.2442 17.0783 18.249C17.0656 18.2538 17.0541 18.2608 17.0446 18.2697C17.0261 18.2895 17.016 18.3145 17.016 18.3402C17.016 18.366 17.0261 18.3909 17.0446 18.4108C17.067 18.4272 17.0951 18.4361 17.1242 18.4361C17.1532 18.4361 17.1814 18.4272 17.2038 18.4108C17.2232 18.3907 17.2329 18.3646 17.2307 18.3382C17.2286 18.3118 17.2148 18.2872 17.1924 18.2697V18.2697Z" fill="#333333"/>
<path d="M7.87856 17.8263C7.87856 17.8263 7.77622 17.7761 7.7421 17.8263C7.73242 17.8339 7.72467 17.8431 7.71936 17.8535C7.71404 17.8639 7.7113 17.8752 7.7113 17.8866C7.7113 17.898 7.71404 17.9092 7.71936 17.9196C7.72467 17.93 7.73242 17.9393 7.7421 17.9468C7.7421 17.9468 7.84445 17.997 7.87856 17.9468C7.88824 17.9393 7.896 17.93 7.90131 17.9196C7.90662 17.9092 7.90936 17.898 7.90936 17.8866C7.90936 17.8752 7.90662 17.8639 7.90131 17.8535C7.896 17.8431 7.88824 17.8339 7.87856 17.8263V17.8263Z" fill="#333333"/>
<path d="M10.5852 15.0061C10.5459 14.9756 10.4954 14.9588 10.4431 14.9588C10.3908 14.9588 10.3403 14.9756 10.3009 15.0061C10.2641 15.0399 10.2435 15.085 10.2435 15.132C10.2435 15.179 10.2641 15.2241 10.3009 15.2579C10.3391 15.2905 10.3901 15.3088 10.4431 15.3088C10.4961 15.3088 10.5471 15.2905 10.5852 15.2579C10.6221 15.2241 10.6426 15.179 10.6426 15.132C10.6426 15.085 10.6221 15.0399 10.5852 15.0061V15.0061Z" fill="#333333"/>
<path d="M11.5632 14.3108C11.6064 14.2698 11.6304 14.2158 11.6304 14.1598C11.6304 14.1037 11.6064 14.0498 11.5632 14.0088C11.541 13.9887 11.5145 13.9727 11.4852 13.9618C11.4559 13.951 11.4244 13.9453 11.3927 13.9453C11.3609 13.9453 11.3294 13.951 11.3001 13.9618C11.2708 13.9727 11.2443 13.9887 11.2221 14.0088C11.1994 14.0285 11.1813 14.052 11.169 14.0779C11.1567 14.1038 11.1504 14.1317 11.1504 14.1598C11.1504 14.1879 11.1567 14.2157 11.169 14.2417C11.1813 14.2676 11.1994 14.2911 11.2221 14.3108C11.2443 14.3309 11.2708 14.3468 11.3001 14.3577C11.3294 14.3686 11.3609 14.3742 11.3927 14.3742C11.4244 14.3742 11.4559 14.3686 11.4852 14.3577C11.5145 14.3468 11.541 14.3309 11.5632 14.3108V14.3108Z" fill="#333333"/>
<path d="M12.3138 14.9658C12.3519 14.9984 12.4029 15.0166 12.4559 15.0166C12.5089 15.0166 12.5599 14.9984 12.5981 14.9658C12.6349 14.932 12.6555 14.8868 12.6555 14.8399C12.6555 14.7929 12.6349 14.7477 12.5981 14.7139C12.5599 14.6813 12.5089 14.6631 12.4559 14.6631C12.4029 14.6631 12.3519 14.6813 12.3138 14.7139C12.2941 14.73 12.2784 14.7494 12.2677 14.7711C12.257 14.7928 12.2515 14.8162 12.2515 14.8399C12.2515 14.8635 12.257 14.8869 12.2677 14.9086C12.2784 14.9303 12.2941 14.9498 12.3138 14.9658V14.9658Z" fill="#333333"/>
<path d="M11.62 15.6314C11.6417 15.6037 11.6524 15.5705 11.6504 15.5368C11.6485 15.5032 11.634 15.4711 11.6092 15.4456C11.5844 15.4201 11.5508 15.4027 11.5136 15.396C11.4765 15.3894 11.4379 15.394 11.404 15.409C11.3768 15.4351 11.3617 15.4694 11.3617 15.505C11.3617 15.5406 11.3768 15.5749 11.404 15.6011C11.4288 15.6297 11.465 15.6488 11.5052 15.6544C11.5454 15.6601 11.5865 15.6518 11.62 15.6314V15.6314Z" fill="#333333"/>
<path d="M11.1083 16.2449C11.087 16.2235 11.0607 16.2064 11.0313 16.1946C11.0019 16.1829 10.97 16.1768 10.9377 16.1768C10.9054 16.1768 10.8735 16.1829 10.8441 16.1946C10.8147 16.2064 10.7885 16.2235 10.7671 16.2449C10.724 16.2859 10.7 16.3399 10.7 16.3959C10.7 16.452 10.724 16.5059 10.7671 16.5469C10.8134 16.5851 10.8744 16.6064 10.9377 16.6064C11.001 16.6064 11.062 16.5851 11.1083 16.5469C11.131 16.5273 11.149 16.5038 11.1613 16.4778C11.1736 16.4519 11.18 16.4241 11.18 16.3959C11.18 16.3678 11.1736 16.34 11.1613 16.3141C11.149 16.2881 11.131 16.2646 11.1083 16.2449V16.2449Z" fill="#333333"/>
<path d="M11.9954 16.1141C11.9572 16.0814 11.9062 16.0632 11.8532 16.0632C11.8002 16.0632 11.7492 16.0814 11.7111 16.1141C11.6749 16.1462 11.6547 16.1896 11.6547 16.2349C11.6547 16.2803 11.6749 16.3237 11.7111 16.3558C11.7492 16.3885 11.8002 16.4067 11.8532 16.4067C11.9062 16.4067 11.9572 16.3885 11.9954 16.3558C12.0289 16.3226 12.0475 16.2796 12.0475 16.2349C12.0475 16.1903 12.0289 16.1473 11.9954 16.1141V16.1141Z" fill="#333333"/>
<path d="M16.4191 10.6244C16.3929 10.6039 16.3605 10.5905 16.3258 10.5859C16.2912 10.5813 16.2558 10.5856 16.2239 10.5984C16.192 10.6111 16.1649 10.6318 16.1459 10.6579C16.1269 10.6839 16.1168 10.7143 16.1168 10.7453C16.1168 10.7763 16.1269 10.8067 16.1459 10.8327C16.1649 10.8588 16.192 10.8794 16.2239 10.8922C16.2558 10.905 16.2912 10.9093 16.3258 10.9047C16.3605 10.9001 16.3929 10.8867 16.4191 10.8662C16.4552 10.8341 16.4755 10.7906 16.4755 10.7453C16.4755 10.7 16.4552 10.6565 16.4191 10.6244V10.6244Z" fill="#333333"/>
<path d="M21.9346 6.71627C21.9559 6.73474 21.9844 6.74509 22.0142 6.74509C22.044 6.74509 22.0726 6.73474 22.0938 6.71627C22.1123 6.69641 22.1224 6.67146 22.1224 6.64571C22.1224 6.61995 22.1123 6.59501 22.0938 6.57514C22.0726 6.55667 22.044 6.54633 22.0142 6.54633C21.9844 6.54633 21.9559 6.55667 21.9346 6.57514C21.9138 6.59399 21.9021 6.61932 21.9021 6.64571C21.9021 6.67209 21.9138 6.69743 21.9346 6.71627V6.71627Z" fill="#333333"/>
<path d="M17.6474 10.3323C17.6389 10.3237 17.6284 10.3168 17.6166 10.3121C17.6048 10.3074 17.5921 10.305 17.5792 10.305C17.5663 10.305 17.5535 10.3074 17.5417 10.3121C17.53 10.3168 17.5195 10.3237 17.5109 10.3323C17.5009 10.3408 17.493 10.3509 17.4876 10.3622C17.4822 10.3735 17.4794 10.3856 17.4794 10.3978C17.4794 10.4101 17.4822 10.4222 17.4876 10.4334C17.493 10.4447 17.5009 10.4549 17.5109 10.4633C17.5315 10.479 17.5577 10.4875 17.5848 10.4875C17.6119 10.4875 17.6382 10.479 17.6588 10.4633C17.668 10.4542 17.6751 10.4435 17.6796 10.4319C17.6841 10.4202 17.6858 10.4079 17.6848 10.3957C17.6837 10.3834 17.6799 10.3715 17.6734 10.3606C17.667 10.3497 17.6581 10.3401 17.6474 10.3323V10.3323Z" fill="#333333"/>
<path d="M21.5025 6.33341C21.5152 6.32218 21.5253 6.30884 21.5322 6.29414C21.5391 6.27945 21.5426 6.26369 21.5426 6.24778C21.5426 6.23187 21.5391 6.21612 21.5322 6.20142C21.5253 6.18673 21.5152 6.17338 21.5025 6.16215C21.4757 6.14159 21.4413 6.13028 21.4058 6.13028C21.3703 6.13028 21.336 6.14159 21.3092 6.16215C21.2965 6.17338 21.2864 6.18673 21.2795 6.20142C21.2726 6.21612 21.269 6.23187 21.269 6.24778C21.269 6.26369 21.2726 6.27945 21.2795 6.29414C21.2864 6.30884 21.2965 6.32218 21.3092 6.33341C21.3209 6.34607 21.3357 6.35626 21.3524 6.36326C21.3691 6.37026 21.3873 6.37389 21.4058 6.37389C21.4243 6.37389 21.4426 6.37026 21.4593 6.36326C21.476 6.35626 21.4908 6.34607 21.5025 6.33341V6.33341Z" fill="#333333"/>
<path d="M17.1129 10.5539C17.099 10.5408 17.0823 10.5303 17.0637 10.5232C17.0451 10.516 17.0251 10.5123 17.0048 10.5123C16.9846 10.5123 16.9645 10.516 16.9459 10.5232C16.9273 10.5303 16.9106 10.5408 16.8968 10.5539C16.882 10.5661 16.8702 10.581 16.8621 10.5974C16.854 10.6139 16.8499 10.6316 16.8499 10.6496C16.8499 10.6675 16.854 10.6853 16.8621 10.7018C16.8702 10.7182 16.882 10.733 16.8968 10.7453C16.9262 10.7694 16.9648 10.7827 17.0048 10.7827C17.0449 10.7827 17.0834 10.7694 17.1129 10.7453C17.1378 10.7183 17.1514 10.6845 17.1514 10.6496C17.1514 10.6147 17.1378 10.5809 17.1129 10.5539V10.5539Z" fill="#333333"/>
<path d="M16.8172 10.1517C16.8293 10.1422 16.839 10.1305 16.8456 10.1174C16.8523 10.1044 16.8557 10.0902 16.8557 10.0758C16.8557 10.0615 16.8523 10.0473 16.8456 10.0342C16.839 10.0212 16.8293 10.0095 16.8172 9.99999C16.8065 9.98923 16.7934 9.98062 16.7787 9.97471C16.764 9.96881 16.748 9.96576 16.7319 9.96576C16.7158 9.96576 16.6998 9.96881 16.6851 9.97471C16.6704 9.98062 16.6573 9.98923 16.6466 9.99999C16.625 10.0206 16.613 10.0477 16.613 10.0758C16.613 10.104 16.625 10.1311 16.6466 10.1517C16.6573 10.1624 16.6704 10.171 16.6851 10.1769C16.6998 10.1828 16.7158 10.1859 16.7319 10.1859C16.748 10.1859 16.764 10.1828 16.7787 10.1769C16.7934 10.171 16.8065 10.1624 16.8172 10.1517Z" fill="#333333"/>
<path d="M16.7716 9.13366C16.8003 9.11032 16.8203 9.07987 16.8292 9.04627C16.838 9.01267 16.8351 8.9775 16.821 8.94537C16.8068 8.91323 16.7821 8.88562 16.7499 8.86615C16.7178 8.84669 16.6798 8.83627 16.6408 8.83627C16.6019 8.83627 16.5639 8.84669 16.5317 8.86615C16.4996 8.88562 16.4748 8.91323 16.4607 8.94537C16.4466 8.9775 16.4437 9.01267 16.4525 9.04627C16.4613 9.07987 16.4814 9.11032 16.5101 9.13366C16.5457 9.16268 16.5924 9.17879 16.6408 9.17879C16.6893 9.17879 16.7359 9.16268 16.7716 9.13366Z" fill="#333333"/>
<path d="M16.0098 9.66748C15.996 9.65436 15.9793 9.6439 15.9607 9.63675C15.9421 9.6296 15.922 9.62592 15.9018 9.62592C15.8815 9.62592 15.8615 9.6296 15.8429 9.63675C15.8243 9.6439 15.8076 9.65436 15.7937 9.66748C15.7666 9.69354 15.7515 9.72771 15.7515 9.76318C15.7515 9.79866 15.7666 9.83283 15.7937 9.85889C15.8076 9.87201 15.8243 9.88246 15.8429 9.88961C15.8615 9.89677 15.8815 9.90046 15.9018 9.90046C15.922 9.90046 15.9421 9.89677 15.9607 9.88961C15.9793 9.88246 15.996 9.87201 16.0098 9.85889C16.0246 9.84664 16.0364 9.83182 16.0445 9.81536C16.0526 9.79889 16.0567 9.78113 16.0567 9.76318C16.0567 9.74524 16.0526 9.72748 16.0445 9.71101C16.0364 9.69455 16.0246 9.67973 16.0098 9.66748V9.66748Z" fill="#333333"/>
<path d="M17.3631 9.63729C17.3925 9.66137 17.4311 9.67474 17.4711 9.67474C17.5112 9.67474 17.5497 9.66137 17.5791 9.63729C17.6063 9.61124 17.6214 9.57707 17.6214 9.54159C17.6214 9.50612 17.6063 9.47195 17.5791 9.44589C17.5497 9.42182 17.5112 9.40845 17.4711 9.40845C17.4311 9.40845 17.3925 9.42182 17.3631 9.44589C17.3359 9.47195 17.3208 9.50612 17.3208 9.54159C17.3208 9.57707 17.3359 9.61124 17.3631 9.63729V9.63729Z" fill="#333333"/>
<path d="M20.9453 6.73634C20.924 6.71787 20.8954 6.70752 20.8657 6.70752C20.8359 6.70752 20.8073 6.71787 20.786 6.73634C20.7652 6.75518 20.7535 6.78051 20.7535 6.8069C20.7535 6.83329 20.7652 6.85862 20.786 6.87746C20.8085 6.89385 20.8366 6.90281 20.8657 6.90281C20.8947 6.90281 20.9228 6.89385 20.9453 6.87746C20.9661 6.85862 20.9778 6.83329 20.9778 6.8069C20.9778 6.78051 20.9661 6.75518 20.9453 6.73634V6.73634Z" fill="#333333"/>
<path d="M20.0582 13.545C20.0707 13.5567 20.0869 13.5648 20.1047 13.5683C20.1225 13.5717 20.141 13.5704 20.158 13.5644C20.1749 13.5585 20.1894 13.5482 20.1996 13.5349C20.2098 13.5216 20.2153 13.5059 20.2153 13.4898C20.2153 13.4738 20.2098 13.4581 20.1996 13.4448C20.1894 13.4315 20.1749 13.4212 20.158 13.4152C20.141 13.4093 20.1225 13.4079 20.1047 13.4114C20.0869 13.4149 20.0707 13.4229 20.0582 13.4346C20.0582 13.4346 20.0582 13.5049 20.0582 13.545Z" fill="#333333"/>
<path d="M19.774 13.8377C19.7831 13.8247 19.7872 13.8095 19.7857 13.7942C19.7842 13.7789 19.7771 13.7645 19.7656 13.7532C19.754 13.7418 19.7386 13.734 19.7217 13.7311C19.7047 13.7282 19.6871 13.7302 19.6716 13.7369C19.6625 13.7499 19.6583 13.7652 19.6599 13.7804C19.6614 13.7957 19.6684 13.8101 19.68 13.8215C19.6915 13.8328 19.7069 13.8406 19.7239 13.8435C19.7408 13.8465 19.7584 13.8444 19.774 13.8377V13.8377Z" fill="#333333"/>
<path d="M19.9331 14.0994C19.9162 14.0853 19.8939 14.0775 19.8706 14.0775C19.8473 14.0775 19.8249 14.0853 19.808 14.0994C19.7913 14.116 19.782 14.1375 19.782 14.1597C19.782 14.1819 19.7913 14.2034 19.808 14.2199C19.8155 14.2272 19.8245 14.2331 19.8346 14.2372C19.8446 14.2414 19.8555 14.2438 19.8666 14.2443C19.8777 14.2447 19.8888 14.2433 19.8992 14.2399C19.9096 14.2366 19.9192 14.2315 19.9275 14.2249C19.9357 14.2183 19.9423 14.2104 19.9471 14.2015C19.9518 14.1927 19.9545 14.1831 19.955 14.1733C19.9556 14.1635 19.9539 14.1537 19.9502 14.1445C19.9464 14.1353 19.9406 14.1268 19.9331 14.1195V14.0994Z" fill="#333333"/>
<path d="M19.2962 13.5557C19.2888 13.5484 19.2798 13.5424 19.2697 13.5382C19.2597 13.534 19.2488 13.5316 19.2377 13.5312C19.2266 13.5307 19.2155 13.5322 19.2051 13.5355C19.1946 13.5388 19.1851 13.544 19.1768 13.5506C19.1686 13.5572 19.162 13.5653 19.1572 13.5742C19.1525 13.5831 19.1498 13.5928 19.1493 13.6026C19.1487 13.6125 19.1504 13.6223 19.1541 13.6316C19.1579 13.6409 19.1637 13.6494 19.1711 13.6567C19.188 13.671 19.2104 13.6789 19.2337 13.6789C19.257 13.6789 19.2793 13.671 19.2962 13.6567C19.3075 13.6418 19.3135 13.6242 19.3135 13.6062C19.3135 13.5882 19.3075 13.5706 19.2962 13.5557V13.5557Z" fill="#333333"/>
<path d="M19.5351 14.0995C19.5127 14.0831 19.4846 14.0742 19.4555 14.0742C19.4265 14.0742 19.3983 14.0831 19.3759 14.0995C19.3574 14.1194 19.3473 14.1443 19.3473 14.1701C19.3473 14.1958 19.3574 14.2208 19.3759 14.2406C19.394 14.2594 19.4197 14.2709 19.4475 14.2728C19.4752 14.2747 19.5026 14.2668 19.5237 14.2507C19.5449 14.2347 19.5579 14.2119 19.56 14.1873C19.5622 14.1627 19.5532 14.1384 19.5351 14.1197V14.0995Z" fill="#333333"/>
<path d="M21.5366 7.04901C21.5526 7.03399 21.5615 7.01409 21.5615 6.99341C21.5615 6.97273 21.5526 6.95284 21.5366 6.93782C21.5197 6.9236 21.4973 6.91568 21.4741 6.91568C21.4508 6.91568 21.4284 6.9236 21.4115 6.93782C21.3955 6.95284 21.3866 6.97273 21.3866 6.99341C21.3866 7.01409 21.3955 7.03399 21.4115 7.04901C21.4284 7.06322 21.4508 7.07115 21.4741 7.07115C21.4973 7.07115 21.5197 7.06322 21.5366 7.04901V7.04901Z" fill="#333333"/>
<path d="M21.7527 7.39106C21.7432 7.38054 21.731 7.37205 21.7172 7.36622C21.7035 7.36039 21.6884 7.35736 21.6731 7.35736C21.6579 7.35736 21.6428 7.36039 21.629 7.36622C21.6153 7.37205 21.6031 7.38054 21.5935 7.39106C21.5751 7.41093 21.5649 7.43587 21.5649 7.46162C21.5649 7.48737 21.5751 7.51232 21.5935 7.53219C21.6159 7.54857 21.6441 7.55754 21.6731 7.55754C21.7022 7.55754 21.7303 7.54857 21.7527 7.53219C21.7736 7.51334 21.7852 7.48801 21.7852 7.46162C21.7852 7.43524 21.7736 7.4099 21.7527 7.39106V7.39106Z" fill="#333333"/>
<path d="M19.7398 13.244C19.7498 13.2355 19.7578 13.2253 19.7632 13.214C19.7686 13.2027 19.7714 13.1906 19.7714 13.1783C19.7714 13.166 19.7686 13.1538 19.7632 13.1425C19.7578 13.1312 19.7498 13.121 19.7398 13.1125C19.7303 13.1019 19.7181 13.0934 19.7043 13.0876C19.6906 13.0817 19.6755 13.0787 19.6602 13.0787C19.645 13.0787 19.6299 13.0817 19.6161 13.0876C19.6023 13.0934 19.5902 13.1019 19.5806 13.1125C19.5707 13.121 19.5627 13.1312 19.5573 13.1425C19.5519 13.1538 19.5491 13.166 19.5491 13.1783C19.5491 13.1906 19.5519 13.2027 19.5573 13.214C19.5627 13.2253 19.5707 13.2355 19.5806 13.244C19.5885 13.2567 19.6 13.2672 19.614 13.2746C19.628 13.2819 19.644 13.2858 19.6602 13.2858C19.6765 13.2858 19.6924 13.2819 19.7064 13.2746C19.7204 13.2672 19.732 13.2567 19.7398 13.244V13.244Z" fill="#333333"/>
<path d="M21.1954 7.4415C21.1827 7.43019 21.1677 7.42122 21.1511 7.4151C21.1345 7.40897 21.1167 7.40582 21.0988 7.40582C21.0808 7.40582 21.063 7.40897 21.0464 7.4151C21.0298 7.42122 21.0148 7.43019 21.0021 7.4415C20.9757 7.46597 20.9609 7.49857 20.9609 7.53247C20.9609 7.56638 20.9757 7.59898 21.0021 7.62345C21.0148 7.63476 21.0298 7.64373 21.0464 7.64985C21.063 7.65597 21.0808 7.65913 21.0988 7.65913C21.1167 7.65913 21.1345 7.65597 21.1511 7.64985C21.1677 7.64373 21.1827 7.63476 21.1954 7.62345C21.2119 7.61319 21.2253 7.59957 21.2345 7.58373C21.2438 7.5679 21.2486 7.55032 21.2486 7.53247C21.2486 7.51463 21.2438 7.49705 21.2345 7.48122C21.2253 7.46538 21.2119 7.45176 21.1954 7.4415V7.4415Z" fill="#333333"/>
<path d="M22.1507 7.21973C22.1443 7.21332 22.1364 7.20819 22.1276 7.20468C22.1188 7.20116 22.1092 7.19934 22.0995 7.19934C22.0899 7.19934 22.0803 7.20116 22.0715 7.20468C22.0626 7.20819 22.0548 7.21332 22.0484 7.21973C22.0411 7.22539 22.0353 7.23234 22.0313 7.24013C22.0273 7.24792 22.0253 7.25636 22.0253 7.26491C22.0253 7.27345 22.0273 7.2819 22.0313 7.28969C22.0353 7.29748 22.0411 7.30443 22.0484 7.31008C22.0645 7.32149 22.0846 7.3277 22.1052 7.3277C22.1259 7.3277 22.146 7.32149 22.1621 7.31008C22.1694 7.29548 22.1722 7.27943 22.1702 7.26355C22.1682 7.24768 22.1615 7.23256 22.1507 7.21973V7.21973Z" fill="#333333"/>
<path d="M27.6663 30.921C27.6478 30.9409 27.6377 30.9659 27.6377 30.9916C27.6377 31.0174 27.6478 31.0423 27.6663 31.0622C27.6876 31.0807 27.7161 31.091 27.7459 31.091C27.7757 31.091 27.8042 31.0807 27.8255 31.0622C27.8355 31.0537 27.8434 31.0435 27.8488 31.0323C27.8543 31.021 27.8571 31.0089 27.8571 30.9967C27.8571 30.9844 27.8543 30.9723 27.8488 30.961C27.8434 30.9498 27.8355 30.9396 27.8255 30.9311C27.8058 30.9113 27.778 30.8991 27.7482 30.8972C27.7184 30.8953 27.689 30.9039 27.6663 30.921V30.921Z" fill="#333333"/>
<path d="M23.3676 32.2306C23.3882 32.2462 23.4144 32.2548 23.4415 32.2548C23.4686 32.2548 23.4948 32.2462 23.5154 32.2306C23.5331 32.2124 23.5428 32.1891 23.5428 32.1651C23.5428 32.1411 23.5331 32.1178 23.5154 32.0996C23.5069 32.091 23.4964 32.0841 23.4846 32.0794C23.4729 32.0747 23.4601 32.0723 23.4472 32.0723C23.4343 32.0723 23.4215 32.0747 23.4098 32.0794C23.398 32.0841 23.3875 32.091 23.379 32.0996C23.3682 32.1073 23.3594 32.117 23.353 32.1278C23.3465 32.1387 23.3427 32.1507 23.3416 32.1629C23.3405 32.1752 23.3423 32.1875 23.3468 32.1991C23.3513 32.2108 23.3583 32.2215 23.3676 32.2306V32.2306Z" fill="#333333"/>
<path d="M28.178 30.5282C28.1892 30.5395 28.2028 30.5486 28.218 30.5552C28.2332 30.5618 28.2497 30.5657 28.2666 30.5666C28.2835 30.5676 28.3005 30.5656 28.3165 30.5607C28.3325 30.5558 28.3473 30.5482 28.36 30.5383C28.3727 30.5284 28.383 30.5163 28.3905 30.5029C28.3979 30.4894 28.4023 30.4748 28.4033 30.4598C28.4044 30.4448 28.4021 30.4298 28.3966 30.4156C28.3911 30.4014 28.3825 30.3884 28.3713 30.3771C28.3601 30.3659 28.3465 30.3567 28.3313 30.3501C28.3161 30.3435 28.2996 30.3396 28.2827 30.3387C28.2658 30.3378 28.2489 30.3398 28.2329 30.3446C28.2168 30.3495 28.2021 30.3571 28.1894 30.367C28.1767 30.377 28.1663 30.389 28.1589 30.4025C28.1514 30.4159 28.1471 30.4306 28.146 30.4455C28.1449 30.4605 28.1472 30.4755 28.1527 30.4897C28.1582 30.5039 28.1668 30.517 28.178 30.5282V30.5282Z" fill="#333333"/>
<path d="M22.7534 32.4622C22.7829 32.4863 22.8214 32.4996 22.8615 32.4996C22.9015 32.4996 22.9401 32.4863 22.9695 32.4622C22.9975 32.4345 23.013 32.3986 23.013 32.3615C23.013 32.3243 22.9975 32.2884 22.9695 32.2607C22.9557 32.2476 22.939 32.2371 22.9204 32.23C22.9018 32.2228 22.8817 32.2191 22.8615 32.2191C22.8412 32.2191 22.8212 32.2228 22.8026 32.23C22.784 32.2371 22.7673 32.2476 22.7534 32.2607C22.7367 32.273 22.7233 32.2884 22.7141 32.3058C22.7049 32.3232 22.7001 32.3422 22.7001 32.3615C22.7001 32.3807 22.7049 32.3997 22.7141 32.4171C22.7233 32.4345 22.7367 32.4499 22.7534 32.4622V32.4622Z" fill="#333333"/>
<path d="M22.0257 32.3312C21.997 32.3546 21.977 32.385 21.9681 32.4186C21.9593 32.4522 21.9622 32.4874 21.9763 32.5195C21.9905 32.5517 22.0152 32.5793 22.0473 32.5988C22.0795 32.6182 22.1175 32.6286 22.1565 32.6286C22.1954 32.6286 22.2334 32.6182 22.2656 32.5988C22.2977 32.5793 22.3225 32.5517 22.3366 32.5195C22.3507 32.4874 22.3536 32.4522 22.3448 32.4186C22.336 32.385 22.3159 32.3546 22.2872 32.3312C22.2703 32.3157 22.2499 32.3033 22.2275 32.2949C22.205 32.2865 22.1809 32.2821 22.1565 32.2821C22.1321 32.2821 22.1079 32.2865 22.0854 32.2949C22.063 32.3033 22.0426 32.3157 22.0257 32.3312Z" fill="#333333"/>
<path d="M27.9278 31.606C27.9137 31.6154 27.9022 31.6275 27.8943 31.6415C27.8864 31.6555 27.8823 31.6709 27.8823 31.6866C27.8823 31.7022 27.8864 31.7176 27.8943 31.7316C27.9022 31.7456 27.9137 31.7578 27.9278 31.7672C27.9405 31.7784 27.9556 31.7874 27.9721 31.7935C27.9887 31.7996 28.0065 31.8027 28.0245 31.8027C28.0424 31.8027 28.0602 31.7996 28.0768 31.7935C28.0934 31.7874 28.1085 31.7784 28.1211 31.7672C28.1339 31.7559 28.144 31.7426 28.1508 31.7279C28.1577 31.7132 28.1613 31.6975 28.1613 31.6815C28.1613 31.6656 28.1577 31.6499 28.1508 31.6352C28.144 31.6205 28.1339 31.6072 28.1211 31.5959C28.1086 31.5838 28.0931 31.5744 28.076 31.5682C28.0588 31.5621 28.0403 31.5594 28.0218 31.5604C28.0033 31.5613 27.9853 31.5659 27.969 31.5738C27.9528 31.5817 27.9387 31.5927 27.9278 31.606V31.606Z" fill="#333333"/>
<path d="M28.4396 31.6968C28.462 31.7132 28.4902 31.7221 28.5192 31.7221C28.5483 31.7221 28.5764 31.7132 28.5988 31.6968C28.6173 31.6769 28.6274 31.652 28.6274 31.6262C28.6274 31.6005 28.6173 31.5755 28.5988 31.5556C28.5764 31.5393 28.5483 31.5303 28.5192 31.5303C28.4902 31.5303 28.462 31.5393 28.4396 31.5556C28.4211 31.5755 28.411 31.6005 28.411 31.6262C28.411 31.652 28.4211 31.6769 28.4396 31.6968V31.6968Z" fill="#333333"/>
<path d="M23.2311 31.3743C23.2605 31.3984 23.2991 31.4118 23.3391 31.4118C23.3792 31.4118 23.4178 31.3984 23.4472 31.3743C23.4744 31.3483 23.4895 31.3141 23.4895 31.2786C23.4895 31.2432 23.4744 31.209 23.4472 31.1829C23.4334 31.1698 23.4166 31.1593 23.398 31.1522C23.3795 31.145 23.3594 31.1414 23.3391 31.1414C23.3189 31.1414 23.2988 31.145 23.2803 31.1522C23.2617 31.1593 23.2449 31.1698 23.2311 31.1829C23.2163 31.1952 23.2045 31.21 23.1964 31.2265C23.1884 31.2429 23.1842 31.2607 23.1842 31.2786C23.1842 31.2966 23.1884 31.3143 23.1964 31.3308C23.2045 31.3473 23.2163 31.3621 23.2311 31.3743V31.3743Z" fill="#333333"/>
<path d="M28.7808 30.9212C28.802 30.9396 28.8306 30.95 28.8604 30.95C28.8901 30.95 28.9187 30.9396 28.94 30.9212C28.95 30.9127 28.9579 30.9025 28.9633 30.8913C28.9687 30.88 28.9715 30.8679 28.9715 30.8556C28.9715 30.8434 28.9687 30.8313 28.9633 30.82C28.9579 30.8087 28.95 30.7986 28.94 30.7901C28.9187 30.7716 28.8901 30.7613 28.8604 30.7613C28.8306 30.7613 28.802 30.7716 28.7808 30.7901C28.7651 30.8091 28.7566 30.8321 28.7566 30.8556C28.7566 30.8792 28.7651 30.9021 28.7808 30.9212V30.9212Z" fill="#333333"/>
<path d="M28.2804 31.2237C28.2878 31.2304 28.2966 31.2357 28.3064 31.2394C28.3161 31.243 28.3266 31.2449 28.3372 31.2449C28.3478 31.2449 28.3583 31.243 28.3681 31.2394C28.3778 31.2357 28.3867 31.2304 28.3941 31.2237C28.4035 31.2171 28.4112 31.2086 28.4165 31.199C28.4217 31.1894 28.4245 31.1788 28.4245 31.1681C28.4245 31.1574 28.4217 31.1468 28.4165 31.1372C28.4112 31.1276 28.4035 31.1191 28.3941 31.1125C28.3772 31.0983 28.3548 31.0904 28.3315 31.0904C28.3083 31.0904 28.2859 31.0983 28.269 31.1125C28.2601 31.1199 28.2533 31.1289 28.249 31.139C28.2447 31.149 28.243 31.1598 28.2441 31.1706C28.2452 31.1813 28.249 31.1916 28.2553 31.2008C28.2616 31.21 28.2702 31.2179 28.2804 31.2237V31.2237Z" fill="#333333"/>
<path d="M23.9817 27.0129C24.003 27.0314 24.0316 27.0417 24.0613 27.0417C24.0911 27.0417 24.1197 27.0314 24.1409 27.0129C24.1509 27.0045 24.1588 26.9943 24.1643 26.983C24.1697 26.9718 24.1725 26.9597 24.1725 26.9474C24.1725 26.9352 24.1697 26.923 24.1643 26.9118C24.1588 26.9005 24.1509 26.8904 24.1409 26.8819C24.1314 26.873 24.1199 26.866 24.1072 26.8612C24.0945 26.8564 24.0808 26.8539 24.067 26.8539C24.0532 26.8539 24.0395 26.8564 24.0268 26.8612C24.0141 26.866 24.0026 26.873 23.9931 26.8819C23.9757 26.8998 23.9652 26.9222 23.9631 26.9458C23.9611 26.9693 23.9676 26.9929 23.9817 27.0129Z" fill="#333333"/>
<path d="M23.2084 26.2374C23.1899 26.2573 23.1798 26.2823 23.1798 26.3082C23.1798 26.334 23.1899 26.3591 23.2084 26.379C23.2297 26.3976 23.2582 26.4079 23.288 26.4079C23.3178 26.4079 23.3464 26.3976 23.3676 26.379C23.3776 26.3705 23.3855 26.3603 23.391 26.349C23.3964 26.3377 23.3992 26.3255 23.3992 26.3133C23.3992 26.301 23.3964 26.2888 23.391 26.2775C23.3855 26.2662 23.3776 26.256 23.3676 26.2475C23.3608 26.2343 23.3502 26.2229 23.3368 26.2147C23.3233 26.2064 23.3077 26.2015 23.2914 26.2004C23.2751 26.1994 23.2588 26.2023 23.2442 26.2088C23.2296 26.2153 23.2172 26.2252 23.2084 26.2374V26.2374Z" fill="#333333"/>
<path d="M23.4699 26.9121C23.4572 26.9233 23.4471 26.9367 23.4402 26.9514C23.4334 26.966 23.4298 26.9818 23.4298 26.9977C23.4298 27.0136 23.4334 27.0294 23.4402 27.0441C23.4471 27.0588 23.4572 27.0721 23.4699 27.0833C23.4816 27.0943 23.4957 27.1031 23.5114 27.109C23.527 27.115 23.5439 27.1181 23.5609 27.1181C23.578 27.1181 23.5948 27.115 23.6105 27.109C23.6261 27.1031 23.6402 27.0943 23.6519 27.0833C23.6643 27.073 23.6742 27.0605 23.6809 27.0466C23.6877 27.0328 23.6911 27.0178 23.6911 27.0027C23.6911 26.9877 23.6877 26.9727 23.6809 26.9589C23.6742 26.945 23.6643 26.9325 23.6519 26.9222C23.6283 26.9009 23.5967 26.8881 23.5631 26.8863C23.5295 26.8844 23.4963 26.8936 23.4699 26.9121V26.9121Z" fill="#333333"/>
<path d="M23.8225 26.5801C23.8299 26.5868 23.8388 26.5922 23.8485 26.5958C23.8583 26.5995 23.8688 26.6014 23.8794 26.6014C23.8899 26.6014 23.9004 26.5995 23.9102 26.5958C23.92 26.5922 23.9288 26.5868 23.9362 26.5801C23.9522 26.5651 23.9611 26.5452 23.9611 26.5245C23.9611 26.5038 23.9522 26.484 23.9362 26.4689C23.9193 26.4547 23.8969 26.4468 23.8737 26.4468C23.8504 26.4468 23.828 26.4547 23.8111 26.4689C23.7966 26.4852 23.7896 26.5058 23.7918 26.5266C23.7939 26.5473 23.8049 26.5664 23.8225 26.5801V26.5801Z" fill="#333333"/>
<path d="M23.7202 25.8444C23.7319 25.8554 23.746 25.8641 23.7616 25.8701C23.7773 25.8761 23.7941 25.8791 23.8112 25.8791C23.8282 25.8791 23.8451 25.8761 23.8607 25.8701C23.8763 25.8641 23.8904 25.8554 23.9021 25.8444C23.9149 25.8332 23.9249 25.8198 23.9318 25.8051C23.9387 25.7904 23.9423 25.7747 23.9423 25.7587C23.9423 25.7428 23.9387 25.7271 23.9318 25.7124C23.9249 25.6977 23.9149 25.6843 23.9021 25.6731C23.8895 25.6618 23.8744 25.6529 23.8578 25.6468C23.8412 25.6407 23.8234 25.6376 23.8055 25.6376C23.7875 25.6376 23.7697 25.6407 23.7531 25.6468C23.7365 25.6529 23.7215 25.6618 23.7088 25.6731C23.6952 25.6842 23.6845 25.6979 23.6776 25.7131C23.6706 25.7283 23.6676 25.7447 23.6687 25.7611C23.6698 25.7775 23.6749 25.7935 23.6839 25.8079C23.6928 25.8223 23.7052 25.8348 23.7202 25.8444Z" fill="#333333"/>
<path d="M21.6618 31.3844C21.6346 31.4105 21.6195 31.4446 21.6195 31.4801C21.6195 31.5156 21.6346 31.5497 21.6618 31.5758C21.6756 31.5889 21.6923 31.5994 21.7109 31.6065C21.7295 31.6137 21.7496 31.6174 21.7698 31.6174C21.7901 31.6174 21.8101 31.6137 21.8287 31.6065C21.8473 31.5994 21.864 31.5889 21.8779 31.5758C21.905 31.5497 21.9201 31.5156 21.9201 31.4801C21.9201 31.4446 21.905 31.4105 21.8779 31.3844C21.864 31.3713 21.8473 31.3608 21.8287 31.3537C21.8101 31.3465 21.7901 31.3428 21.7698 31.3428C21.7496 31.3428 21.7295 31.3465 21.7109 31.3537C21.6923 31.3608 21.6756 31.3713 21.6618 31.3844V31.3844Z" fill="#333333"/>
<path d="M22.3326 30.8405C22.3589 30.861 22.3913 30.8744 22.4259 30.879C22.4605 30.8836 22.4959 30.8793 22.5279 30.8665C22.5598 30.8537 22.5868 30.8331 22.6058 30.807C22.6248 30.781 22.6349 30.7506 22.6349 30.7196C22.6349 30.6886 22.6248 30.6582 22.6058 30.6322C22.5868 30.6061 22.5598 30.5854 22.5279 30.5727C22.4959 30.5599 22.4605 30.5556 22.4259 30.5602C22.3913 30.5648 22.3589 30.5782 22.3326 30.5987C22.2965 30.6308 22.2762 30.6743 22.2762 30.7196C22.2762 30.7649 22.2965 30.8084 22.3326 30.8405V30.8405Z" fill="#333333"/>
<path d="M28.8831 31.4948C28.8895 31.5012 28.8974 31.5064 28.9062 31.5099C28.915 31.5134 28.9246 31.5152 28.9343 31.5152C28.9439 31.5152 28.9535 31.5134 28.9623 31.5099C28.9712 31.5064 28.979 31.5012 28.9854 31.4948C28.9927 31.4892 28.9985 31.4822 29.0025 31.4744C29.0065 31.4666 29.0085 31.4582 29.0085 31.4497C29.0085 31.4411 29.0065 31.4327 29.0025 31.4249C28.9985 31.4171 28.9927 31.4101 28.9854 31.4045C28.979 31.3981 28.9712 31.3929 28.9623 31.3894C28.9535 31.3859 28.9439 31.3841 28.9343 31.3841C28.9246 31.3841 28.915 31.3859 28.9062 31.3894C28.8974 31.3929 28.8895 31.3981 28.8831 31.4045C28.8758 31.4101 28.87 31.4171 28.866 31.4249C28.862 31.4327 28.86 31.4411 28.86 31.4497C28.86 31.4582 28.862 31.4666 28.866 31.4744C28.87 31.4822 28.8758 31.4892 28.8831 31.4948Z" fill="#333333"/>
<path d="M22.5147 31.8686C22.5253 31.8794 22.5385 31.888 22.5532 31.8939C22.5679 31.8998 22.5838 31.9028 22.6 31.9028C22.6161 31.9028 22.632 31.8998 22.6467 31.8939C22.6614 31.888 22.6746 31.8794 22.6852 31.8686C22.6974 31.8591 22.7071 31.8474 22.7137 31.8344C22.7203 31.8213 22.7238 31.8071 22.7238 31.7928C22.7238 31.7784 22.7203 31.7642 22.7137 31.7512C22.7071 31.7381 22.6974 31.7264 22.6852 31.7169C22.6746 31.7062 22.6614 31.6976 22.6467 31.6916C22.632 31.6857 22.6161 31.6827 22.6 31.6827C22.5838 31.6827 22.5679 31.6857 22.5532 31.6916C22.5385 31.6976 22.5253 31.7062 22.5147 31.7169C22.4931 31.7375 22.4811 31.7646 22.4811 31.7928C22.4811 31.8209 22.4931 31.848 22.5147 31.8686V31.8686Z" fill="#333333"/>
<path d="M24.4252 26.811C24.4316 26.8174 24.4395 26.8226 24.4483 26.8261C24.4571 26.8296 24.4667 26.8314 24.4764 26.8314C24.4861 26.8314 24.4956 26.8296 24.5044 26.8261C24.5133 26.8226 24.5211 26.8174 24.5275 26.811C24.5348 26.8054 24.5406 26.7984 24.5446 26.7906C24.5486 26.7829 24.5507 26.7744 24.5507 26.7659C24.5507 26.7573 24.5486 26.7489 24.5446 26.7411C24.5406 26.7333 24.5348 26.7263 24.5275 26.7207C24.5275 26.7207 24.4479 26.7207 24.4252 26.7207C24.4179 26.7263 24.4121 26.7333 24.4081 26.7411C24.4042 26.7489 24.4021 26.7573 24.4021 26.7659C24.4021 26.7744 24.4042 26.7829 24.4081 26.7906C24.4121 26.7984 24.4179 26.8054 24.4252 26.811V26.811Z" fill="#333333"/>
<path d="M24.3228 26.1876C24.3324 26.1981 24.3445 26.2067 24.3583 26.2125C24.3721 26.2184 24.3871 26.2214 24.4024 26.2214C24.4177 26.2214 24.4327 26.2184 24.4465 26.2125C24.4603 26.2067 24.4724 26.1981 24.482 26.1876C24.5028 26.1687 24.5145 26.1432 24.5145 26.1168C24.5145 26.0903 24.5028 26.0648 24.482 26.0459C24.4724 26.0371 24.461 26.03 24.4483 26.0252C24.4356 26.0203 24.4219 26.0179 24.4081 26.0179C24.3943 26.0179 24.3806 26.0203 24.3679 26.0252C24.3552 26.03 24.3437 26.0371 24.3341 26.0459C24.3216 26.0537 24.3111 26.0639 24.3035 26.0757C24.2959 26.0875 24.2914 26.1007 24.2903 26.1143C24.2892 26.1279 24.2916 26.1416 24.2972 26.1542C24.3028 26.1669 24.3116 26.1783 24.3228 26.1876V26.1876Z" fill="#333333"/>
<path d="M35.7064 21.3118C35.6952 21.3005 35.6816 21.2913 35.6664 21.2846C35.6512 21.278 35.6347 21.2741 35.6178 21.2732C35.6009 21.2723 35.584 21.2743 35.568 21.2792C35.5519 21.2841 35.5372 21.2917 35.5245 21.3017C35.5118 21.3116 35.5014 21.3237 35.494 21.3372C35.4865 21.3507 35.4821 21.3654 35.4811 21.3805C35.48 21.3955 35.4823 21.4105 35.4878 21.4248C35.4933 21.439 35.5019 21.4521 35.5131 21.4634C35.5248 21.4745 35.5389 21.4832 35.5545 21.4892C35.5702 21.4952 35.587 21.4983 35.6041 21.4983C35.6211 21.4983 35.638 21.4952 35.6536 21.4892C35.6693 21.4832 35.6834 21.4745 35.695 21.4634C35.7161 21.4431 35.7287 21.417 35.7308 21.3894C35.7328 21.3618 35.7242 21.3344 35.7064 21.3118V21.3118Z" fill="#333333"/>
<path d="M35.9793 20.9696C35.9953 20.9546 36.0042 20.9347 36.0042 20.914C36.0042 20.8933 35.9953 20.8734 35.9793 20.8584C35.9624 20.8442 35.94 20.8363 35.9168 20.8363C35.8935 20.8363 35.8711 20.8442 35.8542 20.8584C35.8404 20.8743 35.8329 20.8939 35.8329 20.914C35.8329 20.9341 35.8404 20.9537 35.8542 20.9696C35.8711 20.9838 35.8935 20.9917 35.9168 20.9917C35.94 20.9917 35.9624 20.9838 35.9793 20.9696V20.9696Z" fill="#333333"/>
<path d="M36.1954 21.2613C36.1858 21.2524 36.1744 21.2454 36.1616 21.2406C36.1489 21.2358 36.1353 21.2333 36.1215 21.2333C36.1076 21.2333 36.094 21.2358 36.0813 21.2406C36.0686 21.2454 36.0571 21.2524 36.0475 21.2613C36.0376 21.2697 36.0296 21.2799 36.0242 21.2912C36.0188 21.3024 36.016 21.3145 36.016 21.3268C36.016 21.339 36.0188 21.3512 36.0242 21.3624C36.0296 21.3737 36.0376 21.3838 36.0475 21.3923C36.0688 21.4108 36.0974 21.4211 36.1272 21.4211C36.1569 21.4211 36.1855 21.4108 36.2067 21.3923C36.2228 21.3729 36.2306 21.349 36.2285 21.3249C36.2264 21.3009 36.2146 21.2783 36.1954 21.2613V21.2613Z" fill="#333333"/>
<path d="M35.4107 20.6267C35.4011 20.6178 35.3897 20.6108 35.377 20.606C35.3643 20.6012 35.3506 20.5987 35.3368 20.5987C35.323 20.5987 35.3093 20.6012 35.2966 20.606C35.2839 20.6108 35.2724 20.6178 35.2628 20.6267C35.2444 20.6465 35.2343 20.6715 35.2343 20.6972C35.2343 20.723 35.2444 20.7479 35.2628 20.7678C35.2853 20.7842 35.3134 20.7932 35.3425 20.7932C35.3715 20.7932 35.3996 20.7842 35.4221 20.7678C35.4414 20.7477 35.4511 20.7216 35.449 20.6952C35.4469 20.6688 35.4331 20.6442 35.4107 20.6267V20.6267Z" fill="#333333"/>
<path d="M31.1348 23.0643C31.1054 23.0402 31.0668 23.0268 31.0268 23.0268C30.9867 23.0268 30.9482 23.0402 30.9187 23.0643C30.8916 23.0903 30.8765 23.1245 30.8765 23.16C30.8765 23.1954 30.8916 23.2296 30.9187 23.2557C30.9482 23.2797 30.9867 23.2931 31.0268 23.2931C31.0668 23.2931 31.1054 23.2797 31.1348 23.2557C31.1496 23.2434 31.1614 23.2286 31.1695 23.2121C31.1776 23.1957 31.1817 23.1779 31.1817 23.16C31.1817 23.142 31.1776 23.1243 31.1695 23.1078C31.1614 23.0913 31.1496 23.0765 31.1348 23.0643V23.0643Z" fill="#333333"/>
<path d="M36.3773 20.6066C36.3997 20.623 36.4279 20.632 36.4569 20.632C36.486 20.632 36.5141 20.623 36.5365 20.6066C36.5574 20.5878 36.569 20.5625 36.569 20.5361C36.569 20.5097 36.5574 20.4843 36.5365 20.4655C36.527 20.4567 36.5155 20.4496 36.5028 20.4448C36.4901 20.44 36.4764 20.4375 36.4626 20.4375C36.4488 20.4375 36.4351 20.44 36.4224 20.4448C36.4097 20.4496 36.3983 20.4567 36.3887 20.4655C36.3686 20.4842 36.3564 20.5085 36.3543 20.5343C36.3522 20.56 36.3604 20.5856 36.3773 20.6066Z" fill="#333333"/>
<path d="M31.6806 22.8325C31.6711 22.8237 31.6596 22.8167 31.6469 22.8119C31.6342 22.8071 31.6205 22.8046 31.6067 22.8046C31.5929 22.8046 31.5792 22.8071 31.5665 22.8119C31.5538 22.8167 31.5423 22.8237 31.5328 22.8325C31.516 22.8491 31.5067 22.8705 31.5067 22.8927C31.5067 22.915 31.516 22.9364 31.5328 22.953C31.5413 22.9615 31.5518 22.9684 31.5636 22.9731C31.5753 22.9777 31.5881 22.9802 31.601 22.9802C31.6139 22.9802 31.6267 22.9777 31.6384 22.9731C31.6502 22.9684 31.6607 22.9615 31.6692 22.953C31.6877 22.9377 31.699 22.9169 31.7011 22.8947C31.7032 22.8724 31.6959 22.8503 31.6806 22.8325V22.8325Z" fill="#333333"/>
<path d="M35.9794 20.2447C36.008 20.2232 36.0259 20.1925 36.0291 20.1594C36.0323 20.1262 36.0205 20.0932 35.9964 20.0678C35.9723 20.0423 35.9378 20.0264 35.9004 20.0236C35.8631 20.0207 35.826 20.0312 35.7974 20.0526C35.7831 20.063 35.7716 20.0762 35.7637 20.091C35.7558 20.1059 35.7517 20.1221 35.7517 20.1385C35.7517 20.155 35.7558 20.1712 35.7637 20.1861C35.7716 20.2009 35.7831 20.214 35.7974 20.2245C35.8075 20.2369 35.8203 20.2473 35.8351 20.2551C35.8499 20.2629 35.8663 20.268 35.8834 20.2698C35.9005 20.2717 35.9178 20.2705 35.9343 20.2662C35.9508 20.2618 35.9662 20.2545 35.9794 20.2447V20.2447Z" fill="#333333"/>
<path d="M33.4888 26.9524C33.4952 26.9588 33.5031 26.9639 33.5119 26.9675C33.5207 26.971 33.5303 26.9728 33.54 26.9728C33.5497 26.9728 33.5592 26.971 33.568 26.9675C33.5769 26.9639 33.5847 26.9588 33.5911 26.9524C33.5984 26.9467 33.6042 26.9397 33.6082 26.9319C33.6122 26.9241 33.6143 26.9156 33.6143 26.907C33.6143 26.8985 33.6122 26.89 33.6082 26.8822C33.6042 26.8744 33.5984 26.8674 33.5911 26.8617C33.5847 26.8553 33.5769 26.8501 33.568 26.8466C33.5592 26.8431 33.5497 26.8412 33.54 26.8412C33.5303 26.8412 33.5207 26.8431 33.5119 26.8466C33.5031 26.8501 33.4952 26.8553 33.4888 26.8617C33.4815 26.8674 33.4757 26.8744 33.4717 26.8822C33.4678 26.89 33.4657 26.8985 33.4657 26.907C33.4657 26.9156 33.4678 26.9241 33.4717 26.9319C33.4757 26.9397 33.4815 26.9467 33.4888 26.9524V26.9524Z" fill="#333333"/>
<path d="M33.0453 27.1942C33.0677 27.2106 33.0959 27.2196 33.1249 27.2196C33.154 27.2196 33.1821 27.2106 33.2045 27.1942C33.2253 27.1754 33.237 27.1501 33.237 27.1237C33.237 27.0973 33.2253 27.072 33.2045 27.0531C33.195 27.0443 33.1835 27.0372 33.1708 27.0324C33.1581 27.0276 33.1444 27.0251 33.1306 27.0251C33.1168 27.0251 33.1031 27.0276 33.0904 27.0324C33.0777 27.0372 33.0662 27.0443 33.0567 27.0531C33.0365 27.0718 33.0244 27.0961 33.0223 27.1219C33.0202 27.1476 33.0284 27.1732 33.0453 27.1942Z" fill="#333333"/>
<path d="M32.7838 25.9854C32.7955 25.9964 32.8096 26.0051 32.8252 26.0111C32.8409 26.0171 32.8577 26.0202 32.8748 26.0202C32.8918 26.0202 32.9087 26.0171 32.9243 26.0111C32.9399 26.0051 32.954 25.9964 32.9657 25.9854C32.9785 25.9742 32.9885 25.9608 32.9954 25.9461C33.0023 25.9314 33.0059 25.9157 33.0059 25.8998C33.0059 25.8839 33.0023 25.8681 32.9954 25.8534C32.9885 25.8387 32.9785 25.8254 32.9657 25.8141C32.9531 25.8029 32.938 25.7939 32.9214 25.7878C32.9048 25.7817 32.887 25.7786 32.8691 25.7786C32.8511 25.7786 32.8333 25.7817 32.8167 25.7878C32.8001 25.7939 32.7851 25.8029 32.7724 25.8141C32.7588 25.8253 32.7481 25.8389 32.7412 25.8542C32.7342 25.8694 32.7312 25.8858 32.7323 25.9022C32.7334 25.9186 32.7385 25.9345 32.7475 25.9489C32.7564 25.9633 32.7688 25.9758 32.7838 25.9854V25.9854Z" fill="#333333"/>
<path d="M32.272 26.3782C32.2535 26.3981 32.2434 26.4231 32.2434 26.4488C32.2434 26.4746 32.2535 26.4995 32.272 26.5194C32.2933 26.5378 32.3218 26.5482 32.3516 26.5482C32.3814 26.5482 32.41 26.5378 32.4312 26.5194C32.4412 26.5109 32.4491 26.5007 32.4546 26.4895C32.46 26.4782 32.4628 26.4661 32.4628 26.4538C32.4628 26.4416 32.46 26.4295 32.4546 26.4182C32.4491 26.407 32.4412 26.3968 32.4312 26.3883C32.4225 26.3772 32.4111 26.3679 32.3978 26.3611C32.3845 26.3544 32.3696 26.3504 32.3543 26.3494C32.339 26.3485 32.3237 26.3506 32.3095 26.3555C32.2952 26.3605 32.2824 26.3683 32.272 26.3782V26.3782Z" fill="#333333"/>
<path d="M30.4525 23.165C30.415 23.1353 30.3664 23.1188 30.316 23.1188C30.2657 23.1188 30.2171 23.1353 30.1795 23.165C30.1434 23.1971 30.1232 23.2406 30.1232 23.2859C30.1232 23.3312 30.1434 23.3747 30.1795 23.4068C30.1965 23.4223 30.2168 23.4347 30.2393 23.4431C30.2618 23.4516 30.2859 23.4559 30.3103 23.4559C30.3347 23.4559 30.3589 23.4516 30.3814 23.4431C30.4038 23.4347 30.4242 23.4223 30.4411 23.4068C30.4763 23.3748 30.4969 23.3324 30.499 23.2878C30.5011 23.2432 30.4845 23.1995 30.4525 23.165V23.165Z" fill="#333333"/>
<path d="M32.8747 26.7212C32.8916 26.7354 32.914 26.7433 32.9373 26.7433C32.9605 26.7433 32.9829 26.7354 32.9998 26.7212C33.0125 26.7066 33.0192 26.6886 33.0188 26.6702C33.0184 26.6518 33.011 26.6341 32.9977 26.6199C32.9845 26.6058 32.9662 26.5961 32.9459 26.5925C32.9256 26.5888 32.9045 26.5914 32.8861 26.5999C32.8756 26.6067 32.867 26.6155 32.8607 26.6255C32.8543 26.6356 32.8505 26.6467 32.8494 26.6582C32.8484 26.6697 32.8501 26.6813 32.8544 26.6921C32.8588 26.703 32.8657 26.7129 32.8747 26.7212V26.7212Z" fill="#333333"/>
<path d="M32.5677 27.0632C32.5553 27.0735 32.5454 27.086 32.5387 27.0999C32.5319 27.1137 32.5284 27.1287 32.5284 27.1438C32.5284 27.1588 32.5319 27.1738 32.5387 27.1876C32.5454 27.2015 32.5553 27.214 32.5677 27.2243C32.5794 27.2353 32.5935 27.2441 32.6091 27.25C32.6248 27.256 32.6416 27.2591 32.6587 27.2591C32.6757 27.2591 32.6926 27.256 32.7082 27.25C32.7238 27.2441 32.7379 27.2353 32.7496 27.2243C32.7624 27.2131 32.7725 27.1998 32.7794 27.1851C32.7862 27.1704 32.7898 27.1546 32.7898 27.1387C32.7898 27.1228 32.7862 27.1071 32.7794 27.0924C32.7725 27.0777 32.7624 27.0643 32.7496 27.0531C32.7372 27.0427 32.7225 27.0347 32.7064 27.0296C32.6903 27.0245 32.6732 27.0223 32.6562 27.0233C32.6391 27.0242 32.6225 27.0282 32.6073 27.0351C32.5921 27.042 32.5786 27.0515 32.5677 27.0632V27.0632Z" fill="#333333"/>
<path d="M33.3865 26.3783C33.4078 26.3968 33.4363 26.4071 33.4661 26.4071C33.4959 26.4071 33.5245 26.3968 33.5457 26.3783C33.5557 26.3699 33.5636 26.3597 33.5691 26.3484C33.5745 26.3372 33.5773 26.3251 33.5773 26.3128C33.5773 26.3006 33.5745 26.2884 33.5691 26.2772C33.5636 26.2659 33.5557 26.2558 33.5457 26.2473C33.5373 26.2369 33.5262 26.2284 33.5133 26.2226C33.5005 26.2167 33.4862 26.2137 33.4718 26.2137C33.4573 26.2137 33.4431 26.2167 33.4303 26.2226C33.4174 26.2284 33.4063 26.2369 33.3979 26.2473C33.3805 26.2652 33.37 26.2876 33.3679 26.3112C33.3659 26.3347 33.3724 26.3583 33.3865 26.3783Z" fill="#333333"/>
<path d="M36.5934 21.1505C36.5766 21.1405 36.5568 21.1352 36.5366 21.1352C36.5163 21.1352 36.4965 21.1405 36.4797 21.1505C36.4677 21.1633 36.4611 21.1794 36.4611 21.1961C36.4611 21.2128 36.4677 21.2289 36.4797 21.2417C36.4797 21.2417 36.5593 21.2417 36.582 21.2417C36.5941 21.2293 36.6016 21.214 36.6036 21.1977C36.6056 21.1814 36.6021 21.165 36.5934 21.1505V21.1505Z" fill="#333333"/>
<path d="M25.6078 20.9994C25.5854 20.983 25.5573 20.974 25.5282 20.974C25.4992 20.974 25.471 20.983 25.4486 20.9994C25.4302 21.0192 25.42 21.0442 25.42 21.0699C25.42 21.0957 25.4302 21.1206 25.4486 21.1405C25.4576 21.1498 25.4685 21.1574 25.4808 21.1629C25.4931 21.1684 25.5065 21.1717 25.5202 21.1727C25.5339 21.1736 25.5477 21.1722 25.5608 21.1684C25.5739 21.1646 25.586 21.1585 25.5965 21.1506C25.6069 21.1426 25.6155 21.133 25.6217 21.1221C25.628 21.1112 25.6317 21.0993 25.6328 21.0872C25.6338 21.075 25.6322 21.0627 25.6279 21.0511C25.6236 21.0395 25.6168 21.0288 25.6078 21.0195V20.9994Z" fill="#333333"/>
<path d="M25.8467 20.7279C25.8587 20.7152 25.8653 20.699 25.8653 20.6824C25.8653 20.6657 25.8587 20.6496 25.8467 20.6368C25.8403 20.6304 25.8324 20.6252 25.8236 20.6217C25.8147 20.6181 25.8052 20.6163 25.7955 20.6163C25.7858 20.6163 25.7762 20.6181 25.7674 20.6217C25.7586 20.6252 25.7507 20.6304 25.7443 20.6368C25.7372 20.6415 25.7315 20.6477 25.7276 20.6547C25.7236 20.6617 25.7216 20.6695 25.7216 20.6773C25.7216 20.6852 25.7236 20.6929 25.7276 20.7C25.7315 20.707 25.7372 20.7131 25.7443 20.7178C25.7573 20.73 25.7747 20.7377 25.7934 20.7396C25.8121 20.7414 25.831 20.7373 25.8467 20.7279V20.7279Z" fill="#333333"/>
<path d="M26.006 20.959C25.9891 20.9449 25.9667 20.937 25.9434 20.937C25.9201 20.937 25.8978 20.9449 25.8809 20.959C25.8649 20.9739 25.856 20.9937 25.856 21.0142C25.856 21.0347 25.8649 21.0545 25.8809 21.0694C25.8978 21.0835 25.9201 21.0914 25.9434 21.0914C25.9667 21.0914 25.9891 21.0835 26.006 21.0694C26.0219 21.0545 26.0309 21.0347 26.0309 21.0142C26.0309 20.9937 26.0219 20.9739 26.006 20.959V20.959Z" fill="#333333"/>
<path d="M26.1537 20.4247C26.1706 20.4388 26.193 20.4467 26.2163 20.4467C26.2395 20.4467 26.2619 20.4388 26.2788 20.4247C26.2956 20.4082 26.3049 20.3867 26.3049 20.3645C26.3049 20.3423 26.2956 20.3208 26.2788 20.3042C26.2619 20.2901 26.2395 20.2823 26.2163 20.2823C26.193 20.2823 26.1706 20.2901 26.1537 20.3042C26.1419 20.3105 26.1322 20.3193 26.1254 20.3299C26.1187 20.3404 26.1151 20.3524 26.1151 20.3645C26.1151 20.3766 26.1187 20.3885 26.1254 20.3991C26.1322 20.4096 26.1419 20.4185 26.1537 20.4247V20.4247Z" fill="#333333"/>
<path d="M26.3243 20.8282C26.3127 20.8207 26.2988 20.8168 26.2845 20.8168C26.2703 20.8168 26.2563 20.8207 26.2447 20.8282C26.2368 20.8405 26.2325 20.8545 26.2325 20.8687C26.2325 20.8829 26.2368 20.8969 26.2447 20.9092C26.2573 20.9192 26.2734 20.9247 26.2902 20.9247C26.307 20.9247 26.3232 20.9192 26.3357 20.9092C26.3455 20.8969 26.3497 20.8817 26.3476 20.8667C26.3455 20.8518 26.3372 20.838 26.3243 20.8282V20.8282Z" fill="#333333"/>
<path d="M25.3691 20.4453C25.3522 20.4311 25.3298 20.4233 25.3065 20.4233C25.2832 20.4233 25.2609 20.4311 25.244 20.4453C25.2272 20.4618 25.2179 20.4833 25.2179 20.5055C25.2179 20.5277 25.2272 20.5492 25.244 20.5657C25.2514 20.573 25.2605 20.5789 25.2705 20.583C25.2805 20.5872 25.2914 20.5896 25.3025 20.5901C25.3136 20.5905 25.3247 20.5891 25.3351 20.5858C25.3456 20.5824 25.3552 20.5773 25.3634 20.5708C25.3716 20.5642 25.3782 20.5562 25.383 20.5473C25.3877 20.5385 25.3904 20.5289 25.3909 20.5191C25.3915 20.5093 25.3898 20.4995 25.3861 20.4903C25.3823 20.4811 25.3765 20.4726 25.3691 20.4653V20.4453Z" fill="#333333"/>
<path d="M25.8126 20.1433C25.831 20.1234 25.8412 20.0985 25.8412 20.0727C25.8412 20.047 25.831 20.022 25.8126 20.0022C25.7901 19.9858 25.762 19.9768 25.733 19.9768C25.7039 19.9768 25.6758 19.9858 25.6534 20.0022C25.6325 20.021 25.6208 20.0463 25.6208 20.0727C25.6208 20.0991 25.6325 20.1244 25.6534 20.1433C25.6629 20.1538 25.6751 20.1623 25.6889 20.1681C25.7026 20.174 25.7177 20.177 25.733 20.177C25.7482 20.177 25.7633 20.174 25.7771 20.1681C25.7908 20.1623 25.803 20.1538 25.8126 20.1433V20.1433Z" fill="#333333"/>
<path d="M30.043 22.1577C30.0292 22.1446 30.0124 22.1341 29.9939 22.127C29.9753 22.1198 29.9552 22.1161 29.935 22.1161C29.9147 22.1161 29.8946 22.1198 29.8761 22.127C29.8575 22.1341 29.8408 22.1446 29.8269 22.1577C29.7997 22.1838 29.7847 22.2179 29.7847 22.2534C29.7847 22.2889 29.7997 22.3231 29.8269 22.3491C29.8563 22.3732 29.8949 22.3866 29.935 22.3866C29.975 22.3866 30.0136 22.3732 30.043 22.3491C30.0578 22.3369 30.0696 22.3221 30.0777 22.3056C30.0858 22.2891 30.0899 22.2714 30.0899 22.2534C30.0899 22.2355 30.0858 22.2177 30.0777 22.2012C30.0696 22.1848 30.0578 22.17 30.043 22.1577Z" fill="#333333"/>
<path d="M31.4304 22.1578C31.4443 22.1709 31.461 22.1813 31.4796 22.1885C31.4981 22.1956 31.5182 22.1993 31.5385 22.1993C31.5587 22.1993 31.5788 22.1956 31.5974 22.1885C31.6159 22.1813 31.6327 22.1709 31.6465 22.1578C31.6613 22.1455 31.6731 22.1307 31.6812 22.1142C31.6893 22.0978 31.6934 22.08 31.6934 22.0621C31.6934 22.0441 31.6893 22.0263 31.6812 22.0099C31.6731 21.9934 31.6613 21.9786 31.6465 21.9663C31.6171 21.9423 31.5785 21.9289 31.5385 21.9289C31.4984 21.9289 31.4598 21.9423 31.4304 21.9663C31.4055 21.9933 31.3918 22.0272 31.3918 22.0621C31.3918 22.0969 31.4055 22.1308 31.4304 22.1578V22.1578Z" fill="#333333"/>
<path d="M30.8505 22.652C30.8698 22.6305 30.8804 22.6037 30.8804 22.5762C30.8804 22.5486 30.8698 22.5218 30.8505 22.5003C30.8398 22.4896 30.8267 22.481 30.8119 22.475C30.7972 22.4691 30.7813 22.4661 30.7651 22.4661C30.749 22.4661 30.7331 22.4691 30.7184 22.475C30.7037 22.481 30.6905 22.4896 30.6799 22.5003C30.6678 22.5098 30.6581 22.5215 30.6514 22.5346C30.6448 22.5476 30.6414 22.5618 30.6414 22.5762C30.6414 22.5905 30.6448 22.6047 30.6514 22.6178C30.6581 22.6308 30.6678 22.6425 30.6799 22.652C30.6905 22.6627 30.7037 22.6714 30.7184 22.6773C30.7331 22.6832 30.749 22.6862 30.7651 22.6862C30.7813 22.6862 30.7972 22.6832 30.8119 22.6773C30.8267 22.6714 30.8398 22.6627 30.8505 22.652V22.652Z" fill="#333333"/>
<path d="M30.805 21.634C30.8386 21.6007 30.8572 21.5577 30.8572 21.5131C30.8572 21.4685 30.8386 21.4254 30.805 21.3922C30.7675 21.3624 30.7189 21.346 30.6686 21.346C30.6182 21.346 30.5696 21.3624 30.5321 21.3922C30.4985 21.4254 30.48 21.4685 30.48 21.5131C30.48 21.5577 30.4985 21.6007 30.5321 21.634C30.5696 21.6637 30.6182 21.6801 30.6686 21.6801C30.7189 21.6801 30.7675 21.6637 30.805 21.634V21.634Z" fill="#333333"/>
<path d="M29.156 8.95233C29.1422 8.93921 29.1255 8.92876 29.1069 8.92161C29.0883 8.91446 29.0683 8.91077 29.048 8.91077C29.0277 8.91077 29.0077 8.91446 28.9891 8.92161C28.9705 8.92876 28.9538 8.93921 28.94 8.95233C28.9128 8.97839 28.8977 9.01256 28.8977 9.04803C28.8977 9.08351 28.9128 9.11768 28.94 9.14374C28.9538 9.15685 28.9705 9.16731 28.9891 9.17446C29.0077 9.18161 29.0277 9.1853 29.048 9.1853C29.0683 9.1853 29.0883 9.18161 29.1069 9.17446C29.1255 9.16731 29.1422 9.15685 29.156 9.14374C29.1832 9.11768 29.1983 9.08351 29.1983 9.04803C29.1983 9.01256 29.1832 8.97839 29.156 8.95233V8.95233Z" fill="#333333"/>
<path d="M28.9059 8.55022C28.9274 8.52962 28.9395 8.5025 28.9395 8.47434C28.9395 8.44617 28.9274 8.41906 28.9059 8.39845C28.8952 8.38769 28.8821 8.37906 28.8674 8.37316C28.8526 8.36725 28.8367 8.3642 28.8206 8.3642C28.8044 8.3642 28.7885 8.36725 28.7738 8.37316C28.7591 8.37906 28.746 8.38769 28.7353 8.39845C28.7232 8.40795 28.7135 8.41963 28.7068 8.43271C28.7002 8.44579 28.6968 8.45998 28.6968 8.47434C28.6968 8.48869 28.7002 8.50288 28.7068 8.51597C28.7135 8.52905 28.7232 8.54073 28.7353 8.55022C28.7595 8.56746 28.7896 8.57686 28.8206 8.57686C28.8516 8.57686 28.8817 8.56746 28.9059 8.55022Z" fill="#333333"/>
<path d="M28.5078 9.0631C28.4908 9.04756 28.4705 9.0352 28.448 9.02676C28.4256 9.01833 28.4014 9.01398 28.377 9.01398C28.3526 9.01398 28.3285 9.01833 28.306 9.02676C28.2835 9.0352 28.2632 9.04756 28.2462 9.0631C28.2287 9.07813 28.2148 9.09613 28.2052 9.11603C28.1957 9.13593 28.1908 9.15733 28.1908 9.17895C28.1908 9.20057 28.1957 9.22196 28.2052 9.24187C28.2148 9.26177 28.2287 9.27977 28.2462 9.2948C28.2622 9.31174 28.2823 9.32536 28.3049 9.3347C28.3274 9.34405 28.3521 9.34889 28.377 9.34889C28.402 9.34889 28.4266 9.34405 28.4492 9.3347C28.4718 9.32536 28.4918 9.31174 28.5078 9.2948C28.5253 9.27977 28.5393 9.26177 28.5488 9.24187C28.5583 9.22196 28.5632 9.20057 28.5632 9.17895C28.5632 9.15733 28.5583 9.13593 28.5488 9.11603C28.5393 9.09613 28.5253 9.07813 28.5078 9.0631V9.0631Z" fill="#333333"/>
<path d="M25.8809 16.648C25.9033 16.6644 25.9314 16.6734 25.9605 16.6734C25.9895 16.6734 26.0177 16.6644 26.0401 16.648C26.0609 16.6292 26.0726 16.6039 26.0726 16.5775C26.0726 16.5511 26.0609 16.5258 26.0401 16.5069C26.0305 16.4981 26.019 16.491 26.0063 16.4862C25.9936 16.4814 25.98 16.4789 25.9662 16.4789C25.9523 16.4789 25.9387 16.4814 25.926 16.4862C25.9133 16.491 25.9018 16.4981 25.8922 16.5069C25.8721 16.5256 25.8599 16.5499 25.8579 16.5757C25.8558 16.6014 25.8639 16.627 25.8809 16.648V16.648Z" fill="#333333"/>
<path d="M26.3243 16.4464C26.3307 16.4529 26.3386 16.458 26.3474 16.4616C26.3562 16.4651 26.3658 16.4669 26.3755 16.4669C26.3851 16.4669 26.3947 16.4651 26.4035 16.4616C26.4124 16.458 26.4202 16.4529 26.4266 16.4464C26.4339 16.4408 26.4397 16.4338 26.4437 16.426C26.4477 16.4182 26.4497 16.4097 26.4497 16.4011C26.4497 16.3925 26.4477 16.3841 26.4437 16.3762C26.4397 16.3684 26.4339 16.3615 26.4266 16.3558C26.4202 16.3494 26.4124 16.3442 26.4035 16.3407C26.3947 16.3372 26.3851 16.3353 26.3755 16.3353C26.3658 16.3353 26.3562 16.3372 26.3474 16.3407C26.3386 16.3442 26.3307 16.3494 26.3243 16.3558C26.3123 16.3685 26.3057 16.3845 26.3057 16.4011C26.3057 16.4177 26.3123 16.4337 26.3243 16.4464V16.4464Z" fill="#333333"/>
<path d="M29.7359 8.73073C29.7264 8.72189 29.7149 8.71485 29.7022 8.71005C29.6895 8.70524 29.6758 8.70276 29.662 8.70276C29.6482 8.70276 29.6345 8.70524 29.6218 8.71005C29.6091 8.71485 29.5977 8.72189 29.5881 8.73073C29.5705 8.74899 29.5608 8.77223 29.5608 8.79626C29.5608 8.82029 29.5705 8.84352 29.5881 8.86178C29.5977 8.87063 29.6091 8.87766 29.6218 8.88247C29.6345 8.88728 29.6482 8.88976 29.662 8.88976C29.6758 8.88976 29.6895 8.88728 29.7022 8.88247C29.7149 8.87766 29.7264 8.87063 29.7359 8.86178C29.7536 8.84352 29.7632 8.82029 29.7632 8.79626C29.7632 8.77223 29.7536 8.74899 29.7359 8.73073V8.73073Z" fill="#333333"/>
<path d="M30.6231 13.1729C30.6455 13.1893 30.6736 13.1983 30.7027 13.1983C30.7317 13.1983 30.7599 13.1893 30.7823 13.1729C30.8008 13.1531 30.8109 13.1281 30.8109 13.1024C30.8109 13.0766 30.8008 13.0517 30.7823 13.0318C30.7599 13.0154 30.7317 13.0065 30.7027 13.0065C30.6736 13.0065 30.6455 13.0154 30.6231 13.0318C30.6046 13.0517 30.5945 13.0766 30.5945 13.1024C30.5945 13.1281 30.6046 13.1531 30.6231 13.1729V13.1729Z" fill="#333333"/>
<path d="M30.0999 13.0922C30.0875 13.1026 30.0776 13.1151 30.0709 13.1289C30.0641 13.1428 30.0607 13.1577 30.0607 13.1728C30.0607 13.1879 30.0641 13.2028 30.0709 13.2167C30.0776 13.2306 30.0875 13.2431 30.0999 13.2534C30.1126 13.2647 30.1276 13.2736 30.1442 13.2797C30.1608 13.2858 30.1786 13.289 30.1966 13.289C30.2145 13.289 30.2323 13.2858 30.2489 13.2797C30.2655 13.2736 30.2805 13.2647 30.2932 13.2534C30.3059 13.2422 30.316 13.2288 30.3229 13.2141C30.3298 13.1995 30.3334 13.1837 30.3334 13.1678C30.3334 13.1519 30.3298 13.1361 30.3229 13.1214C30.316 13.1067 30.3059 13.0934 30.2932 13.0822C30.265 13.063 30.2299 13.0534 30.1944 13.0552C30.1589 13.0571 30.1254 13.0702 30.0999 13.0922V13.0922Z" fill="#333333"/>
<path d="M29.8498 12.3974C29.8289 12.4163 29.8173 12.4418 29.8173 12.4682C29.8173 12.4947 29.8289 12.5201 29.8498 12.5391C29.8722 12.5555 29.9003 12.5645 29.9294 12.5645C29.9584 12.5645 29.9866 12.5555 30.009 12.5391C30.0331 12.5216 30.0485 12.4964 30.0517 12.4688C30.0549 12.4413 30.0456 12.4138 30.026 12.3923C30.0064 12.3709 29.978 12.3572 29.9471 12.3544C29.9162 12.3515 29.8853 12.3597 29.8611 12.3772L29.8498 12.3974Z" fill="#333333"/>
<path d="M30.3501 12.0044C30.3769 12.0249 30.4112 12.0363 30.4467 12.0363C30.4822 12.0363 30.5165 12.0249 30.5434 12.0044C30.5558 11.994 30.5657 11.9815 30.5724 11.9677C30.5792 11.9538 30.5826 11.9389 30.5826 11.9238C30.5826 11.9087 30.5792 11.8938 30.5724 11.8799C30.5657 11.8661 30.5558 11.8536 30.5434 11.8432C30.5307 11.8319 30.5156 11.823 30.4991 11.8169C30.4825 11.8108 30.4647 11.8076 30.4467 11.8076C30.4288 11.8076 30.411 11.8108 30.3944 11.8169C30.3778 11.823 30.3627 11.8319 30.3501 11.8432C30.3277 11.8654 30.3153 11.8941 30.3153 11.9238C30.3153 11.9535 30.3277 11.9822 30.3501 12.0044V12.0044Z" fill="#333333"/>
<path d="M28.0984 8.05585C28.0846 8.04273 28.0679 8.03227 28.0493 8.02512C28.0307 8.01797 28.0107 8.01428 27.9904 8.01428C27.9701 8.01428 27.9501 8.01797 27.9315 8.02512C27.9129 8.03227 27.8962 8.04273 27.8824 8.05585C27.8552 8.0819 27.8401 8.11608 27.8401 8.15155C27.8401 8.18702 27.8552 8.2212 27.8824 8.24725C27.8962 8.26037 27.9129 8.27083 27.9315 8.27798C27.9501 8.28513 27.9701 8.28882 27.9904 8.28882C28.0107 8.28882 28.0307 8.28513 28.0493 8.27798C28.0679 8.27083 28.0846 8.26037 28.0984 8.24725C28.1132 8.235 28.125 8.22018 28.1331 8.20372C28.1412 8.18726 28.1453 8.1695 28.1453 8.15155C28.1453 8.1336 28.1412 8.11584 28.1331 8.09938C28.125 8.08292 28.1132 8.0681 28.0984 8.05585V8.05585Z" fill="#333333"/>
<path d="M30.4525 12.7502C30.4599 12.7575 30.4689 12.7634 30.479 12.7676C30.489 12.7718 30.4999 12.7742 30.511 12.7747C30.5221 12.7752 30.5332 12.7737 30.5436 12.7703C30.5541 12.767 30.5637 12.7619 30.5719 12.7552C30.5801 12.7486 30.5868 12.7406 30.5915 12.7317C30.5962 12.7227 30.5989 12.7131 30.5995 12.7032C30.6 12.6934 30.5983 12.6835 30.5946 12.6742C30.5908 12.6649 30.585 12.6564 30.5776 12.6491C30.5702 12.6424 30.5613 12.637 30.5515 12.6334C30.5418 12.6297 30.5313 12.6279 30.5207 12.6279C30.5101 12.6279 30.4996 12.6297 30.4899 12.6334C30.4801 12.637 30.4713 12.6424 30.4638 12.6491C30.4492 12.6623 30.4401 12.6795 30.4381 12.6979C30.436 12.7163 30.4411 12.7347 30.4525 12.7502V12.7502Z" fill="#333333"/>
<path d="M28.8603 7.53207C28.8965 7.49997 28.9167 7.4565 28.9167 7.41119C28.9167 7.36587 28.8965 7.3224 28.8603 7.2903C28.8434 7.27476 28.823 7.26241 28.8006 7.25397C28.7781 7.24553 28.754 7.24118 28.7296 7.24118C28.7051 7.24118 28.681 7.24553 28.6585 7.25397C28.6361 7.26241 28.6157 7.27476 28.5988 7.2903C28.5796 7.30448 28.5643 7.32221 28.5537 7.34222C28.5432 7.36224 28.5377 7.38406 28.5377 7.40615C28.5377 7.42824 28.5432 7.45006 28.5537 7.47008C28.5643 7.49009 28.5796 7.50782 28.5988 7.522C28.615 7.53821 28.6347 7.55137 28.6567 7.56068C28.6788 7.57 28.7027 7.57528 28.7271 7.57622C28.7516 7.57716 28.7759 7.57374 28.7988 7.56615C28.8217 7.55857 28.8426 7.54698 28.8603 7.53207V7.53207Z" fill="#333333"/>
<path d="M25.3578 16.5574C25.345 16.5687 25.3349 16.5821 25.3281 16.5968C25.3212 16.6116 25.3176 16.6274 25.3176 16.6433C25.3176 16.6593 25.3212 16.6751 25.3281 16.6899C25.3349 16.7046 25.345 16.718 25.3578 16.7293C25.3695 16.7403 25.3836 16.7491 25.3992 16.755C25.4148 16.761 25.4317 16.7641 25.4487 16.7641C25.4658 16.7641 25.4826 16.761 25.4983 16.755C25.5139 16.7491 25.528 16.7403 25.5397 16.7293C25.5684 16.7078 25.5863 16.6771 25.5894 16.644C25.5926 16.6108 25.5809 16.5778 25.5568 16.5524C25.5326 16.5269 25.4981 16.511 25.4608 16.5081C25.4235 16.5053 25.3864 16.5158 25.3578 16.5372V16.5574Z" fill="#333333"/>
<path d="M29.4403 8.05657C29.453 8.06985 29.4685 8.08077 29.486 8.08871C29.5034 8.09666 29.5224 8.10147 29.542 8.10288C29.5615 8.10429 29.5812 8.10226 29.5998 8.09692C29.6185 8.09158 29.6358 8.08302 29.6507 8.07173C29.6656 8.06045 29.6779 8.04666 29.6869 8.03116C29.6958 8.01565 29.7012 7.99873 29.7028 7.98137C29.7044 7.964 29.7021 7.94653 29.6961 7.92995C29.6901 7.91337 29.6805 7.898 29.6678 7.88472C29.6539 7.87156 29.6372 7.86107 29.6186 7.85389C29.6 7.84672 29.58 7.84302 29.5597 7.84302C29.5395 7.84302 29.5194 7.84672 29.5008 7.85389C29.4823 7.86107 29.4655 7.87156 29.4517 7.88472C29.4288 7.90827 29.4153 7.93787 29.4132 7.96893C29.4112 8 29.4207 8.0308 29.4403 8.05657V8.05657Z" fill="#333333"/>
<path d="M26.222 15.8724C26.2432 15.8909 26.2718 15.9012 26.3016 15.9012C26.3313 15.9012 26.3599 15.8909 26.3812 15.8724C26.3911 15.864 26.3991 15.8538 26.4045 15.8425C26.4099 15.8313 26.4127 15.8192 26.4127 15.8069C26.4127 15.7947 26.4099 15.7825 26.4045 15.7713C26.3991 15.76 26.3911 15.7499 26.3812 15.7414C26.3716 15.7325 26.3601 15.7255 26.3474 15.7207C26.3347 15.7159 26.3211 15.7134 26.3072 15.7134C26.2934 15.7134 26.2798 15.7159 26.2671 15.7207C26.2544 15.7255 26.2429 15.7325 26.2333 15.7414C26.2159 15.7593 26.2054 15.7817 26.2034 15.8053C26.2013 15.8288 26.2078 15.8524 26.222 15.8724V15.8724Z" fill="#333333"/>
<path d="M31.0665 12.9713C31.0729 12.9778 31.0808 12.9829 31.0896 12.9865C31.0984 12.99 31.108 12.9918 31.1177 12.9918C31.1273 12.9918 31.1369 12.99 31.1457 12.9865C31.1545 12.9829 31.1624 12.9778 31.1688 12.9713C31.1761 12.9657 31.1819 12.9587 31.1859 12.9509C31.1899 12.9431 31.1919 12.9346 31.1919 12.926C31.1919 12.9174 31.1899 12.909 31.1859 12.9012C31.1819 12.8933 31.1761 12.8864 31.1688 12.8807C31.1624 12.8743 31.1545 12.8691 31.1457 12.8656C31.1369 12.8621 31.1273 12.8602 31.1177 12.8602C31.108 12.8602 31.0984 12.8621 31.0896 12.8656C31.0808 12.8691 31.0729 12.8743 31.0665 12.8807C31.0544 12.8934 31.0479 12.9094 31.0479 12.926C31.0479 12.9426 31.0544 12.9586 31.0665 12.9713V12.9713Z" fill="#333333"/>
<path d="M30.9642 12.3973C30.9855 12.4158 31.0141 12.4261 31.0439 12.4261C31.0736 12.4261 31.1022 12.4158 31.1234 12.3973C31.1334 12.3889 31.1414 12.3787 31.1468 12.3674C31.1522 12.3562 31.155 12.344 31.155 12.3318C31.155 12.3196 31.1522 12.3074 31.1468 12.2962C31.1414 12.2849 31.1334 12.2747 31.1234 12.2663C31.1022 12.2478 31.0736 12.2375 31.0439 12.2375C31.0141 12.2375 30.9855 12.2478 30.9642 12.2663C30.9485 12.2853 30.9401 12.3082 30.9401 12.3318C30.9401 12.3554 30.9485 12.3783 30.9642 12.3973V12.3973Z" fill="#333333"/>
<path d="M25.2553 15.8925C25.2457 15.8836 25.2343 15.8766 25.2216 15.8718C25.2089 15.867 25.1952 15.8645 25.1814 15.8645C25.1676 15.8645 25.1539 15.867 25.1412 15.8718C25.1285 15.8766 25.117 15.8836 25.1075 15.8925C25.089 15.9123 25.0789 15.9373 25.0789 15.963C25.0789 15.9888 25.089 16.0137 25.1075 16.0336C25.1299 16.05 25.158 16.0589 25.1871 16.0589C25.2161 16.0589 25.2443 16.05 25.2667 16.0336C25.2861 16.0135 25.2957 15.9874 25.2936 15.961C25.2915 15.9346 25.2777 15.91 25.2553 15.8925V15.8925Z" fill="#333333"/>
<path d="M25.7444 16.2253C25.7613 16.2395 25.7837 16.2474 25.8069 16.2474C25.8302 16.2474 25.8526 16.2395 25.8695 16.2253C25.8833 16.2094 25.8908 16.1898 25.8908 16.1697C25.8908 16.1496 25.8833 16.13 25.8695 16.1141C25.8526 16.0999 25.8302 16.092 25.8069 16.092C25.7837 16.092 25.7613 16.0999 25.7444 16.1141C25.7444 16.1141 25.7444 16.1849 25.7444 16.2253Z" fill="#333333"/>
<path d="M25.8013 15.4996C25.8137 15.4893 25.8235 15.4768 25.8303 15.4629C25.837 15.4491 25.8405 15.4341 25.8405 15.419C25.8405 15.4039 25.837 15.389 25.8303 15.3752C25.8235 15.3613 25.8137 15.3488 25.8013 15.3384C25.7886 15.3272 25.7735 15.3182 25.7569 15.3121C25.7403 15.306 25.7226 15.3029 25.7046 15.3029C25.6866 15.3029 25.6688 15.306 25.6523 15.3121C25.6357 15.3182 25.6206 15.3272 25.6079 15.3384C25.5937 15.3488 25.5821 15.3619 25.5742 15.3767C25.5663 15.3915 25.5623 15.4077 25.5623 15.4241C25.5623 15.4404 25.5663 15.4566 25.5742 15.4714C25.5821 15.4862 25.5937 15.4993 25.6079 15.5097C25.6205 15.5218 25.6359 15.5312 25.6531 15.5374C25.6703 15.5435 25.6888 15.5462 25.7073 15.5453C25.7258 15.5443 25.7438 15.5397 25.7601 15.5318C25.7763 15.5239 25.7904 15.5129 25.8013 15.4996V15.4996Z" fill="#333333"/>
<path d="M5.47909 9.51638C6.06836 8.63115 6.76217 7.8039 7.54883 7.04855C8.32551 6.2972 9.19097 5.62181 10.1303 5.034C11.072 4.47718 12.0739 4.00479 13.1212 3.62381C14.1913 3.22691 15.3038 2.92657 16.4419 2.72733C18.7942 2.29963 21.22 2.29963 23.5723 2.72733C26.4054 3.28444 29.0749 4.36219 31.408 5.89084C33.7411 7.4195 35.6859 9.365 37.1166 11.6014C37.3895 12.0144 37.651 12.4476 37.8899 12.8807C38.4204 13.8735 38.8541 14.9047 39.1863 15.963C39.8522 18.1131 40.0376 20.3577 39.7322 22.5707C39.444 24.7082 38.6496 26.7676 37.4009 28.6144C36.8101 29.4894 36.1163 30.3065 35.3311 31.052C34.5518 31.8009 33.6866 32.4761 32.7496 33.0665C31.8162 33.6519 30.8133 34.1451 29.7587 34.5372C28.6909 34.9418 27.5778 35.2457 26.4381 35.4437C24.0192 35.8564 21.5306 35.8255 19.1257 35.3531C18.2563 35.1889 17.4013 34.9701 16.567 34.6983C16.3623 35.3531 16.1462 35.9977 15.9415 36.6524C17.1404 37.3431 18.5179 37.7521 19.9445 37.841C20.7101 37.8021 21.4708 37.7078 22.219 37.559C25.4032 37.2266 26.1537 37.8511 28.5647 37.3475C29.4132 37.1823 30.2321 36.9146 30.9983 36.5517C32.1355 35.9876 31.9536 35.7862 33.159 35.1818C34.2291 34.8229 35.2361 34.3311 36.1499 33.7213C36.3715 33.5446 36.5768 33.3526 36.764 33.1471C37.8198 31.9658 38.7451 30.6976 39.5275 29.3598C39.8025 28.8199 40.1139 28.2952 40.46 27.7884C41.1423 26.8718 41.3811 26.9121 41.5972 26.3278C41.8133 25.7436 41.5972 25.4112 41.9156 24.0615C41.9839 23.7794 42.1089 23.3665 42.3705 22.5405C42.6804 21.8348 42.8868 21.0968 42.9846 20.3446C42.9454 19.7557 42.8387 19.1718 42.6662 18.602C42.3591 17.0105 42.5752 17.0911 42.3705 16.4162C41.9156 14.9053 40.9604 14.8247 40.1643 12.921C39.8914 12.2663 39.9824 12.226 39.6412 11.4504C39.3229 10.6375 38.8582 9.87551 38.2651 9.19405C37.6852 8.55947 37.5146 8.61991 36.7413 7.81408C36.2182 7.25001 36.1727 7.07877 35.695 6.5147C34.943 5.57977 34.0161 4.76558 32.9543 4.1073C32.0218 3.5533 32.0332 3.79505 30.8164 3.15039C28.9058 2.14311 29.1446 1.66969 28.0643 1.38765C26.9839 1.10561 26.3812 1.46823 24.8801 0.924305C24.5275 0.793359 24.5958 0.783286 24.2773 0.672485C23.1954 0.377356 22.051 0.308399 20.9339 0.47103C18.921 0.47103 18.921 -0.213919 17.5677 0.0681186C16.8399 0.209137 16.965 0.390448 15.009 1.0754C14.4481 1.28997 13.8704 1.46839 13.2804 1.60925C12.5941 1.75285 11.8929 1.83385 11.1879 1.851C10.2554 1.92151 8.9135 2.405 7.23041 4.35912C6.27515 5.3664 5.4336 6.18229 4.86499 6.69601C3.31837 8.05583 2.84074 8.20692 2.39723 9.06311C1.95371 9.91929 2.2039 10.1711 1.65803 11.7626C1.55568 12.0749 1.46471 12.2965 1.3851 12.4879C1.08942 13.1929 0.964325 13.3642 0.839231 13.6865C0.407087 14.7744 0.930211 15.1571 0.486695 16.3155C0.247879 16.9199 0.122783 16.7889 0.0318053 17.2019C-0.138778 18.0178 0.418458 18.2898 0.714136 19.7705C0.773138 20.2623 0.868106 20.7501 0.998441 21.231C1.0553 21.4627 1.12354 21.6138 1.16903 21.7649L3.44347 21.4224C2.93931 19.4947 2.82381 17.5032 3.1023 15.5399C3.40749 13.4064 4.21739 11.3538 5.47909 9.51638V9.51638Z" fill="#333333"/>
<path d="M16.84 33.9227C17.6597 34.1892 18.4995 34.4046 19.3532 34.5674C21.8395 35.0789 24.4265 35.0675 26.9069 34.534C29.3873 34.0005 31.6922 32.9597 33.6367 31.4952L21.6504 19.4079L16.84 33.9227ZM23.6633 32.7744C23.4235 32.9907 23.1154 33.1375 22.7796 33.1957C22.4437 33.2538 22.0959 33.2206 21.7818 33.1003C21.4677 32.9799 21.2021 32.7782 21.02 32.5216C20.8378 32.265 20.7477 31.9656 20.7613 31.6627C20.775 31.3599 20.8919 31.0678 21.0966 30.8249C21.3013 30.582 21.5843 30.3997 21.9082 30.302C22.2321 30.2043 22.5818 30.1957 22.9113 30.2775C23.2409 30.3592 23.5347 30.5274 23.7543 30.7599C24.0397 31.0395 24.1901 31.407 24.1731 31.7836C24.156 32.1602 23.973 32.516 23.6633 32.7744ZM29.1561 30.4678C29.2942 30.5584 29.4073 30.6756 29.487 30.8105C29.5666 30.9454 29.6107 31.0946 29.6159 31.2467C29.6211 31.3989 29.5873 31.5502 29.517 31.6891C29.4468 31.828 29.3418 31.9511 29.2101 32.0489C29.0785 32.1468 28.9234 32.2169 28.7567 32.2541C28.59 32.2912 28.416 32.2944 28.2477 32.2634C28.0794 32.2324 27.9212 32.168 27.7851 32.0751C27.6489 31.9822 27.5383 31.8631 27.4616 31.7269C27.3235 31.6363 27.2103 31.5191 27.1307 31.3842C27.051 31.2493 27.0069 31.1001 27.0017 30.9479C26.9965 30.7957 27.0303 30.6445 27.1006 30.5056C27.1709 30.3666 27.2758 30.2436 27.4075 30.1457C27.5392 30.0479 27.6942 29.9777 27.8609 29.9406C28.0276 29.9034 28.2017 29.9002 28.37 29.9312C28.5383 29.9622 28.6964 30.0266 28.8326 30.1196C28.9687 30.2125 29.0793 30.3315 29.1561 30.4678V30.4678ZM24.6072 27.1941C24.4874 27.2788 24.3496 27.3411 24.2019 27.3774C24.0543 27.4137 23.8999 27.4232 23.748 27.4053C23.5962 27.3875 23.4499 27.3426 23.3181 27.2734C23.1863 27.2042 23.0716 27.1122 22.981 27.0027C22.877 26.905 22.7961 26.7898 22.7431 26.6639C22.6901 26.538 22.6661 26.404 22.6725 26.2698C22.6788 26.1356 22.7155 26.0039 22.7801 25.8824C22.8448 25.7609 22.9363 25.6521 23.0492 25.5623C23.1679 25.4787 23.3044 25.417 23.4504 25.3809C23.5965 25.3447 23.7493 25.3347 23.8998 25.3516C24.0502 25.3685 24.1954 25.4119 24.3266 25.4792C24.4579 25.5466 24.5726 25.6365 24.664 25.7436C24.7705 25.841 24.8537 25.9563 24.9087 26.0827C24.9637 26.2092 24.9893 26.3442 24.9839 26.4796C24.9786 26.615 24.9425 26.7481 24.8778 26.8709C24.813 26.9937 24.721 27.1036 24.6072 27.1941V27.1941Z" fill="#333333"/>
<path d="M33.9892 31.2232C36.8034 28.9087 38.5903 25.779 39.027 22.3995C39.2812 20.5403 39.1735 18.6562 38.7086 16.8292L22.1166 19.2165L33.9892 31.2232ZM33.7617 25.935C33.903 26.0241 34.0195 26.1405 34.1022 26.2755C34.1849 26.4106 34.2316 26.5605 34.2388 26.714C34.246 26.8675 34.2135 27.0204 34.1437 27.161C34.074 27.3016 33.9688 27.4263 33.8363 27.5254C33.7039 27.6245 33.5475 27.6954 33.3793 27.7328C33.2111 27.7702 33.0355 27.773 32.8659 27.7411C32.6963 27.7091 32.5372 27.6432 32.4007 27.5484C32.2643 27.4536 32.1541 27.3324 32.0786 27.1941C31.9373 27.1051 31.8209 26.9886 31.7382 26.8536C31.6555 26.7186 31.6087 26.5686 31.6015 26.4151C31.5943 26.2617 31.6269 26.1088 31.6966 25.9681C31.7664 25.8275 31.8715 25.7029 32.004 25.6038C32.1365 25.5047 32.2928 25.4337 32.461 25.3963C32.6292 25.3589 32.8048 25.3561 32.9744 25.3881C33.1441 25.42 33.3032 25.4859 33.4396 25.5807C33.5761 25.6755 33.6863 25.7967 33.7617 25.935V25.935ZM31.9194 21.5332C32.2062 21.8129 32.3564 22.1817 32.3373 22.5592C32.3181 22.9366 32.1311 23.292 31.8171 23.5478C31.5768 23.7596 31.2699 23.9022 30.9366 23.9569C30.6033 24.0117 30.2591 23.976 29.9491 23.8545C29.639 23.7331 29.3776 23.5316 29.1991 23.2763C29.0205 23.0211 28.9332 22.7241 28.9484 22.4241C28.9636 22.1242 29.0808 21.8353 29.2845 21.5953C29.4882 21.3553 29.769 21.1754 30.0901 21.0791C30.4112 20.9828 30.7576 20.9746 31.084 21.0557C31.4104 21.1367 31.7016 21.3031 31.9194 21.5332V21.5332ZM35.1377 19.982C35.3097 19.8308 35.5292 19.7291 35.7674 19.69C36.0057 19.6509 36.2517 19.6763 36.4734 19.7629C36.6951 19.8495 36.8822 19.9933 37.0102 20.1755C37.1383 20.3577 37.2014 20.5699 37.1913 20.7843C37.1812 20.9987 37.0984 21.2055 36.9537 21.3776C36.8089 21.5497 36.609 21.6792 36.3799 21.7492C36.1509 21.8192 35.9033 21.8264 35.6696 21.7699C35.4358 21.7134 35.2267 21.5958 35.0695 21.4325C34.962 21.3343 34.8781 21.2178 34.823 21.09C34.768 20.9623 34.7429 20.8259 34.7492 20.6892C34.7556 20.5526 34.7934 20.4185 34.8602 20.2952C34.927 20.1718 35.0214 20.0619 35.1377 19.9719V19.982ZM26.4608 20.0727C26.5576 20.1487 26.6348 20.2423 26.687 20.3472C26.7392 20.4521 26.7651 20.5657 26.7632 20.6803C26.7612 20.7949 26.7313 20.9078 26.6755 21.0112C26.6198 21.1146 26.5394 21.2061 26.44 21.2795C26.3406 21.3529 26.2245 21.4064 26.0996 21.4363C25.9747 21.4662 25.844 21.4719 25.7163 21.453C25.5887 21.434 25.4672 21.3909 25.3602 21.3265C25.2531 21.2621 25.163 21.178 25.0961 21.0799C24.9993 21.0039 24.9221 20.9103 24.8699 20.8054C24.8177 20.7005 24.7917 20.5869 24.7937 20.4723C24.7957 20.3577 24.8255 20.2448 24.8813 20.1414C24.9371 20.038 25.0174 19.9465 25.1168 19.8731C25.2162 19.7997 25.3324 19.7462 25.4573 19.7163C25.5822 19.6864 25.7129 19.6807 25.8405 19.6996C25.9681 19.7186 26.0896 19.7617 26.1967 19.8261C26.3037 19.8905 26.3938 19.9746 26.4608 20.0727Z" fill="#333333"/>
<path d="M38.5835 16.386C37.7964 13.6826 36.3039 11.1806 34.226 9.08118C32.1481 6.9818 29.5429 5.34372 26.62 4.29871L21.8323 18.8035L38.5835 16.386ZM27.6207 9.17393C27.338 8.89323 27.1895 8.52623 27.2064 8.15036C27.2234 7.7745 27.4046 7.41918 27.7117 7.15938C28.0529 6.92797 28.4837 6.82562 28.9099 6.87469C29.3361 6.92377 29.723 7.12027 29.9861 7.42127C30.2689 7.70197 30.4174 8.06897 30.4004 8.44484C30.3835 8.8207 30.2023 9.17602 29.8952 9.43582C29.5539 9.66723 29.1231 9.76958 28.6969 9.7205C28.2708 9.67143 27.8838 9.47492 27.6207 9.17393V9.17393ZM29.6564 13.203C29.515 13.114 29.3986 12.9975 29.3159 12.8625C29.2332 12.7275 29.1865 12.5775 29.1793 12.4241C29.1721 12.2706 29.2046 12.1177 29.2744 11.9771C29.3441 11.8364 29.4492 11.7118 29.5817 11.6127C29.7142 11.5136 29.8705 11.4426 30.0387 11.4052C30.2069 11.3679 30.3826 11.365 30.5522 11.397C30.7218 11.429 30.8809 11.4949 31.0174 11.5897C31.1538 11.6845 31.264 11.8056 31.3394 11.9439C31.4452 12.0419 31.5276 12.1578 31.5816 12.2846C31.6356 12.4114 31.6602 12.5466 31.6538 12.682C31.6474 12.8175 31.6102 12.9504 31.5445 13.0728C31.4788 13.1952 31.3858 13.3046 31.2712 13.3944C31.1518 13.4775 31.0147 13.5385 30.8682 13.5739C30.7217 13.6093 30.5687 13.6183 30.4182 13.6005C30.2677 13.5826 30.1227 13.5383 29.9919 13.47C29.861 13.4018 29.747 13.311 29.6564 13.203V13.203ZM24.9824 15.2176C25.1011 15.134 25.2376 15.0723 25.3836 15.0361C25.5297 14.9999 25.6825 14.99 25.8329 15.0069C25.9834 15.0238 26.1286 15.0672 26.2598 15.1345C26.3911 15.2018 26.5058 15.2917 26.5972 15.3989C26.7037 15.4962 26.7869 15.6115 26.8419 15.738C26.8968 15.8645 26.9224 15.9994 26.9171 16.1349C26.9118 16.2703 26.8757 16.4034 26.811 16.5261C26.7462 16.6489 26.6542 16.7589 26.5404 16.8494C26.292 16.9907 25.9941 17.0471 25.7023 17.0083C25.4104 16.9695 25.1443 16.8381 24.9537 16.6385C24.7631 16.4388 24.661 16.1846 24.6662 15.9233C24.6715 15.6619 24.7839 15.4111 24.9824 15.2176V15.2176Z" fill="#333333"/>
<path d="M26.1538 4.1476C25.3601 3.88918 24.5469 3.6805 23.7202 3.52308C21.2572 3.02131 18.6963 3.03308 16.2393 3.55748C13.7823 4.08187 11.4964 5.10455 9.56177 6.54492L21.4116 18.5315L26.1538 4.1476ZM20.5928 7.54212C20.4842 7.44265 20.3999 7.32442 20.3451 7.19481C20.2904 7.06519 20.2664 6.92698 20.2746 6.78879C20.2829 6.6506 20.3232 6.5154 20.393 6.39161C20.4628 6.26783 20.5607 6.15811 20.6806 6.06932C20.8004 5.98052 20.9396 5.91455 21.0895 5.87551C21.2394 5.83648 21.3967 5.82522 21.5518 5.84244C21.7068 5.85965 21.8561 5.90498 21.9905 5.97558C22.1249 6.04618 22.2414 6.14056 22.3327 6.25281C22.4491 6.3503 22.541 6.46848 22.6022 6.5996C22.6634 6.73072 22.6927 6.87182 22.6881 7.01365C22.6835 7.15549 22.6451 7.29486 22.5754 7.42264C22.5057 7.55041 22.4064 7.66371 22.2839 7.75511C22.1613 7.84651 22.0184 7.91395 21.8643 7.953C21.7103 7.99206 21.5488 8.00185 21.3902 7.98174C21.2316 7.96164 21.0796 7.91208 20.9441 7.83632C20.8087 7.76056 20.6928 7.6603 20.6042 7.54212H20.5928ZM15.5094 10.7755C15.2226 10.4958 15.0724 10.127 15.0916 9.74951C15.1108 9.37206 15.2978 9.01667 15.6118 8.76093C15.7796 8.64375 15.9721 8.55747 16.1781 8.50714C16.3841 8.45681 16.5993 8.44345 16.8112 8.46785C17.0231 8.49224 17.2274 8.55391 17.412 8.64921C17.5966 8.74452 17.7578 8.87154 17.8862 9.02282C18.1744 9.30121 18.3266 9.66928 18.3096 10.0467C18.2926 10.4241 18.1076 10.7803 17.7952 11.0374C17.6259 11.1535 17.4324 11.2389 17.2257 11.2886C17.019 11.3383 16.8033 11.3514 16.5909 11.327C16.3785 11.3027 16.1737 11.2415 15.9881 11.1468C15.8025 11.0522 15.6398 10.926 15.5094 10.7755V10.7755ZM19.0462 13.0318C19.2485 12.9179 19.4905 12.8729 19.7275 12.9051C19.9644 12.9374 20.18 13.0448 20.3343 13.2073C20.4886 13.3698 20.571 13.5764 20.5662 13.7886C20.5615 14.0009 20.4699 14.2044 20.3085 14.3614C20.1062 14.4753 19.8641 14.5203 19.6272 14.488C19.3903 14.4558 19.1747 14.3484 19.0204 14.1859C18.8661 14.0234 18.7837 13.8168 18.7884 13.6046C18.7932 13.3923 18.8848 13.1887 19.0462 13.0318V13.0318Z" fill="#333333"/>
<path d="M9.20917 6.77658C6.3245 9.09925 4.48986 12.2705 4.04618 15.7011C3.78441 17.5739 3.89604 19.473 4.37598 21.3116L21.1955 18.8941L9.20917 6.77658ZM8.57231 10.9568C8.42151 10.8058 8.34458 10.608 8.35844 10.4068C8.37231 10.2057 8.47583 10.0176 8.64624 9.88403C8.81665 9.75046 9.03998 9.68232 9.26711 9.6946C9.49425 9.70687 9.70657 9.79857 9.85738 9.94951C10.0082 10.1004 10.0851 10.2983 10.0712 10.4994C10.0574 10.7006 9.95387 10.8887 9.78346 11.0223C9.61305 11.1558 9.38971 11.224 9.16258 11.2117C8.93545 11.1994 8.72312 11.1077 8.57231 10.9568V10.9568ZM10.0848 13.8275C10.3947 13.5547 10.7902 13.371 11.2198 13.3003C11.6494 13.2297 12.093 13.2755 12.4928 13.4316C12.8925 13.5878 13.2298 13.8471 13.4606 14.1757C13.6914 14.5043 13.8049 14.8869 13.7864 15.2735C13.7678 15.6602 13.6181 16.0329 13.3567 16.343C13.0953 16.6531 12.7344 16.8861 12.3211 17.0117C11.9078 17.1373 11.4614 17.1496 11.0401 17.0469C10.6189 16.9443 10.2423 16.7315 9.95972 16.4364C9.59048 16.0737 9.39672 15.5972 9.42011 15.1093C9.44351 14.6214 9.68219 14.1611 10.0848 13.8275V13.8275ZM8.01509 18.5013C7.78318 18.7104 7.48521 18.8523 7.16043 18.9084C6.83565 18.9645 6.4993 18.9321 6.1957 18.8156C5.8921 18.699 5.63549 18.5037 5.45967 18.2554C5.28386 18.0071 5.19709 17.7175 5.21079 17.4246C5.2245 17.1318 5.33803 16.8495 5.53644 16.615C5.73486 16.3804 6.00884 16.2046 6.32229 16.1107C6.63574 16.0168 6.97395 16.0092 7.29237 16.0889C7.61079 16.1686 7.89449 16.3319 8.10607 16.5573C8.38111 16.8274 8.52562 17.1823 8.50861 17.5457C8.4916 17.9092 8.31442 18.2522 8.01509 18.5013V18.5013ZM16.6807 18.3603C16.5895 18.2825 16.5178 18.1886 16.4705 18.0846C16.4231 17.9806 16.4011 17.8689 16.4059 17.7568C16.4106 17.6448 16.4421 17.5349 16.4982 17.4344C16.5543 17.3338 16.6337 17.2449 16.7313 17.1735C16.8289 17.102 16.9424 17.0497 17.0645 17.0198C17.1865 16.99 17.3143 16.9833 17.4394 17.0003C17.5646 17.0172 17.6843 17.0574 17.7906 17.1182C17.897 17.179 17.9877 17.259 18.0567 17.353C18.148 17.4308 18.2196 17.5247 18.267 17.6287C18.3143 17.7327 18.3364 17.8444 18.3316 17.9564C18.3268 18.0685 18.2953 18.1784 18.2393 18.2789C18.1832 18.3795 18.1037 18.4684 18.0061 18.5398C17.9086 18.6112 17.795 18.6636 17.673 18.6934C17.551 18.7233 17.4232 18.73 17.298 18.713C17.1729 18.6961 17.0532 18.6559 16.9468 18.5951C16.8404 18.5343 16.7497 18.4543 16.6807 18.3603Z" fill="#333333"/>
</svg>
