<svg xmlns="http://www.w3.org/2000/svg" xmlns:xlink="http://www.w3.org/1999/xlink" width="1024" zoomAndPan="magnify" viewBox="0 0 768 767.999994" height="1024" preserveAspectRatio="xMidYMid meet" version="1.0"><defs><clipPath id="4277a6cc8b"><path d="M 0 128.464844 L 257 128.464844 L 257 639.214844 L 0 639.214844 Z M 0 128.464844 " clip-rule="nonzero"/></clipPath><clipPath id="86b97fa09d"><path d="M 256 128.464844 L 512 128.464844 L 512 639.214844 L 256 639.214844 Z M 256 128.464844 " clip-rule="nonzero"/></clipPath><clipPath id="16c53eadb3"><path d="M 511 128.464844 L 768 128.464844 L 768 639.214844 L 511 639.214844 Z M 511 128.464844 " clip-rule="nonzero"/></clipPath></defs><g clip-path="url(#4277a6cc8b)"><path fill="#ffffff" d="M 0.699219 128.464844 L 256.234375 128.464844 L 256.234375 639.53125 L 0.699219 639.53125 Z M 0.699219 128.464844 " fill-opacity="1" fill-rule="nonzero"/></g><g clip-path="url(#86b97fa09d)"><path fill="#000000" d="M 256.234375 128.464844 L 511.765625 128.464844 L 511.765625 639.53125 L 256.234375 639.53125 Z M 256.234375 128.464844 " fill-opacity="1" fill-rule="nonzero"/></g><g clip-path="url(#16c53eadb3)"><path fill="#ffffff" d="M 511.765625 128.464844 L 767.300781 128.464844 L 767.300781 639.53125 L 511.765625 639.53125 Z M 511.765625 128.464844 " fill-opacity="1" fill-rule="nonzero"/></g></svg>