<svg xmlns="http://www.w3.org/2000/svg" xmlns:xlink="http://www.w3.org/1999/xlink" width="1024" zoomAndPan="magnify" viewBox="0 0 768 767.999994" height="1024" preserveAspectRatio="xMidYMid meet" version="1.0"><defs><clipPath id="a34a4c9a37"><path d="M 384 0 C 171.921875 0 0 171.921875 0 384 C 0 596.078125 171.921875 768 384 768 C 596.078125 768 768 596.078125 768 384 C 768 171.921875 596.078125 0 384 0 Z M 384 0 " clip-rule="nonzero"/></clipPath><clipPath id="6a94c1f4ff"><path d="M 282.054688 170.886719 L 351.242188 170.886719 L 351.242188 432.703125 L 282.054688 432.703125 Z M 282.054688 170.886719 " clip-rule="nonzero"/></clipPath><clipPath id="31ac0abc96"><path d="M 282 377 L 531 377 L 531 594 L 282 594 Z M 282 377 " clip-rule="nonzero"/></clipPath><clipPath id="5f890c6a44"><path d="M 324.824219 377.25 L 530.632812 539.085938 L 487.871094 593.46875 L 282.0625 431.636719 Z M 324.824219 377.25 " clip-rule="nonzero"/></clipPath></defs><g clip-path="url(#a34a4c9a37)"><rect x="-76.8" width="921.6" fill="#ffffff" y="-76.799999" height="921.599993" fill-opacity="1"/></g><g clip-path="url(#6a94c1f4ff)"><path fill="#efd6bd" d="M 351.242188 170.886719 L 351.242188 432.761719 L 282.054688 432.761719 L 282.054688 170.886719 Z M 351.242188 170.886719 " fill-opacity="1" fill-rule="nonzero"/></g><g clip-path="url(#31ac0abc96)"><g clip-path="url(#5f890c6a44)"><path fill="#efd6bd" d="M 324.824219 377.25 L 530.679688 539.121094 L 487.914062 593.503906 L 282.0625 431.636719 Z M 324.824219 377.25 " fill-opacity="1" fill-rule="nonzero"/></g></g></svg>