<svg xmlns="http://www.w3.org/2000/svg" xmlns:xlink="http://www.w3.org/1999/xlink" width="1024" zoomAndPan="magnify" viewBox="0 0 768 767.999994" height="1024" preserveAspectRatio="xMidYMid meet" version="1.0"><defs><clipPath id="4231815f9f"><path d="M 12.960938 0 L 710 0 L 710 723 L 12.960938 723 Z M 12.960938 0 " clip-rule="nonzero"/></clipPath><clipPath id="cf4a15d077"><path d="M 0 40.496094 L 767 40.496094 L 767 727 L 0 727 Z M 0 40.496094 " clip-rule="nonzero"/></clipPath><clipPath id="37b6819bd2"><path d="M 0 40.496094 L 767 40.496094 L 767 727 L 0 727 Z M 0 40.496094 " clip-rule="nonzero"/></clipPath></defs><g clip-path="url(#4231815f9f)"><path fill="#ffffff" d="M 192.171875 136.15625 C 158.523438 82.1875 145.203125 52.289062 89.792969 31.730469 C 88 30.960938 86.398438 29.519531 85.726562 27.773438 C 85.007812 26.171875 85.390625 25.148438 85.597656 24.8125 C 87.007812 21.527344 108.738281 0.917969 112.308594 0.277344 C 113.109375 0.164062 114.136719 0.308594 115.351562 0.597656 C 170.121094 16.515625 201.90625 67.695312 240.660156 115.046875 L 263.238281 96.585938 C 294.769531 81.949219 326.207031 74.101562 356.695312 66.542969 C 396.539062 56.726562 434.632812 47.328125 469.898438 24.378906 C 462.371094 69.363281 427.507812 102.863281 323.5 130.886719 C 316.179688 132.839844 310.914062 139.917969 311.375 147.667969 C 311.746094 155.46875 317.527344 161.90625 325.210938 163.152344 C 365.648438 169.703125 387.457031 190.058594 410.519531 218.882812 C 360.777344 223.011719 319.878906 224.023438 281.785156 205.796875 C 275.9375 202.996094 269.066406 203.796875 264.070312 207.960938 C 259.171875 212.09375 257.074219 218.691406 258.691406 224.96875 C 265.707031 250.507812 243.6875 278.003906 196.941406 330.707031 C 191.929688 286.78125 198.253906 258.980469 218.175781 227.371094 C 222.546875 220.46875 221.105469 211.339844 214.878906 206.070312 C 208.601562 200.691406 199.390625 200.851562 193.164062 206.296875 C 119.066406 272.738281 67.535156 270.191406 12.960938 232.972656 C 45.226562 225.113281 67.117188 208.890625 91.316406 190.792969 C 110.773438 176.398438 132.3125 160.207031 164.050781 144.976562 M 684.304688 261.800781 C 754.957031 419.117188 670.339844 610.835938 495.679688 689.285156 C 321 767.738281 121.5 703.617188 50.847656 546.316406 C 14.609375 465.652344 17.972656 373 59.496094 289.359375 C 91.171875 295.75 126.082031 291.039062 165.84375 267.644531 C 159.070312 299.015625 162.222656 331.234375 169.925781 370.949219 C 171.144531 377.144531 175.773438 382.078125 181.808594 383.695312 C 185.554688 384.785156 189.464844 384.351562 192.875 382.832031 C 194.988281 381.886719 196.910156 380.542969 198.511719 378.730469 C 204.757812 371.703125 210.648438 364.960938 216.269531 358.699219 C 258.308594 311.363281 287.386719 278.660156 292.367188 245.191406 C 336.644531 258.691406 383.101562 254.480469 435.628906 249.820312 L 443.378906 249.117188 C 449.367188 248.476562 454.585938 244.808594 457.039062 239.25 C 459.425781 233.839844 458.703125 227.402344 455.019531 222.675781 L 452.265625 218.960938 C 430.519531 190.394531 410.871094 164.371094 380.796875 147.621094 C 421.488281 132.726562 451.046875 115.335938 471.097656 93.925781 C 568.492188 115.609375 645.921875 176.316406 684.304688 261.800781 Z M 553.792969 245.546875 C 560.277344 251.679688 566.410156 258.324219 572.03125 265.210938 C 576.757812 271.167969 584.90625 272.929688 591.523438 269.949219 C 592.820312 269.359375 594.035156 268.574219 595.203125 267.691406 C 602.28125 261.976562 603.355469 251.484375 597.65625 244.40625 C 591.042969 236.402344 583.980469 228.730469 576.453125 221.621094 C 569.871094 215.296875 559.382812 215.550781 553.199219 222.179688 C 546.859375 228.777344 547.117188 239.265625 553.792969 245.546875 Z M 629.648438 296.597656 C 625.902344 288.269531 616.167969 284.570312 607.839844 288.300781 C 599.511719 292.050781 595.8125 301.785156 599.542969 310.113281 C 637.65625 394.984375 614.484375 495.34375 540.582031 565.917969 C 533.921875 572.289062 533.632812 582.667969 539.957031 589.234375 C 544.953125 594.46875 552.496094 595.652344 558.710938 592.867188 C 560.3125 592.148438 561.929688 591.1875 563.371094 589.808594 C 647.488281 509.46875 673.542969 394.3125 629.648438 296.597656 Z M 629.648438 296.597656 " fill-opacity="1" fill-rule="nonzero"/></g><g clip-path="url(#cf4a15d077)"><path fill="#000000" d="M 378.851562 168.851562 C 371.730469 170.78125 365 172.222656 358.546875 174.464844 C 352.339844 176.621094 346.390625 179.527344 340.40625 182.285156 C 338.566406 183.132812 336.820312 183.738281 334.765625 183.695312 C 312.777344 183.210938 291.054688 186.15625 269.300781 188.800781 C 244.023438 191.878906 218.722656 194.753906 193.429688 197.695312 C 192.144531 197.847656 190.839844 197.832031 189.160156 197.914062 C 189.679688 197.347656 189.871094 196.976562 190.171875 196.835938 C 204.464844 190.042969 218.714844 183.148438 233.089844 176.53125 C 245.5625 170.792969 258.296875 165.722656 271.765625 162.703125 C 281.601562 160.5 291.59375 159.683594 301.617188 159.363281 C 320.917969 158.753906 340.167969 159.425781 359.171875 163.171875 C 364.972656 164.320312 370.632812 166.183594 376.351562 167.753906 C 377.082031 167.953125 377.753906 168.363281 378.851562 168.851562 Z M 406.761719 178.816406 C 407.738281 179.605469 408.648438 180.5 409.703125 181.160156 C 419.890625 187.511719 429.742188 194.507812 440.371094 200.011719 C 470.277344 215.492188 501.011719 229.125 533.472656 238.5 C 535.210938 239 536.9375 239.558594 538.667969 240.085938 C 538.46875 239.039062 538.050781 238.429688 537.511719 237.960938 C 528.234375 229.917969 519.09375 221.710938 509.613281 213.914062 C 496.679688 203.277344 482.246094 195.105469 466.664062 188.941406 C 450.964844 182.730469 434.8125 178.59375 417.859375 178.078125 C 414.230469 177.96875 410.597656 178.0625 406.96875 178.0625 C 406.898438 178.316406 406.832031 178.566406 406.761719 178.816406 Z M 382.429688 171.964844 C 379.15625 172.941406 375.722656 173.367188 372.402344 174.207031 C 338.945312 182.683594 312.539062 201 294.140625 230.433594 C 285.871094 243.667969 279.367188 257.8125 272.925781 271.984375 C 272.675781 272.53125 272.578125 273.148438 272.164062 274.574219 C 306.835938 234.527344 345.34375 200.457031 391.476562 175.113281 C 388.804688 171.894531 386.0625 170.878906 382.429688 171.964844 Z M 412.789062 168.820312 C 422.242188 161.570312 432.90625 156.769531 444.253906 153.425781 C 462.21875 148.132812 480.242188 143.042969 498.179688 137.667969 C 515.636719 132.4375 532.796875 126.394531 549 117.914062 C 550.042969 117.367188 551.042969 116.746094 552.671875 115.808594 C 551.515625 115.6875 551.25 115.609375 550.996094 115.640625 C 538.566406 117.257812 526.132812 118.863281 513.707031 120.515625 C 497.617188 122.652344 481.503906 124.667969 465.789062 128.941406 C 452.835938 132.464844 440.550781 137.433594 429.621094 145.433594 C 422.195312 150.867188 416.71875 157.84375 412.71875 166.046875 C 412.285156 166.9375 412.089844 167.945312 411.722656 169.097656 C 412.332031 168.945312 412.617188 168.957031 412.789062 168.820312 Z M 388.632812 152.210938 C 388.761719 150.25 388.15625 148.625 387.03125 147.066406 C 382.828125 141.238281 377.957031 136.089844 371.9375 132.105469 C 364.980469 127.503906 357.609375 123.734375 349.691406 121.046875 C 335.953125 116.390625 322.035156 112.378906 307.847656 109.328125 C 302.097656 108.09375 296.347656 106.839844 290.601562 105.59375 C 290.472656 105.84375 290.347656 106.09375 290.21875 106.34375 C 293.992188 108.902344 297.695312 111.574219 301.554688 114 C 313.316406 121.402344 326.167969 126.605469 338.757812 132.347656 C 356.507812 140.449219 373.121094 150.292969 386.671875 164.644531 C 386.902344 164.890625 387.28125 164.996094 387.957031 165.371094 C 388.1875 160.785156 388.351562 156.496094 388.632812 152.210938 Z M 453.3125 50.34375 C 421.03125 85.398438 408.941406 127.476562 407.824219 173.558594 C 403.070312 175.789062 396.4375 174.839844 392.777344 171.261719 C 392.117188 170.617188 391.625 169.429688 391.648438 168.507812 C 392.371094 141.417969 394.066406 114.4375 402.050781 88.300781 C 406.484375 73.789062 413.644531 60.621094 422.285156 48.175781 C 424.535156 44.933594 426.976562 43.707031 430.828125 44.207031 C 438.449219 45.203125 445.914062 46.640625 453.3125 50.34375 Z M 400.335938 178.796875 C 399.6875 187.207031 396.664062 194.570312 392.144531 201.394531 C 385.660156 211.1875 377.402344 219.304688 368.265625 226.582031 C 358.316406 234.507812 347.460938 241.003906 336.226562 246.921875 C 321.984375 254.421875 307.695312 261.839844 293.613281 269.625 C 286.585938 273.511719 279.972656 278.136719 273.171875 282.429688 C 272.558594 282.816406 271.945312 283.203125 270.96875 283.191406 C 271.75 282.03125 272.425781 280.78125 273.332031 279.722656 C 279.078125 273.011719 284.707031 266.183594 290.6875 259.679688 C 311.320312 237.253906 334.085938 217.199219 359.070312 199.765625 C 369.554688 192.449219 380.695312 186.082031 391.433594 179.128906 C 394.382812 177.21875 397.085938 176.671875 400.335938 178.796875 Z M 551.269531 121.144531 C 550.238281 121.621094 549.207031 122.109375 548.171875 122.574219 C 542.753906 125 537.386719 127.53125 531.914062 129.820312 C 515.574219 136.652344 498.589844 141.558594 481.621094 146.515625 C 466.683594 150.875 451.757812 155.28125 436.910156 159.933594 C 429.707031 162.1875 423.082031 165.820312 416.886719 170.164062 C 415.785156 170.9375 414.820312 171.910156 413.398438 173.128906 C 415.160156 173.558594 416.164062 173.921875 417.199219 174.039062 C 428.652344 175.335938 440.109375 175.683594 451.554688 173.90625 C 479.398438 169.578125 504.40625 158.585938 526.78125 141.574219 C 534.449219 135.742188 541.867188 129.578125 549.390625 123.550781 C 550.148438 122.945312 550.828125 122.238281 551.542969 121.582031 C 551.453125 121.433594 551.363281 121.289062 551.269531 121.144531 Z M 330.113281 187 C 327.609375 187.117188 325.109375 187.3125 322.609375 187.398438 C 304.121094 188.019531 285.824219 190.515625 267.511719 192.867188 C 251.6875 194.898438 235.855469 196.882812 220.015625 198.796875 C 211.703125 199.804688 203.371094 200.621094 194.242188 201.609375 C 195.765625 202.144531 196.554688 202.53125 197.390625 202.703125 C 204.363281 204.136719 211.320312 205.660156 218.324219 206.921875 C 248.035156 212.277344 277.640625 212.113281 307.078125 204.960938 C 308.453125 204.628906 309.941406 204.171875 311.019531 203.316406 C 317.613281 198.082031 324.101562 192.714844 330.777344 187.269531 C 330.550781 187.175781 330.328125 186.988281 330.113281 187 Z M 535.214844 243.058594 C 532.324219 242.140625 529.4375 241.214844 526.53125 240.34375 C 504.621094 233.761719 483.660156 224.777344 462.878906 215.328125 C 443.011719 206.296875 423.785156 196.152344 406.289062 182.980469 C 405.667969 182.511719 404.976562 182.132812 404.304688 181.703125 C 402.847656 183.816406 403.398438 185.796875 404.261719 187.789062 C 406.882812 193.839844 411.015625 198.804688 415.707031 203.300781 C 422.984375 210.28125 431.109375 216.152344 439.949219 220.996094 C 459.546875 231.722656 480.214844 239.441406 502.347656 242.953125 C 513.472656 244.71875 524.648438 245.003906 536.488281 243.902344 C 535.625 243.324219 535.4375 243.128906 535.214844 243.058594 Z M 290.152344 111.441406 C 290.738281 112.144531 291.28125 112.882812 291.910156 113.539062 C 308.628906 131.070312 328.28125 144.734375 349.125 156.804688 C 350.558594 157.632812 352.3125 158.035156 353.972656 158.324219 C 362.296875 159.773438 370.480469 161.722656 378.414062 164.675781 C 379.359375 165.027344 380.34375 165.265625 381.3125 165.554688 C 380.984375 164.363281 380.421875 163.539062 379.695312 162.910156 C 376.90625 160.492188 374.144531 158.03125 371.230469 155.773438 C 358.949219 146.265625 345.316406 139.128906 331.105469 133.015625 C 320.566406 128.484375 310.125 123.753906 300.414062 117.578125 C 297.097656 115.464844 293.851562 113.234375 290.574219 111.058594 C 290.433594 111.1875 290.292969 111.3125 290.152344 111.441406 Z M 340.207031 156.570312 C 334.515625 156.273438 329.382812 155.921875 324.246094 155.75 C 307.722656 155.195312 291.230469 155.347656 274.882812 158.277344 C 261.664062 160.640625 249.183594 165.308594 236.984375 170.71875 C 226.371094 175.429688 215.941406 180.546875 205.417969 185.460938 C 197.644531 189.089844 189.839844 192.648438 182.078125 196.304688 C 180.382812 197.105469 177.851562 197.527344 178.203125 200.101562 C 178.507812 202.316406 180.820312 202.421875 182.566406 202.882812 C 203.792969 208.460938 225.222656 212.738281 247.21875 214.027344 C 265.140625 215.078125 282.824219 213.726562 300.390625 210.246094 C 301.296875 210.066406 302.207031 209.925781 303.125 209.820312 C 303.324219 209.800781 303.550781 210.019531 303.953125 210.21875 C 303.707031 210.65625 303.527344 211.144531 303.214844 211.507812 C 292.527344 223.949219 284.796875 238.21875 277.714844 252.871094 C 270.820312 267.132812 264.066406 281.464844 257.285156 295.78125 C 256.582031 297.261719 255.125 299.082031 257.035156 300.382812 C 258.980469 301.710938 260.046875 299.609375 261.144531 298.410156 C 269.710938 289.066406 279.683594 281.507812 290.777344 275.476562 C 306.316406 267.023438 321.917969 258.6875 337.574219 250.453125 C 352.476562 242.617188 366.6875 233.792969 379.050781 222.253906 C 388.101562 213.808594 396.03125 204.503906 400.898438 192.929688 C 401.039062 192.597656 401.390625 192.359375 401.78125 191.917969 C 403.097656 193.839844 404.304688 195.683594 405.601562 197.464844 C 411.675781 205.816406 419.488281 212.332031 428 217.960938 C 448.613281 231.59375 471.1875 240.535156 495.375 245.507812 C 511.058594 248.730469 526.835938 248.773438 542.679688 247.226562 C 544.746094 247.027344 547.273438 247.128906 548.15625 244.832031 C 549.15625 242.242188 546.5625 241.148438 545.082031 239.859375 C 532.726562 229.117188 520.601562 218.074219 507.808594 207.871094 C 491.207031 194.628906 472.152344 185.882812 451.835938 179.855469 C 450.824219 179.554688 449.808594 179.269531 448.808594 178.9375 C 448.582031 178.863281 448.417969 178.621094 447.988281 178.257812 C 450.878906 177.757812 453.582031 177.300781 456.28125 176.828125 C 482.800781 172.167969 506.636719 161.355469 528.097656 145.238281 C 530.855469 143.167969 533.269531 142.507812 536.738281 143.148438 C 580.234375 151.1875 620.808594 166.574219 658.109375 190.5 C 699.589844 217.113281 729.535156 253.191406 747.355469 299.148438 C 755.566406 320.328125 760.320312 342.394531 762.167969 365.027344 C 765.378906 404.386719 758.761719 442.433594 746.011719 479.539062 C 735.972656 508.757812 723.101562 536.65625 705.511719 562.1875 C 690.449219 584.050781 672.496094 603.398438 653.175781 621.515625 C 625.734375 647.25 595.546875 669.136719 561.613281 685.523438 C 530.171875 700.707031 497.214844 711.386719 462.714844 717.128906 C 436.738281 721.457031 410.621094 724.046875 384.242188 723.492188 C 364.128906 723.070312 344.144531 721.121094 324.347656 717.730469 C 273.085938 708.949219 224.28125 692.863281 178.207031 668.5 C 134.671875 645.484375 97.714844 614.667969 67.390625 575.996094 C 44.398438 546.679688 26.058594 514.675781 14.828125 478.953125 C 4.089844 444.792969 1.445312 409.878906 5.882812 374.375 C 10.464844 337.710938 22.484375 303.777344 43.132812 273.066406 C 63.457031 242.832031 89.453125 218.292969 119.609375 198.074219 C 148.523438 178.6875 180.199219 165.433594 213.605469 156.058594 C 240.871094 148.410156 268.601562 143.164062 296.730469 139.996094 C 301.585938 139.449219 306.4375 138.824219 311.308594 138.480469 C 312.761719 138.378906 314.523438 138.71875 315.714844 139.503906 C 323.539062 144.667969 331.246094 150.003906 338.980469 155.296875 C 339.285156 155.503906 339.503906 155.832031 340.207031 156.570312 Z M 736.488281 386.941406 C 735.585938 377.359375 735.183594 367.703125 733.707031 358.210938 C 725.386719 304.824219 700.753906 260.371094 659.769531 225.125 C 644.03125 211.589844 626.378906 201.09375 606.992188 193.585938 C 605.769531 193.113281 604.511719 192.621094 603.226562 192.457031 C 602.640625 192.382812 601.613281 192.953125 601.410156 193.476562 C 601.207031 193.996094 601.582031 195.074219 602.0625 195.457031 C 602.859375 196.09375 603.921875 196.414062 604.90625 196.789062 C 619.539062 202.375 633.242188 209.726562 645.839844 219.015625 C 687.335938 249.617188 713.855469 290.285156 726.4375 340.101562 C 732.449219 363.894531 733.835938 388.050781 730.449219 412.40625 C 729.90625 416.324219 729.109375 420.207031 728.378906 424.097656 C 728.117188 425.46875 727.859375 427.003906 729.5 427.410156 C 731.453125 427.890625 731.84375 426.246094 732.089844 424.742188 C 732.15625 424.351562 732.222656 423.960938 732.304688 423.574219 C 734.804688 411.507812 735.921875 399.304688 736.488281 386.941406 Z M 727.296875 450.351562 C 727.023438 449.898438 726.757812 448.851562 726.136719 448.5625 C 724.914062 447.988281 724.242188 448.960938 723.882812 450.046875 C 723.511719 451.167969 723.183594 452.300781 722.824219 453.425781 C 721.511719 457.546875 720.21875 461.675781 718.867188 465.78125 C 718.128906 468.023438 717.148438 470.195312 716.558594 472.472656 C 716.351562 473.273438 716.683594 474.734375 717.273438 475.121094 C 718.601562 475.988281 719.484375 474.835938 719.898438 473.679688 C 721.40625 469.484375 722.882812 465.277344 724.238281 461.03125 C 725.316406 457.660156 726.195312 454.226562 727.296875 450.351562 Z M 420.375 148.679688 C 423.128906 145.871094 426.246094 143.375 429.429688 141.039062 C 432.617188 138.699219 436.078125 136.730469 440.136719 134.144531 C 431.421875 134.144531 423.703125 134.144531 415.703125 134.144531 C 414.113281 142.15625 412.765625 149.992188 412.3125 158.46875 C 415.230469 154.878906 417.5625 151.542969 420.375 148.679688 Z M 389.011719 143.117188 C 389.261719 139.753906 389.429688 137.445312 389.621094 134.875 C 386.996094 134.875 384.726562 134.875 381.730469 134.875 C 384.21875 137.695312 386.289062 140.035156 389.011719 143.117188 Z M 309.519531 134.933594 C 308.070312 133.660156 307.144531 132.8125 306.1875 132.003906 C 297.496094 124.660156 289.105469 117.015625 282.257812 107.847656 C 281.394531 106.691406 280.449219 105.507812 279.949219 104.179688 C 279.578125 103.191406 279.445312 101.632812 279.988281 100.914062 C 280.519531 100.207031 282.109375 99.835938 283.101562 100.023438 C 287.375 100.828125 291.59375 101.945312 295.847656 102.859375 C 313.273438 106.59375 330.597656 110.667969 347.53125 116.316406 C 357.371094 119.601562 366.671875 123.871094 375.183594 129.804688 C 376.652344 130.832031 378.117188 131.402344 379.9375 131.351562 C 383.199219 131.253906 386.472656 131.324219 389.910156 131.324219 C 390.628906 126.136719 391.261719 121.320312 391.96875 116.511719 C 394.277344 100.773438 397.914062 85.398438 404.738281 70.925781 C 409.199219 61.464844 414.460938 52.484375 420.710938 44.078125 C 422.453125 41.734375 424.449219 40.558594 427.367188 40.667969 C 436.421875 41 445.199219 42.566406 453.53125 46.253906 C 454.132812 46.519531 454.75 46.773438 455.316406 47.109375 C 458.351562 48.925781 458.664062 50.4375 456.238281 53.023438 C 450.535156 59.097656 445.074219 65.355469 440.503906 72.355469 C 429.277344 89.566406 421.550781 108.253906 416.929688 128.25 C 416.785156 128.875 416.785156 129.535156 416.683594 130.5625 C 418.265625 130.5625 419.691406 130.558594 421.113281 130.5625 C 429.304688 130.605469 437.492188 130.695312 445.683594 130.652344 C 447.359375 130.644531 449.132812 130.429688 450.691406 129.847656 C 464.75 124.609375 479.324219 121.554688 494.132812 119.511719 C 513.617188 116.828125 533.117188 114.257812 552.601562 111.582031 C 556.261719 111.082031 559.882812 110.308594 563.519531 109.65625 C 564.300781 109.519531 565.078125 109.269531 565.859375 109.261719 C 567.804688 109.246094 568.742188 110.808594 567.707031 112.460938 C 567.160156 113.332031 566.320312 114.050781 565.519531 114.722656 C 556.820312 122.023438 548.101562 129.300781 539.390625 136.585938 C 538.429688 137.390625 537.480469 138.207031 535.972656 139.492188 C 539.871094 140.3125 543.050781 140.996094 546.238281 141.644531 C 588.667969 150.257812 628.039062 166.308594 664.113281 190.300781 C 706.9375 218.78125 736.996094 257.292969 753.660156 305.929688 C 763.289062 334.019531 767.789062 363.050781 766.613281 392.828125 C 765.351562 424.90625 758.6875 455.902344 747.800781 486.042969 C 740.019531 507.582031 730.621094 528.378906 719.007812 548.132812 C 705.394531 571.289062 688.304688 591.703125 669.511719 610.777344 C 640.675781 640.054688 608.636719 665.121094 572.117188 684.144531 C 539.335938 701.214844 504.640625 712.867188 468.28125 719.519531 C 449.554688 722.949219 430.683594 725.273438 411.679688 726.316406 C 389.742188 727.523438 367.867188 726.539062 346.027344 724.117188 C 299.59375 718.96875 255.054688 706.5625 212.121094 688.523438 C 179.253906 674.714844 148.25 657.441406 120.441406 634.859375 C 81.007812 602.839844 49.679688 564.304688 26.972656 518.800781 C 9.515625 483.824219 0.242188 446.875 0.175781 407.746094 C 0.101562 363.691406 9.898438 322.136719 32.070312 283.773438 C 46.714844 258.445312 65.820312 236.902344 87.792969 217.773438 C 121.210938 188.671875 159.679688 168.878906 201.851562 155.902344 C 229.941406 147.261719 258.609375 141.367188 287.734375 137.621094 C 294.152344 136.796875 300.585938 136.097656 307.007812 135.332031 C 307.609375 135.261719 308.203125 135.144531 309.519531 134.933594 Z M 340.207031 156.570312 C 339.503906 155.832031 339.285156 155.503906 338.980469 155.296875 C 331.246094 150.003906 323.539062 144.667969 315.714844 139.503906 C 314.523438 138.71875 312.761719 138.375 311.308594 138.480469 C 306.4375 138.824219 301.585938 139.449219 296.730469 139.996094 C 268.601562 143.164062 240.871094 148.410156 213.605469 156.058594 C 180.199219 165.433594 148.523438 178.6875 119.609375 198.074219 C 89.453125 218.292969 63.457031 242.832031 43.132812 273.066406 C 22.484375 303.777344 10.464844 337.710938 5.882812 374.375 C 1.445312 409.878906 4.089844 444.792969 14.828125 478.953125 C 26.058594 514.675781 44.398438 546.679688 67.390625 575.996094 C 97.714844 614.667969 134.671875 645.484375 178.207031 668.5 C 224.28125 692.863281 273.085938 708.949219 324.347656 717.730469 C 344.144531 721.121094 364.128906 723.070312 384.242188 723.492188 C 410.621094 724.046875 436.738281 721.457031 462.714844 717.128906 C 497.214844 711.386719 530.171875 700.707031 561.613281 685.523438 C 595.546875 669.136719 625.734375 647.25 653.175781 621.515625 C 672.496094 603.398438 690.449219 584.050781 705.511719 562.1875 C 723.101562 536.65625 735.972656 508.757812 746.011719 479.539062 C 758.761719 442.433594 765.378906 404.386719 762.167969 365.027344 C 760.320312 342.394531 755.566406 320.328125 747.355469 299.148438 C 729.535156 253.191406 699.589844 217.113281 658.109375 190.5 C 620.808594 166.574219 580.234375 151.1875 536.738281 143.148438 C 533.269531 142.507812 530.855469 143.167969 528.097656 145.238281 C 506.636719 161.355469 482.800781 172.167969 456.28125 176.828125 C 453.582031 177.300781 450.878906 177.757812 447.988281 178.257812 C 448.417969 178.621094 448.582031 178.863281 448.808594 178.9375 C 449.808594 179.269531 450.824219 179.554688 451.835938 179.855469 C 472.152344 185.882812 491.207031 194.628906 507.808594 207.871094 C 520.601562 218.074219 532.726562 229.117188 545.082031 239.859375 C 546.5625 241.148438 549.15625 242.242188 548.15625 244.832031 C 547.273438 247.128906 544.746094 247.027344 542.679688 247.226562 C 526.835938 248.773438 511.058594 248.730469 495.375 245.507812 C 471.1875 240.535156 448.613281 231.59375 428 217.960938 C 419.488281 212.332031 411.675781 205.816406 405.601562 197.464844 C 404.304688 195.683594 403.097656 193.839844 401.78125 191.917969 C 401.390625 192.359375 401.039062 192.597656 400.902344 192.929688 C 396.03125 204.503906 388.101562 213.808594 379.050781 222.253906 C 366.6875 233.792969 352.476562 242.617188 337.574219 250.453125 C 321.917969 258.6875 306.316406 267.023438 290.777344 275.476562 C 279.683594 281.507812 269.710938 289.066406 261.144531 298.410156 C 260.046875 299.609375 258.980469 301.710938 257.035156 300.382812 C 255.125 299.082031 256.582031 297.261719 257.285156 295.78125 C 264.066406 281.464844 270.820312 267.132812 277.714844 252.871094 C 284.796875 238.21875 292.527344 223.949219 303.214844 211.507812 C 303.527344 211.144531 303.707031 210.65625 303.953125 210.21875 C 303.550781 210.019531 303.324219 209.800781 303.125 209.820312 C 302.207031 209.925781 301.296875 210.066406 300.390625 210.246094 C 282.824219 213.726562 265.140625 215.078125 247.21875 214.027344 C 225.222656 212.738281 203.792969 208.460938 182.566406 202.882812 C 180.820312 202.421875 178.507812 202.316406 178.203125 200.101562 C 177.851562 197.527344 180.382812 197.105469 182.078125 196.304688 C 189.839844 192.648438 197.644531 189.089844 205.417969 185.460938 C 215.941406 180.546875 226.371094 175.429688 236.984375 170.71875 C 249.183594 165.308594 261.664062 160.640625 274.882812 158.277344 C 291.230469 155.347656 307.722656 155.195312 324.246094 155.75 C 329.382812 155.921875 334.515625 156.273438 340.207031 156.570312 Z M 378.851562 168.851562 C 377.753906 168.363281 377.082031 167.953125 376.351562 167.753906 C 370.632812 166.183594 364.972656 164.320312 359.171875 163.171875 C 340.167969 159.425781 320.917969 158.753906 301.617188 159.363281 C 291.59375 159.683594 281.601562 160.5 271.765625 162.703125 C 258.296875 165.722656 245.5625 170.792969 233.089844 176.53125 C 218.714844 183.148438 204.464844 190.042969 190.171875 196.835938 C 189.871094 196.976562 189.679688 197.347656 189.160156 197.914062 C 190.839844 197.832031 192.144531 197.847656 193.429688 197.695312 C 218.722656 194.753906 244.023438 191.878906 269.300781 188.800781 C 291.054688 186.15625 312.777344 183.210938 334.765625 183.695312 C 336.820312 183.738281 338.566406 183.132812 340.40625 182.285156 C 346.390625 179.527344 352.339844 176.621094 358.546875 174.464844 C 365 172.222656 371.730469 170.78125 378.851562 168.851562 Z M 400.335938 178.796875 C 397.085938 176.671875 394.382812 177.21875 391.433594 179.128906 C 380.695312 186.082031 369.554688 192.449219 359.070312 199.765625 C 334.085938 217.199219 311.320312 237.253906 290.6875 259.679688 C 284.707031 266.183594 279.078125 273.011719 273.332031 279.722656 C 272.425781 280.78125 271.75 282.03125 270.96875 283.191406 C 271.945312 283.203125 272.558594 282.816406 273.171875 282.429688 C 279.972656 278.136719 286.585938 273.511719 293.613281 269.625 C 307.695312 261.839844 321.984375 254.421875 336.226562 246.921875 C 347.460938 241.003906 358.316406 234.507812 368.265625 226.582031 C 377.402344 219.304688 385.660156 211.1875 392.144531 201.394531 C 396.664062 194.570312 399.6875 187.207031 400.335938 178.796875 Z M 453.3125 50.34375 C 445.914062 46.640625 438.449219 45.203125 430.828125 44.207031 C 426.976562 43.707031 424.535156 44.933594 422.285156 48.175781 C 413.644531 60.621094 406.484375 73.789062 402.050781 88.300781 C 394.066406 114.4375 392.371094 141.417969 391.648438 168.507812 C 391.625 169.429688 392.117188 170.617188 392.777344 171.261719 C 396.4375 174.839844 403.070312 175.789062 407.824219 173.558594 C 408.941406 127.476562 421.03125 85.398438 453.3125 50.34375 Z M 406.96875 178.0625 C 406.898438 178.316406 406.832031 178.566406 406.761719 178.816406 C 407.738281 179.605469 408.648438 180.5 409.703125 181.160156 C 419.890625 187.511719 429.742188 194.507812 440.371094 200.011719 C 470.277344 215.492188 501.011719 229.125 533.472656 238.5 C 535.210938 239 536.9375 239.558594 538.667969 240.085938 C 538.46875 239.039062 538.050781 238.429688 537.511719 237.960938 C 528.234375 229.917969 519.09375 221.710938 509.613281 213.914062 C 496.679688 203.277344 482.246094 195.105469 466.664062 188.941406 C 450.964844 182.730469 434.8125 178.59375 417.859375 178.078125 C 414.230469 177.96875 410.597656 178.0625 406.96875 178.0625 Z M 391.476562 175.113281 C 388.804688 171.894531 386.0625 170.878906 382.429688 171.964844 C 379.15625 172.941406 375.722656 173.367188 372.402344 174.207031 C 338.945312 182.683594 312.539062 201 294.140625 230.433594 C 285.871094 243.667969 279.367188 257.8125 272.925781 271.984375 C 272.675781 272.53125 272.578125 273.148438 272.164062 274.574219 C 306.835938 234.527344 345.34375 200.457031 391.476562 175.113281 Z M 551.542969 121.582031 C 551.453125 121.433594 551.363281 121.289062 551.269531 121.144531 C 550.238281 121.621094 549.207031 122.109375 548.171875 122.574219 C 542.753906 125 537.386719 127.53125 531.914062 129.820312 C 515.574219 136.652344 498.589844 141.558594 481.621094 146.515625 C 466.683594 150.875 451.757812 155.28125 436.910156 159.933594 C 429.707031 162.1875 423.082031 165.820312 416.886719 170.164062 C 415.785156 170.9375 414.820312 171.910156 413.398438 173.128906 C 415.160156 173.558594 416.164062 173.921875 417.199219 174.039062 C 428.652344 175.335938 440.109375 175.683594 451.554688 173.90625 C 479.398438 169.578125 504.40625 158.585938 526.78125 141.574219 C 534.449219 135.742188 541.867188 129.578125 549.390625 123.550781 C 550.148438 122.945312 550.828125 122.238281 551.542969 121.582031 Z M 411.722656 169.097656 C 412.332031 168.945312 412.617188 168.957031 412.789062 168.820312 C 422.242188 161.570312 432.90625 156.769531 444.253906 153.425781 C 462.21875 148.132812 480.242188 143.042969 498.179688 137.667969 C 515.636719 132.4375 532.796875 126.394531 549 117.914062 C 550.042969 117.367188 551.042969 116.746094 552.671875 115.808594 C 551.515625 115.6875 551.25 115.609375 550.996094 115.640625 C 538.566406 117.257812 526.132812 118.863281 513.707031 120.515625 C 497.617188 122.652344 481.503906 124.667969 465.789062 128.941406 C 452.835938 132.464844 440.550781 137.433594 429.621094 145.433594 C 422.195312 150.867188 416.71875 157.84375 412.71875 166.046875 C 412.285156 166.9375 412.089844 167.945312 411.722656 169.097656 Z M 330.777344 187.269531 C 330.550781 187.175781 330.328125 186.988281 330.113281 187 C 327.609375 187.117188 325.109375 187.3125 322.609375 187.398438 C 304.121094 188.019531 285.824219 190.515625 267.511719 192.867188 C 251.6875 194.898438 235.855469 196.882812 220.015625 198.796875 C 211.703125 199.804688 203.371094 200.621094 194.242188 201.609375 C 195.765625 202.144531 196.554688 202.53125 197.390625 202.703125 C 204.363281 204.140625 211.320312 205.660156 218.324219 206.921875 C 248.035156 212.277344 277.640625 212.113281 307.078125 204.960938 C 308.453125 204.628906 309.941406 204.171875 311.019531 203.316406 C 317.613281 198.082031 324.101562 192.714844 330.777344 187.269531 Z M 536.488281 243.902344 C 535.625 243.324219 535.4375 243.128906 535.214844 243.058594 C 532.324219 242.140625 529.4375 241.214844 526.53125 240.34375 C 504.621094 233.761719 483.660156 224.777344 462.878906 215.328125 C 443.011719 206.296875 423.785156 196.152344 406.289062 182.980469 C 405.667969 182.511719 404.976562 182.132812 404.304688 181.703125 C 402.847656 183.816406 403.398438 185.796875 404.261719 187.789062 C 406.882812 193.839844 411.015625 198.804688 415.707031 203.300781 C 422.984375 210.28125 431.109375 216.152344 439.949219 220.996094 C 459.546875 231.722656 480.214844 239.441406 502.347656 242.953125 C 513.472656 244.71875 524.648438 245.003906 536.488281 243.902344 Z M 387.957031 165.371094 C 388.1875 160.785156 388.351562 156.496094 388.632812 152.210938 C 388.761719 150.25 388.15625 148.625 387.03125 147.066406 C 382.828125 141.238281 377.957031 136.089844 371.9375 132.105469 C 364.980469 127.503906 357.609375 123.734375 349.691406 121.046875 C 335.953125 116.390625 322.035156 112.378906 307.847656 109.328125 C 302.097656 108.09375 296.347656 106.839844 290.601562 105.59375 C 290.472656 105.84375 290.347656 106.09375 290.21875 106.34375 C 293.992188 108.902344 297.695312 111.574219 301.554688 114 C 313.316406 121.402344 326.167969 126.605469 338.757812 132.347656 C 356.507812 140.449219 373.121094 150.292969 386.671875 164.644531 C 386.902344 164.890625 387.28125 164.996094 387.957031 165.371094 Z M 290.574219 111.058594 C 290.433594 111.1875 290.292969 111.3125 290.152344 111.441406 C 290.738281 112.144531 291.28125 112.882812 291.910156 113.539062 C 308.628906 131.070312 328.28125 144.734375 349.125 156.804688 C 350.558594 157.632812 352.3125 158.035156 353.972656 158.324219 C 362.296875 159.773438 370.480469 161.722656 378.414062 164.675781 C 379.359375 165.027344 380.34375 165.265625 381.3125 165.554688 C 380.984375 164.363281 380.421875 163.539062 379.695312 162.910156 C 376.90625 160.492188 374.144531 158.03125 371.230469 155.773438 C 358.949219 146.265625 345.316406 139.128906 331.105469 133.015625 C 320.566406 128.484375 310.125 123.753906 300.414062 117.578125 C 297.097656 115.464844 293.851562 113.234375 290.574219 111.058594 Z M 412.3125 158.46875 C 415.230469 154.878906 417.5625 151.542969 420.375 148.679688 C 423.128906 145.871094 426.246094 143.375 429.429688 141.039062 C 432.617188 138.699219 436.078125 136.730469 440.136719 134.144531 C 431.421875 134.144531 423.703125 134.144531 415.703125 134.144531 C 414.113281 142.15625 412.765625 149.992188 412.3125 158.46875 Z M 381.730469 134.875 C 384.21875 137.695312 386.289062 140.035156 389.011719 143.117188 C 389.261719 139.753906 389.429688 137.445312 389.621094 134.875 C 386.996094 134.875 384.726562 134.875 381.730469 134.875 Z M 733.707031 358.210938 C 725.386719 304.824219 700.753906 260.371094 659.769531 225.125 C 644.03125 211.589844 626.378906 201.09375 606.992188 193.585938 C 605.769531 193.113281 604.511719 192.621094 603.226562 192.457031 C 602.640625 192.382812 601.613281 192.953125 601.410156 193.476562 C 601.207031 193.996094 601.582031 195.074219 602.0625 195.457031 C 602.859375 196.09375 603.921875 196.414062 604.90625 196.789062 C 619.539062 202.375 633.242188 209.726562 645.839844 219.015625 C 687.335938 249.617188 713.855469 290.285156 726.4375 340.101562 C 732.449219 363.894531 733.835938 388.050781 730.449219 412.40625 C 729.90625 416.324219 729.109375 420.207031 728.378906 424.097656 C 728.117188 425.46875 727.859375 427.003906 729.5 427.410156 C 731.453125 427.890625 731.84375 426.246094 732.089844 424.742188 C 732.15625 424.351562 732.222656 423.960938 732.304688 423.574219 C 734.804688 411.507812 735.921875 399.304688 736.488281 386.941406 C 735.585938 377.359375 735.183594 367.703125 733.707031 358.210938 Z M 726.136719 448.5625 C 724.914062 447.988281 724.242188 448.960938 723.882812 450.046875 C 723.511719 451.167969 723.183594 452.300781 722.824219 453.425781 C 721.511719 457.546875 720.21875 461.675781 718.867188 465.78125 C 718.128906 468.023438 717.148438 470.195312 716.558594 472.472656 C 716.351562 473.273438 716.683594 474.734375 717.273438 475.121094 C 718.601562 475.988281 719.484375 474.835938 719.898438 473.679688 C 721.40625 469.484375 722.882812 465.277344 724.238281 461.03125 C 725.316406 457.660156 726.195312 454.226562 727.296875 450.351562 C 727.023438 449.898438 726.757812 448.851562 726.136719 448.5625 Z M 726.136719 448.5625 " fill-opacity="1" fill-rule="nonzero"/></g><path fill="#000000" d="M 378.851562 168.851562 C 371.730469 170.78125 365 172.222656 358.546875 174.464844 C 352.339844 176.621094 346.390625 179.527344 340.40625 182.285156 C 338.566406 183.132812 336.820312 183.738281 334.765625 183.695312 C 312.777344 183.210938 291.054688 186.15625 269.300781 188.800781 C 244.023438 191.878906 218.722656 194.753906 193.429688 197.695312 C 192.144531 197.847656 190.839844 197.832031 189.160156 197.914062 C 189.679688 197.347656 189.871094 196.976562 190.171875 196.835938 C 204.464844 190.042969 218.714844 183.148438 233.089844 176.53125 C 245.5625 170.792969 258.296875 165.722656 271.765625 162.703125 C 281.601562 160.5 291.59375 159.683594 301.617188 159.363281 C 320.917969 158.753906 340.167969 159.425781 359.171875 163.171875 C 364.972656 164.320312 370.632812 166.183594 376.351562 167.753906 C 377.082031 167.953125 377.753906 168.363281 378.851562 168.851562 Z M 406.761719 178.816406 C 407.738281 179.605469 408.648438 180.5 409.703125 181.160156 C 419.890625 187.511719 429.742188 194.507812 440.371094 200.011719 C 470.277344 215.492188 501.011719 229.125 533.472656 238.5 C 535.210938 239 536.9375 239.558594 538.667969 240.085938 C 538.46875 239.039062 538.050781 238.429688 537.511719 237.960938 C 528.234375 229.917969 519.09375 221.710938 509.613281 213.914062 C 496.679688 203.277344 482.246094 195.105469 466.664062 188.941406 C 450.964844 182.730469 434.8125 178.59375 417.859375 178.078125 C 414.230469 177.96875 410.597656 178.0625 406.96875 178.0625 C 406.898438 178.316406 406.832031 178.566406 406.761719 178.816406 Z M 382.429688 171.964844 C 379.15625 172.941406 375.722656 173.367188 372.402344 174.207031 C 338.945312 182.683594 312.539062 201 294.140625 230.433594 C 285.871094 243.667969 279.367188 257.8125 272.925781 271.984375 C 272.675781 272.53125 272.578125 273.148438 272.164062 274.574219 C 306.835938 234.527344 345.34375 200.457031 391.476562 175.113281 C 388.804688 171.894531 386.0625 170.878906 382.429688 171.964844 Z M 412.789062 168.820312 C 422.242188 161.570312 432.90625 156.769531 444.253906 153.425781 C 462.21875 148.132812 480.242188 143.042969 498.179688 137.667969 C 515.636719 132.4375 532.796875 126.394531 549 117.914062 C 550.042969 117.367188 551.042969 116.746094 552.671875 115.808594 C 551.515625 115.6875 551.25 115.609375 550.996094 115.640625 C 538.566406 117.257812 526.132812 118.863281 513.707031 120.515625 C 497.617188 122.652344 481.503906 124.667969 465.789062 128.941406 C 452.835938 132.464844 440.550781 137.433594 429.621094 145.433594 C 422.195312 150.867188 416.71875 157.84375 412.71875 166.046875 C 412.285156 166.9375 412.089844 167.945312 411.722656 169.097656 C 412.332031 168.945312 412.617188 168.957031 412.789062 168.820312 Z M 388.632812 152.210938 C 388.761719 150.25 388.15625 148.625 387.03125 147.066406 C 382.828125 141.238281 377.957031 136.089844 371.9375 132.105469 C 364.980469 127.503906 357.609375 123.734375 349.691406 121.046875 C 335.953125 116.390625 322.035156 112.378906 307.847656 109.328125 C 302.097656 108.09375 296.347656 106.839844 290.601562 105.59375 C 290.472656 105.84375 290.347656 106.09375 290.21875 106.34375 C 293.992188 108.902344 297.695312 111.574219 301.554688 114 C 313.316406 121.402344 326.167969 126.605469 338.757812 132.347656 C 356.507812 140.449219 373.121094 150.292969 386.671875 164.644531 C 386.902344 164.890625 387.28125 164.996094 387.957031 165.371094 C 388.1875 160.785156 388.351562 156.496094 388.632812 152.210938 Z M 388.632812 152.210938 " fill-opacity="1" fill-rule="nonzero"/><path fill="#000000" d="M 453.3125 50.34375 C 421.03125 85.398438 408.941406 127.476562 407.824219 173.558594 C 403.070312 175.789062 396.4375 174.839844 392.777344 171.261719 C 392.117188 170.617188 391.625 169.429688 391.648438 168.507812 C 392.371094 141.417969 394.066406 114.4375 402.050781 88.300781 C 406.484375 73.789062 413.644531 60.621094 422.285156 48.175781 C 424.535156 44.933594 426.976562 43.707031 430.828125 44.207031 C 438.449219 45.203125 445.914062 46.640625 453.3125 50.34375 Z M 400.335938 178.796875 C 399.6875 187.207031 396.664062 194.570312 392.144531 201.394531 C 385.660156 211.1875 377.402344 219.304688 368.265625 226.582031 C 358.316406 234.507812 347.460938 241.003906 336.226562 246.921875 C 321.984375 254.421875 307.695312 261.839844 293.613281 269.625 C 286.585938 273.511719 279.972656 278.136719 273.171875 282.429688 C 272.558594 282.816406 271.945312 283.203125 270.96875 283.191406 C 271.75 282.03125 272.425781 280.78125 273.332031 279.722656 C 279.078125 273.011719 284.707031 266.183594 290.6875 259.679688 C 311.320312 237.253906 334.085938 217.199219 359.070312 199.765625 C 369.554688 192.449219 380.695312 186.082031 391.433594 179.128906 C 394.382812 177.21875 397.085938 176.671875 400.335938 178.796875 Z M 551.269531 121.144531 C 550.238281 121.621094 549.207031 122.109375 548.171875 122.574219 C 542.753906 125 537.386719 127.53125 531.914062 129.820312 C 515.574219 136.652344 498.589844 141.558594 481.621094 146.515625 C 466.683594 150.875 451.757812 155.28125 436.910156 159.933594 C 429.707031 162.1875 423.082031 165.820312 416.886719 170.164062 C 415.785156 170.9375 414.820312 171.910156 413.398438 173.128906 C 415.160156 173.558594 416.164062 173.921875 417.199219 174.039062 C 428.652344 175.335938 440.109375 175.683594 451.554688 173.90625 C 479.398438 169.578125 504.40625 158.585938 526.78125 141.574219 C 534.449219 135.742188 541.867188 129.578125 549.390625 123.550781 C 550.148438 122.945312 550.828125 122.238281 551.542969 121.582031 C 551.453125 121.433594 551.363281 121.289062 551.269531 121.144531 Z M 330.113281 187 C 327.609375 187.117188 325.109375 187.3125 322.609375 187.398438 C 304.121094 188.019531 285.824219 190.515625 267.511719 192.867188 C 251.6875 194.898438 235.855469 196.882812 220.015625 198.796875 C 211.703125 199.804688 203.371094 200.621094 194.242188 201.609375 C 195.765625 202.144531 196.554688 202.53125 197.390625 202.703125 C 204.363281 204.136719 211.320312 205.660156 218.324219 206.921875 C 248.035156 212.277344 277.640625 212.113281 307.078125 204.960938 C 308.453125 204.628906 309.941406 204.171875 311.019531 203.316406 C 317.613281 198.082031 324.101562 192.714844 330.777344 187.269531 C 330.550781 187.175781 330.328125 186.988281 330.113281 187 Z M 535.214844 243.058594 C 532.324219 242.140625 529.4375 241.214844 526.53125 240.34375 C 504.621094 233.761719 483.660156 224.777344 462.878906 215.328125 C 443.011719 206.296875 423.785156 196.152344 406.289062 182.980469 C 405.667969 182.511719 404.976562 182.132812 404.304688 181.703125 C 402.847656 183.816406 403.398438 185.796875 404.261719 187.789062 C 406.882812 193.839844 411.015625 198.804688 415.707031 203.300781 C 422.984375 210.28125 431.109375 216.152344 439.949219 220.996094 C 459.546875 231.722656 480.214844 239.441406 502.347656 242.953125 C 513.472656 244.71875 524.648438 245.003906 536.488281 243.902344 C 535.625 243.324219 535.4375 243.128906 535.214844 243.058594 Z M 290.152344 111.441406 C 290.738281 112.144531 291.28125 112.882812 291.910156 113.539062 C 308.628906 131.070312 328.28125 144.734375 349.125 156.804688 C 350.558594 157.632812 352.3125 158.035156 353.972656 158.324219 C 362.296875 159.773438 370.480469 161.722656 378.414062 164.675781 C 379.359375 165.027344 380.34375 165.265625 381.3125 165.554688 C 380.984375 164.363281 380.421875 163.539062 379.695312 162.910156 C 376.90625 160.492188 374.144531 158.03125 371.230469 155.773438 C 358.949219 146.265625 345.316406 139.128906 331.105469 133.015625 C 320.566406 128.484375 310.125 123.753906 300.414062 117.578125 C 297.097656 115.464844 293.851562 113.234375 290.574219 111.058594 C 290.433594 111.1875 290.292969 111.3125 290.152344 111.441406 Z M 290.152344 111.441406 " fill-opacity="1" fill-rule="nonzero"/><path fill="#ffffff" d="M 340.207031 156.570312 C 334.515625 156.273438 329.382812 155.921875 324.246094 155.75 C 307.722656 155.195312 291.230469 155.347656 274.882812 158.277344 C 261.664062 160.640625 249.183594 165.308594 236.984375 170.71875 C 226.371094 175.429688 215.941406 180.546875 205.417969 185.460938 C 197.644531 189.089844 189.839844 192.648438 182.078125 196.304688 C 180.382812 197.105469 177.851562 197.527344 178.203125 200.101562 C 178.507812 202.316406 180.820312 202.421875 182.566406 202.882812 C 203.792969 208.460938 225.222656 212.738281 247.21875 214.027344 C 265.140625 215.078125 282.824219 213.726562 300.390625 210.246094 C 301.296875 210.066406 302.207031 209.925781 303.125 209.820312 C 303.324219 209.800781 303.550781 210.019531 303.953125 210.21875 C 303.707031 210.65625 303.527344 211.144531 303.214844 211.507812 C 292.527344 223.949219 284.796875 238.21875 277.714844 252.871094 C 270.820312 267.132812 264.066406 281.464844 257.285156 295.78125 C 256.582031 297.261719 255.125 299.082031 257.035156 300.382812 C 258.980469 301.710938 260.046875 299.609375 261.144531 298.410156 C 269.710938 289.066406 279.683594 281.507812 290.777344 275.476562 C 306.316406 267.023438 321.917969 258.6875 337.574219 250.453125 C 352.476562 242.617188 366.6875 233.792969 379.050781 222.253906 C 388.101562 213.808594 396.03125 204.503906 400.898438 192.929688 C 401.039062 192.597656 401.390625 192.359375 401.78125 191.917969 C 403.097656 193.839844 404.304688 195.683594 405.601562 197.464844 C 411.675781 205.816406 419.488281 212.332031 428 217.960938 C 448.613281 231.59375 471.1875 240.535156 495.375 245.507812 C 511.058594 248.730469 526.835938 248.773438 542.679688 247.226562 C 544.746094 247.027344 547.273438 247.128906 548.15625 244.832031 C 549.15625 242.242188 546.5625 241.148438 545.082031 239.859375 C 532.726562 229.117188 520.601562 218.074219 507.808594 207.871094 C 491.207031 194.628906 472.152344 185.882812 451.835938 179.855469 C 450.824219 179.554688 449.808594 179.269531 448.808594 178.9375 C 448.582031 178.863281 448.417969 178.621094 447.988281 178.257812 C 450.878906 177.757812 453.582031 177.300781 456.28125 176.828125 C 482.800781 172.167969 506.636719 161.355469 528.097656 145.238281 C 530.855469 143.167969 533.269531 142.507812 536.738281 143.148438 C 580.234375 151.1875 620.808594 166.574219 658.109375 190.5 C 699.589844 217.113281 729.535156 253.191406 747.355469 299.148438 C 755.566406 320.328125 760.320312 342.394531 762.167969 365.027344 C 765.378906 404.386719 758.761719 442.433594 746.011719 479.539062 C 735.972656 508.757812 723.101562 536.65625 705.511719 562.1875 C 690.449219 584.050781 672.496094 603.398438 653.175781 621.515625 C 625.734375 647.25 595.546875 669.136719 561.613281 685.523438 C 530.171875 700.707031 497.214844 711.386719 462.714844 717.128906 C 436.738281 721.457031 410.621094 724.046875 384.242188 723.492188 C 364.128906 723.070312 344.144531 721.121094 324.347656 717.730469 C 273.085938 708.949219 224.28125 692.863281 178.207031 668.5 C 134.671875 645.484375 97.714844 614.667969 67.390625 575.996094 C 44.398438 546.679688 26.058594 514.675781 14.828125 478.953125 C 4.089844 444.792969 1.445312 409.878906 5.882812 374.375 C 10.464844 337.710938 22.484375 303.777344 43.132812 273.066406 C 63.457031 242.832031 89.453125 218.292969 119.609375 198.074219 C 148.523438 178.6875 180.199219 165.433594 213.605469 156.058594 C 240.871094 148.410156 268.601562 143.164062 296.730469 139.996094 C 301.585938 139.449219 306.4375 138.824219 311.308594 138.480469 C 312.761719 138.378906 314.523438 138.71875 315.714844 139.503906 C 323.539062 144.667969 331.246094 150.003906 338.980469 155.296875 C 339.285156 155.503906 339.503906 155.832031 340.207031 156.570312 Z M 736.488281 386.941406 C 735.585938 377.359375 735.183594 367.703125 733.707031 358.210938 C 725.386719 304.824219 700.753906 260.371094 659.769531 225.125 C 644.03125 211.589844 626.378906 201.09375 606.992188 193.585938 C 605.769531 193.113281 604.511719 192.621094 603.226562 192.457031 C 602.640625 192.382812 601.613281 192.953125 601.410156 193.476562 C 601.207031 193.996094 601.582031 195.074219 602.0625 195.457031 C 602.859375 196.09375 603.921875 196.414062 604.90625 196.789062 C 619.539062 202.375 633.242188 209.726562 645.839844 219.015625 C 687.335938 249.617188 713.855469 290.285156 726.4375 340.101562 C 732.449219 363.894531 733.835938 388.050781 730.449219 412.40625 C 729.90625 416.324219 729.109375 420.207031 728.378906 424.097656 C 728.117188 425.46875 727.859375 427.003906 729.5 427.410156 C 731.453125 427.890625 731.84375 426.246094 732.089844 424.742188 C 732.15625 424.351562 732.222656 423.960938 732.304688 423.574219 C 734.804688 411.507812 735.921875 399.304688 736.488281 386.941406 Z M 727.296875 450.351562 C 727.023438 449.898438 726.757812 448.851562 726.136719 448.5625 C 724.914062 447.988281 724.242188 448.960938 723.882812 450.046875 C 723.511719 451.167969 723.183594 452.300781 722.824219 453.425781 C 721.511719 457.546875 720.21875 461.675781 718.867188 465.78125 C 718.128906 468.023438 717.148438 470.195312 716.558594 472.472656 C 716.351562 473.273438 716.683594 474.734375 717.273438 475.121094 C 718.601562 475.988281 719.484375 474.835938 719.898438 473.679688 C 721.40625 469.484375 722.882812 465.277344 724.238281 461.03125 C 725.316406 457.660156 726.195312 454.226562 727.296875 450.351562 Z M 420.375 148.679688 C 423.128906 145.871094 426.246094 143.375 429.429688 141.039062 C 432.617188 138.699219 436.078125 136.730469 440.136719 134.144531 C 431.421875 134.144531 423.703125 134.144531 415.703125 134.144531 C 414.113281 142.15625 412.765625 149.992188 412.3125 158.46875 C 415.230469 154.878906 417.5625 151.542969 420.375 148.679688 Z M 389.011719 143.117188 C 389.261719 139.753906 389.429688 137.445312 389.621094 134.875 C 386.996094 134.875 384.726562 134.875 381.730469 134.875 C 384.21875 137.695312 386.289062 140.035156 389.011719 143.117188 Z M 389.011719 143.117188 " fill-opacity="1" fill-rule="nonzero"/><g clip-path="url(#37b6819bd2)"><path fill="#000000" d="M 309.519531 134.933594 C 308.070312 133.660156 307.144531 132.8125 306.1875 132.003906 C 297.496094 124.660156 289.105469 117.015625 282.257812 107.847656 C 281.394531 106.691406 280.449219 105.507812 279.949219 104.179688 C 279.578125 103.191406 279.445312 101.632812 279.988281 100.914062 C 280.519531 100.207031 282.109375 99.835938 283.101562 100.023438 C 287.375 100.828125 291.59375 101.945312 295.847656 102.859375 C 313.273438 106.59375 330.597656 110.667969 347.53125 116.316406 C 357.371094 119.601562 366.671875 123.871094 375.183594 129.804688 C 376.652344 130.832031 378.117188 131.402344 379.9375 131.351562 C 383.199219 131.253906 386.472656 131.324219 389.910156 131.324219 C 390.628906 126.136719 391.261719 121.320312 391.96875 116.511719 C 394.277344 100.773438 397.914062 85.398438 404.738281 70.925781 C 409.199219 61.464844 414.460938 52.484375 420.710938 44.078125 C 422.453125 41.734375 424.449219 40.558594 427.367188 40.667969 C 436.421875 41 445.199219 42.566406 453.53125 46.253906 C 454.132812 46.519531 454.75 46.773438 455.316406 47.109375 C 458.351562 48.925781 458.664062 50.4375 456.238281 53.023438 C 450.535156 59.097656 445.074219 65.355469 440.503906 72.355469 C 429.277344 89.566406 421.550781 108.253906 416.929688 128.25 C 416.785156 128.875 416.785156 129.535156 416.683594 130.5625 C 418.265625 130.5625 419.691406 130.558594 421.113281 130.5625 C 429.304688 130.605469 437.492188 130.695312 445.683594 130.652344 C 447.359375 130.644531 449.132812 130.429688 450.691406 129.847656 C 464.75 124.609375 479.324219 121.554688 494.132812 119.511719 C 513.617188 116.828125 533.117188 114.257812 552.601562 111.582031 C 556.261719 111.082031 559.882812 110.308594 563.519531 109.65625 C 564.300781 109.519531 565.078125 109.269531 565.859375 109.261719 C 567.804688 109.246094 568.742188 110.808594 567.707031 112.460938 C 567.160156 113.332031 566.320312 114.050781 565.519531 114.722656 C 556.820312 122.023438 548.101562 129.300781 539.390625 136.585938 C 538.429688 137.390625 537.480469 138.207031 535.972656 139.492188 C 539.871094 140.3125 543.050781 140.996094 546.238281 141.644531 C 588.667969 150.257812 628.039062 166.308594 664.113281 190.300781 C 706.9375 218.78125 736.996094 257.292969 753.660156 305.929688 C 763.289062 334.019531 767.789062 363.050781 766.613281 392.828125 C 765.351562 424.90625 758.6875 455.902344 747.800781 486.042969 C 740.019531 507.582031 730.621094 528.378906 719.007812 548.132812 C 705.394531 571.289062 688.304688 591.703125 669.511719 610.777344 C 640.675781 640.054688 608.636719 665.121094 572.117188 684.144531 C 539.335938 701.214844 504.640625 712.867188 468.28125 719.519531 C 449.554688 722.949219 430.683594 725.273438 411.679688 726.316406 C 389.742188 727.523438 367.867188 726.539062 346.027344 724.117188 C 299.59375 718.96875 255.054688 706.5625 212.121094 688.523438 C 179.253906 674.714844 148.25 657.441406 120.441406 634.859375 C 81.007812 602.839844 49.679688 564.304688 26.972656 518.800781 C 9.515625 483.824219 0.242188 446.875 0.175781 407.746094 C 0.101562 363.691406 9.898438 322.136719 32.070312 283.773438 C 46.714844 258.445312 65.820312 236.902344 87.792969 217.773438 C 121.210938 188.671875 159.679688 168.878906 201.851562 155.902344 C 229.941406 147.261719 258.609375 141.367188 287.734375 137.621094 C 294.152344 136.796875 300.585938 136.097656 307.007812 135.332031 C 307.609375 135.261719 308.203125 135.144531 309.519531 134.933594 Z M 340.207031 156.570312 C 339.503906 155.832031 339.285156 155.503906 338.980469 155.296875 C 331.246094 150.003906 323.539062 144.667969 315.714844 139.503906 C 314.523438 138.71875 312.761719 138.375 311.308594 138.480469 C 306.4375 138.824219 301.585938 139.449219 296.730469 139.996094 C 268.601562 143.164062 240.871094 148.410156 213.605469 156.058594 C 180.199219 165.433594 148.523438 178.6875 119.609375 198.074219 C 89.453125 218.292969 63.457031 242.832031 43.132812 273.066406 C 22.484375 303.777344 10.464844 337.710938 5.882812 374.375 C 1.445312 409.878906 4.089844 444.792969 14.828125 478.953125 C 26.058594 514.675781 44.398438 546.679688 67.390625 575.996094 C 97.714844 614.667969 134.671875 645.484375 178.207031 668.5 C 224.28125 692.863281 273.085938 708.949219 324.347656 717.730469 C 344.144531 721.121094 364.128906 723.070312 384.242188 723.492188 C 410.621094 724.046875 436.738281 721.457031 462.714844 717.128906 C 497.214844 711.386719 530.171875 700.707031 561.613281 685.523438 C 595.546875 669.136719 625.734375 647.25 653.175781 621.515625 C 672.496094 603.398438 690.449219 584.050781 705.511719 562.1875 C 723.101562 536.65625 735.972656 508.757812 746.011719 479.539062 C 758.761719 442.433594 765.378906 404.386719 762.167969 365.027344 C 760.320312 342.394531 755.566406 320.328125 747.355469 299.148438 C 729.535156 253.191406 699.589844 217.113281 658.109375 190.5 C 620.808594 166.574219 580.234375 151.1875 536.738281 143.148438 C 533.269531 142.507812 530.855469 143.167969 528.097656 145.238281 C 506.636719 161.355469 482.800781 172.167969 456.28125 176.828125 C 453.582031 177.300781 450.878906 177.757812 447.988281 178.257812 C 448.417969 178.621094 448.582031 178.863281 448.808594 178.9375 C 449.808594 179.269531 450.824219 179.554688 451.835938 179.855469 C 472.152344 185.882812 491.207031 194.628906 507.808594 207.871094 C 520.601562 218.074219 532.726562 229.117188 545.082031 239.859375 C 546.5625 241.148438 549.15625 242.242188 548.15625 244.832031 C 547.273438 247.128906 544.746094 247.027344 542.679688 247.226562 C 526.835938 248.773438 511.058594 248.730469 495.375 245.507812 C 471.1875 240.535156 448.613281 231.59375 428 217.960938 C 419.488281 212.332031 411.675781 205.816406 405.601562 197.464844 C 404.304688 195.683594 403.097656 193.839844 401.78125 191.917969 C 401.390625 192.359375 401.039062 192.597656 400.902344 192.929688 C 396.03125 204.503906 388.101562 213.808594 379.050781 222.253906 C 366.6875 233.792969 352.476562 242.617188 337.574219 250.453125 C 321.917969 258.6875 306.316406 267.023438 290.777344 275.476562 C 279.683594 281.507812 269.710938 289.066406 261.144531 298.410156 C 260.046875 299.609375 258.980469 301.710938 257.035156 300.382812 C 255.125 299.082031 256.582031 297.261719 257.285156 295.78125 C 264.066406 281.464844 270.820312 267.132812 277.714844 252.871094 C 284.796875 238.21875 292.527344 223.949219 303.214844 211.507812 C 303.527344 211.144531 303.707031 210.65625 303.953125 210.21875 C 303.550781 210.019531 303.324219 209.800781 303.125 209.820312 C 302.207031 209.925781 301.296875 210.066406 300.390625 210.246094 C 282.824219 213.726562 265.140625 215.078125 247.21875 214.027344 C 225.222656 212.738281 203.792969 208.460938 182.566406 202.882812 C 180.820312 202.421875 178.507812 202.316406 178.203125 200.101562 C 177.851562 197.527344 180.382812 197.105469 182.078125 196.304688 C 189.839844 192.648438 197.644531 189.089844 205.417969 185.460938 C 215.941406 180.546875 226.371094 175.429688 236.984375 170.71875 C 249.183594 165.308594 261.664062 160.640625 274.882812 158.277344 C 291.230469 155.347656 307.722656 155.195312 324.246094 155.75 C 329.382812 155.921875 334.515625 156.273438 340.207031 156.570312 Z M 378.851562 168.851562 C 377.753906 168.363281 377.082031 167.953125 376.351562 167.753906 C 370.632812 166.183594 364.972656 164.320312 359.171875 163.171875 C 340.167969 159.425781 320.917969 158.753906 301.617188 159.363281 C 291.59375 159.683594 281.601562 160.5 271.765625 162.703125 C 258.296875 165.722656 245.5625 170.792969 233.089844 176.53125 C 218.714844 183.148438 204.464844 190.042969 190.171875 196.835938 C 189.871094 196.976562 189.679688 197.347656 189.160156 197.914062 C 190.839844 197.832031 192.144531 197.847656 193.429688 197.695312 C 218.722656 194.753906 244.023438 191.878906 269.300781 188.800781 C 291.054688 186.15625 312.777344 183.210938 334.765625 183.695312 C 336.820312 183.738281 338.566406 183.132812 340.40625 182.285156 C 346.390625 179.527344 352.339844 176.621094 358.546875 174.464844 C 365 172.222656 371.730469 170.78125 378.851562 168.851562 Z M 400.335938 178.796875 C 397.085938 176.671875 394.382812 177.21875 391.433594 179.128906 C 380.695312 186.082031 369.554688 192.449219 359.070312 199.765625 C 334.085938 217.199219 311.320312 237.253906 290.6875 259.679688 C 284.707031 266.183594 279.078125 273.011719 273.332031 279.722656 C 272.425781 280.78125 271.75 282.03125 270.96875 283.191406 C 271.945312 283.203125 272.558594 282.816406 273.171875 282.429688 C 279.972656 278.136719 286.585938 273.511719 293.613281 269.625 C 307.695312 261.839844 321.984375 254.421875 336.226562 246.921875 C 347.460938 241.003906 358.316406 234.507812 368.265625 226.582031 C 377.402344 219.304688 385.660156 211.1875 392.144531 201.394531 C 396.664062 194.570312 399.6875 187.207031 400.335938 178.796875 Z M 453.3125 50.34375 C 445.914062 46.640625 438.449219 45.203125 430.828125 44.207031 C 426.976562 43.707031 424.535156 44.933594 422.285156 48.175781 C 413.644531 60.621094 406.484375 73.789062 402.050781 88.300781 C 394.066406 114.4375 392.371094 141.417969 391.648438 168.507812 C 391.625 169.429688 392.117188 170.617188 392.777344 171.261719 C 396.4375 174.839844 403.070312 175.789062 407.824219 173.558594 C 408.941406 127.476562 421.03125 85.398438 453.3125 50.34375 Z M 406.96875 178.0625 C 406.898438 178.316406 406.832031 178.566406 406.761719 178.816406 C 407.738281 179.605469 408.648438 180.5 409.703125 181.160156 C 419.890625 187.511719 429.742188 194.507812 440.371094 200.011719 C 470.277344 215.492188 501.011719 229.125 533.472656 238.5 C 535.210938 239 536.9375 239.558594 538.667969 240.085938 C 538.46875 239.039062 538.050781 238.429688 537.511719 237.960938 C 528.234375 229.917969 519.09375 221.710938 509.613281 213.914062 C 496.679688 203.277344 482.246094 195.105469 466.664062 188.941406 C 450.964844 182.730469 434.8125 178.59375 417.859375 178.078125 C 414.230469 177.96875 410.597656 178.0625 406.96875 178.0625 Z M 391.476562 175.113281 C 388.804688 171.894531 386.0625 170.878906 382.429688 171.964844 C 379.15625 172.941406 375.722656 173.367188 372.402344 174.207031 C 338.945312 182.683594 312.539062 201 294.140625 230.433594 C 285.871094 243.667969 279.367188 257.8125 272.925781 271.984375 C 272.675781 272.53125 272.578125 273.148438 272.164062 274.574219 C 306.835938 234.527344 345.34375 200.457031 391.476562 175.113281 Z M 551.542969 121.582031 C 551.453125 121.433594 551.363281 121.289062 551.269531 121.144531 C 550.238281 121.621094 549.207031 122.109375 548.171875 122.574219 C 542.753906 125 537.386719 127.53125 531.914062 129.820312 C 515.574219 136.652344 498.589844 141.558594 481.621094 146.515625 C 466.683594 150.875 451.757812 155.28125 436.910156 159.933594 C 429.707031 162.1875 423.082031 165.820312 416.886719 170.164062 C 415.785156 170.9375 414.820312 171.910156 413.398438 173.128906 C 415.160156 173.558594 416.164062 173.921875 417.199219 174.039062 C 428.652344 175.335938 440.109375 175.683594 451.554688 173.90625 C 479.398438 169.578125 504.40625 158.585938 526.78125 141.574219 C 534.449219 135.742188 541.867188 129.578125 549.390625 123.550781 C 550.148438 122.945312 550.828125 122.238281 551.542969 121.582031 Z M 411.722656 169.097656 C 412.332031 168.945312 412.617188 168.957031 412.789062 168.820312 C 422.242188 161.570312 432.90625 156.769531 444.253906 153.425781 C 462.21875 148.132812 480.242188 143.042969 498.179688 137.667969 C 515.636719 132.4375 532.796875 126.394531 549 117.914062 C 550.042969 117.367188 551.042969 116.746094 552.671875 115.808594 C 551.515625 115.6875 551.25 115.609375 550.996094 115.640625 C 538.566406 117.257812 526.132812 118.863281 513.707031 120.515625 C 497.617188 122.652344 481.503906 124.667969 465.789062 128.941406 C 452.835938 132.464844 440.550781 137.433594 429.621094 145.433594 C 422.195312 150.867188 416.71875 157.84375 412.71875 166.046875 C 412.285156 166.9375 412.089844 167.945312 411.722656 169.097656 Z M 330.777344 187.269531 C 330.550781 187.175781 330.328125 186.988281 330.113281 187 C 327.609375 187.117188 325.109375 187.3125 322.609375 187.398438 C 304.121094 188.019531 285.824219 190.515625 267.511719 192.867188 C 251.6875 194.898438 235.855469 196.882812 220.015625 198.796875 C 211.703125 199.804688 203.371094 200.621094 194.242188 201.609375 C 195.765625 202.144531 196.554688 202.53125 197.390625 202.703125 C 204.363281 204.140625 211.320312 205.660156 218.324219 206.921875 C 248.035156 212.277344 277.640625 212.113281 307.078125 204.960938 C 308.453125 204.628906 309.941406 204.171875 311.019531 203.316406 C 317.613281 198.082031 324.101562 192.714844 330.777344 187.269531 Z M 536.488281 243.902344 C 535.625 243.324219 535.4375 243.128906 535.214844 243.058594 C 532.324219 242.140625 529.4375 241.214844 526.53125 240.34375 C 504.621094 233.761719 483.660156 224.777344 462.878906 215.328125 C 443.011719 206.296875 423.785156 196.152344 406.289062 182.980469 C 405.667969 182.511719 404.976562 182.132812 404.304688 181.703125 C 402.847656 183.816406 403.398438 185.796875 404.261719 187.789062 C 406.882812 193.839844 411.015625 198.804688 415.707031 203.300781 C 422.984375 210.28125 431.109375 216.152344 439.949219 220.996094 C 459.546875 231.722656 480.214844 239.441406 502.347656 242.953125 C 513.472656 244.71875 524.648438 245.003906 536.488281 243.902344 Z M 387.957031 165.371094 C 388.1875 160.785156 388.351562 156.496094 388.632812 152.210938 C 388.761719 150.25 388.15625 148.625 387.03125 147.066406 C 382.828125 141.238281 377.957031 136.089844 371.9375 132.105469 C 364.980469 127.503906 357.609375 123.734375 349.691406 121.046875 C 335.953125 116.390625 322.035156 112.378906 307.847656 109.328125 C 302.097656 108.09375 296.347656 106.839844 290.601562 105.59375 C 290.472656 105.84375 290.347656 106.09375 290.21875 106.34375 C 293.992188 108.902344 297.695312 111.574219 301.554688 114 C 313.316406 121.402344 326.167969 126.605469 338.757812 132.347656 C 356.507812 140.449219 373.121094 150.292969 386.671875 164.644531 C 386.902344 164.890625 387.28125 164.996094 387.957031 165.371094 Z M 290.574219 111.058594 C 290.433594 111.1875 290.292969 111.3125 290.152344 111.441406 C 290.738281 112.144531 291.28125 112.882812 291.910156 113.539062 C 308.628906 131.070312 328.28125 144.734375 349.125 156.804688 C 350.558594 157.632812 352.3125 158.035156 353.972656 158.324219 C 362.296875 159.773438 370.480469 161.722656 378.414062 164.675781 C 379.359375 165.027344 380.34375 165.265625 381.3125 165.554688 C 380.984375 164.363281 380.421875 163.539062 379.695312 162.910156 C 376.90625 160.492188 374.144531 158.03125 371.230469 155.773438 C 358.949219 146.265625 345.316406 139.128906 331.105469 133.015625 C 320.566406 128.484375 310.125 123.753906 300.414062 117.578125 C 297.097656 115.464844 293.851562 113.234375 290.574219 111.058594 Z M 412.3125 158.46875 C 415.230469 154.878906 417.5625 151.542969 420.375 148.679688 C 423.128906 145.871094 426.246094 143.375 429.429688 141.039062 C 432.617188 138.699219 436.078125 136.730469 440.136719 134.144531 C 431.421875 134.144531 423.703125 134.144531 415.703125 134.144531 C 414.113281 142.15625 412.765625 149.992188 412.3125 158.46875 Z M 381.730469 134.875 C 384.21875 137.695312 386.289062 140.035156 389.011719 143.117188 C 389.261719 139.753906 389.429688 137.445312 389.621094 134.875 C 386.996094 134.875 384.726562 134.875 381.730469 134.875 Z M 733.707031 358.210938 C 725.386719 304.824219 700.753906 260.371094 659.769531 225.125 C 644.03125 211.589844 626.378906 201.09375 606.992188 193.585938 C 605.769531 193.113281 604.511719 192.621094 603.226562 192.457031 C 602.640625 192.382812 601.613281 192.953125 601.410156 193.476562 C 601.207031 193.996094 601.582031 195.074219 602.0625 195.457031 C 602.859375 196.09375 603.921875 196.414062 604.90625 196.789062 C 619.539062 202.375 633.242188 209.726562 645.839844 219.015625 C 687.335938 249.617188 713.855469 290.285156 726.4375 340.101562 C 732.449219 363.894531 733.835938 388.050781 730.449219 412.40625 C 729.90625 416.324219 729.109375 420.207031 728.378906 424.097656 C 728.117188 425.46875 727.859375 427.003906 729.5 427.410156 C 731.453125 427.890625 731.84375 426.246094 732.089844 424.742188 C 732.15625 424.351562 732.222656 423.960938 732.304688 423.574219 C 734.804688 411.507812 735.921875 399.304688 736.488281 386.941406 C 735.585938 377.359375 735.183594 367.703125 733.707031 358.210938 Z M 726.136719 448.5625 C 724.914062 447.988281 724.242188 448.960938 723.882812 450.046875 C 723.511719 451.167969 723.183594 452.300781 722.824219 453.425781 C 721.511719 457.546875 720.21875 461.675781 718.867188 465.78125 C 718.128906 468.023438 717.148438 470.195312 716.558594 472.472656 C 716.351562 473.273438 716.683594 474.734375 717.273438 475.121094 C 718.601562 475.988281 719.484375 474.835938 719.898438 473.679688 C 721.40625 469.484375 722.882812 465.277344 724.238281 461.03125 C 725.316406 457.660156 726.195312 454.226562 727.296875 450.351562 C 727.023438 449.898438 726.757812 448.851562 726.136719 448.5625 Z M 726.136719 448.5625 " fill-opacity="1" fill-rule="nonzero"/></g></svg>